<svg xmlns="http://www.w3.org/2000/svg" width="20" height="20" viewBox="0 0 20 20" fill="currentColor">
  <path d="M10 0C7.283 0 6.944.012 5.877.06 4.813.11 4.087.278 3.45.525a4.897 4.897 0 0 0-1.772 1.153A4.897 4.897 0 0 0 .525 3.45C.278 4.087.109 4.813.06 5.877.012 6.944 0 7.283 0 10s.012 3.056.06 4.123c.049 1.064.218 1.79.465 2.427a4.897 4.897 0 0 0 1.153 1.772 4.897 4.897 0 0 0 1.772 1.153c.637.247 1.363.416 2.427.465 1.067.048 1.407.06 4.123.06s3.056-.012 4.123-.06c1.064-.049 1.79-.218 2.427-.465a4.897 4.897 0 0 0 1.772-1.153 4.897 4.897 0 0 0 1.153-1.772c.247-.637.416-1.363.465-2.427.048-1.067.06-1.407.06-4.123s-.012-3.056-.06-4.123c-.049-1.064-.218-1.79-.465-2.427a4.897 4.897 0 0 0-1.153-1.772A4.897 4.897 0 0 0 16.55.525C15.913.278 15.187.109 14.123.06 13.056.012 12.717 0 10 0zm0 1.8c2.67 0 2.987.01 4.042.058.975.045 1.504.207 1.857.344.466.181.8.398 1.15.748.35.35.566.684.748 1.15.137.353.3.882.344 1.857.048 1.055.058 1.372.058 4.042 0 2.67-.01 2.987-.058 4.042-.045.975-.207 1.504-.344 1.857-.181.466-.398.8-.748 1.15-.35.35-.684.566-1.15.748-.353.137-.882.3-1.857.344-1.055.048-1.372.058-4.042.058-2.67 0-2.987-.01-4.042-.058-.975-.045-1.504-.207-1.857-.344-.466-.181-.8-.398-1.15-.748-.35-.35-.566-.684-.748-1.15-.137-.353-.3-.882-.344-1.857-.048-1.055-.058-1.372-.058-4.042 0-2.67.01-2.987.058-4.042.045-.975.207-1.504.344-1.857.181-.466.398-.8.748-1.15.35-.35.684-.566 1.15-.748.353-.137.882-.3 1.857-.344 1.055-.048 1.372-.058 4.042-.058z"/>
  <path d="M10 13.333a3.333 3.333 0 1 1 0-6.666 3.333 3.333 0 0 1 0 6.666zm0-8.466a5.133 5.133 0 1 0 0 10.266 5.133 5.133 0 0 0 0-10.266zm6.533-.133a1.2 1.2 0 1 1-2.4 0 1.2 1.2 0 0 1 2.4 0"/>
</svg>