<?xml version="1.0" encoding="utf-8"?>
<svg width="32" height="32" viewBox="0 0 32 32" fill="none" xmlns="http://www.w3.org/2000/svg">
  <rect width="32" height="32" rx="16" fill="white"/>
  <path d="M16 6.4c-5.302 0-9.6 4.298-9.6 9.6 0 1.693.448 3.346 1.299 4.797L6.4 25.6l4.927-1.272A9.559 9.559 0 0 0 16 25.6c5.302 0 9.6-4.298 9.6-9.6 0-5.302-4.298-9.6-9.6-9.6zm0 17.067c-1.466 0-2.899-.388-4.14-1.12l-.295-.174-2.927.756.78-2.85-.191-.302A8.028 8.028 0 0 1 7.6 16c0-4.637 3.763-8.4 8.4-8.4 4.637 0 8.4 3.763 8.4 8.4 0 4.637-3.763 8.4-8.4 8.4zm4.527-6.326c-.247-.124-1.462-.722-1.688-.805-.227-.083-.392-.124-.557.124-.165.247-.638.805-.782.97-.144.165-.289.186-.536.062-.247-.124-1.044-.384-1.99-1.224-.736-.656-1.232-1.469-1.378-1.716-.144-.247-.015-.38.109-.504.113-.112.247-.29.371-.434.124-.144.165-.247.247-.412.082-.165.041-.309-.021-.434-.062-.124-.557-1.346-.763-1.845-.201-.482-.406-.416-.557-.425l-.474-.008c-.165 0-.433.062-.66.309-.227.247-.865.845-.865 2.06 0 1.215.885 2.391 1.008 2.557.124.165 1.74 2.66 4.222 3.625.591.204 1.052.326 1.412.418.594.15 1.134.128 1.56.078.476-.056 1.462-.597 1.669-1.174.206-.577.206-1.072.144-1.174-.062-.103-.227-.165-.474-.289z" fill="#191919"/>
</svg>
