<svg width="100" height="100" viewBox="0 0 100 100" fill="none" xmlns="http://www.w3.org/2000/svg">
<path d="M9.14575 9.62721V90.375H90.854V9.62721H9.14575Z" fill="#AAAAAA" stroke="#333333" stroke-width="3.5" stroke-miterlimit="1.6" stroke-linejoin="round"/>
<path d="M88.3747 36.2598H9.229" stroke="#333333" stroke-width="2.44068" stroke-miterlimit="1.6"/>
<path d="M49.5774 88.1945V10.5781" stroke="#333333" stroke-width="2.5" stroke-miterlimit="1.6"/>
<path d="M59.0064 52.3998C59.0069 53.1983 58.7791 53.9978 58.3234 54.7548C57.8668 55.5133 57.1888 56.2162 56.3164 56.8163C55.444 57.4162 54.3999 57.8977 53.241 58.2278C52.0824 58.5579 50.8371 58.7286 49.5773 58.7286C48.3175 58.7286 47.0722 58.5579 45.9136 58.2278C44.7547 57.8977 43.7106 57.4162 42.8382 56.8163C41.9658 56.2162 41.2878 55.5133 40.8312 54.7548C40.3755 53.9978 40.1477 53.1983 40.1482 52.3998L40.1482 52.3992C40.1477 51.6006 40.3755 50.8011 40.8312 50.0441C41.2878 49.2856 41.9658 48.5827 42.8382 47.9827C43.7106 47.3827 44.7547 46.9012 45.9136 46.5711C47.0722 46.241 48.3175 46.0703 49.5773 46.0703C50.8371 46.0703 52.0824 46.241 53.241 46.5711C54.3999 46.9012 55.444 47.3827 56.3164 47.9827C57.1888 48.5827 57.8668 49.2856 58.3234 50.0441C58.7791 50.8011 59.0069 51.6006 59.0064 52.3992V52.3998Z" fill="#333333" stroke="#333333"/>
<path d="M59.0064 66.0541C59.0069 66.8526 58.7791 67.6521 58.3234 68.4091C57.8668 69.1676 57.1888 69.8705 56.3164 70.4706C55.444 71.0705 54.3999 71.552 53.241 71.8821C52.0824 72.2122 50.8371 72.3829 49.5773 72.3829C48.3175 72.3829 47.0722 72.2122 45.9136 71.8821C44.7547 71.552 43.7106 71.0705 42.8382 70.4706C41.9658 69.8705 41.2878 69.1676 40.8312 68.4091C40.3755 67.6521 40.1477 66.8526 40.1482 66.0541L40.1482 66.0534C40.1477 65.2549 40.3755 64.4554 40.8312 63.6984C41.2878 62.9399 41.9658 62.237 42.8382 61.637C43.7106 61.037 44.7547 60.5555 45.9136 60.2254C47.0722 59.8953 48.3175 59.7246 49.5773 59.7246C50.8371 59.7246 52.0824 59.8953 53.241 60.2254C54.3999 60.5555 55.444 61.037 56.3164 61.637C57.1888 62.237 57.8668 62.9399 58.3234 63.6984C58.7791 64.4554 59.0069 65.2549 59.0064 66.0534V66.0541Z" fill="#333333" stroke="#333333"/>
<path d="M59.0064 79.7064C59.0069 80.505 58.7791 81.3045 58.3234 82.0614C57.8668 82.8199 57.1888 83.5228 56.3164 84.1229C55.444 84.7229 54.3999 85.2044 53.241 85.5345C52.0824 85.8645 50.8371 86.0352 49.5773 86.0352C48.3175 86.0352 47.0722 85.8645 45.9136 85.5345C44.7547 85.2044 43.7106 84.7229 42.8382 84.1229C41.9658 83.5228 41.2878 82.8199 40.8312 82.0614C40.3755 81.3045 40.1477 80.505 40.1482 79.7064L40.1482 79.7058C40.1477 78.9072 40.3755 78.1077 40.8312 77.3508C41.2878 76.5923 41.9658 75.8894 42.8382 75.2893C43.7106 74.6893 44.7547 74.2078 45.9136 73.8777C47.0722 73.5477 48.3175 73.377 49.5773 73.377C50.8371 73.377 52.0824 73.5477 53.241 73.8777C54.3999 74.2078 55.444 74.6893 56.3164 75.2893C57.1888 75.8894 57.8668 76.5923 58.3234 77.3508C58.7791 78.1077 59.0069 78.9072 59.0064 79.7058V79.7064Z" fill="#333333" stroke="#333333"/>
<path d="M59.0064 20.3978C59.0069 21.1964 58.7791 21.9959 58.3234 22.7528C57.8668 23.5113 57.1888 24.2142 56.3164 24.8143C55.444 25.4143 54.3999 25.8958 53.241 26.2259C52.0824 26.5559 50.8371 26.7267 49.5773 26.7267C48.3175 26.7267 47.0722 26.5559 45.9136 26.2259C44.7547 25.8958 43.7106 25.4143 42.8382 24.8143C41.9658 24.2142 41.2878 23.5113 40.8312 22.7528C40.3755 21.9959 40.1477 21.1964 40.1482 20.3978L40.1482 20.3972C40.1477 19.5986 40.3755 18.7991 40.8312 18.0422C41.2878 17.2837 41.9658 16.5808 42.8382 15.9807C43.7106 15.3807 44.7547 14.8992 45.9136 14.5691C47.0722 14.2391 48.3175 14.0684 49.5773 14.0684C50.8371 14.0684 52.0824 14.2391 53.241 14.5691C54.3999 14.8992 55.444 15.3807 56.3164 15.9807C57.1888 16.5808 57.8668 17.2837 58.3234 18.0422C58.7791 18.7991 59.0069 19.5986 59.0064 20.3972V20.3978Z" fill="#333333" stroke="#333333"/>
<path d="M72.978 88.1945V10.5781" stroke="#333333" stroke-width="2.5" stroke-miterlimit="1.6"/>
<path d="M82.407 52.4014C82.4078 53.2001 82.1801 53.9997 81.7246 54.7568C81.2681 55.5154 80.5902 56.2185 79.7177 56.8187C78.8454 57.4188 77.8011 57.9004 76.6421 58.2306C75.4834 58.5607 74.2379 58.7315 72.9779 58.7315C71.7179 58.7315 70.4725 58.5607 69.3138 58.2306C68.1547 57.9004 67.1105 57.4188 66.2382 56.8187C65.3657 56.2185 64.6877 55.5154 64.2313 54.7568C63.7757 53.9997 63.5481 53.2001 63.5488 52.4014L63.5488 52.4004C63.5481 51.6018 63.7757 50.8021 64.2313 50.0451C64.6877 49.2864 65.3657 48.5834 66.2382 47.9831C67.1105 47.383 68.1547 46.9014 69.3138 46.5712C70.4725 46.2411 71.7179 46.0703 72.9779 46.0703C74.2379 46.0703 75.4834 46.2411 76.6421 46.5712C77.8011 46.9014 78.8454 47.383 79.7177 47.9831C80.5902 48.5834 81.2681 49.2864 81.7246 50.0451C82.1801 50.8021 82.4078 51.6018 82.407 52.4004V52.4014ZM63.0488 52.4009C63.048 51.5041 63.3042 50.616 63.8028 49.7873C64.3014 48.9586 65.0327 48.2055 65.9548 47.5712C66.8769 46.9369 67.9717 46.4337 69.1768 46.0903C70.3818 45.747 71.6735 45.5703 72.9779 45.5703C74.2824 45.5703 75.574 45.747 76.7791 46.0903C77.9842 46.4337 79.079 46.9369 80.0011 47.5712C80.9232 48.2055 81.6544 48.9586 82.153 49.7873C82.6517 50.616 82.9079 51.5041 82.907 52.4009H63.0488Z" fill="#333333" stroke="#333333"/>
<path d="M82.407 66.0537C82.4078 66.8524 82.1801 67.652 81.7246 68.4091C81.2681 69.1678 80.5902 69.8708 79.7177 70.471C78.8454 71.0711 77.8011 71.5527 76.6421 71.8829C75.4834 72.2131 74.2379 72.3838 72.9779 72.3838C71.7179 72.3838 70.4725 72.2131 69.3138 71.8829C68.1547 71.5527 67.1105 71.0711 66.2382 70.471C65.3657 69.8708 64.6877 69.1678 64.2313 68.4091C63.7757 67.652 63.5481 66.8524 63.5488 66.0537L63.5488 66.0528C63.5481 65.2541 63.7757 64.4545 64.2313 63.6974C64.6877 62.9387 65.3657 62.2357 66.2382 61.6355C67.1105 61.0354 68.1547 60.5538 69.3138 60.2236C70.4725 59.8934 71.7179 59.7227 72.9779 59.7227C74.2379 59.7227 75.4834 59.8934 76.6421 60.2236C77.8011 60.5538 78.8454 61.0354 79.7177 61.6355C80.5902 62.2357 81.2681 62.9387 81.7246 63.6974C82.1801 64.4545 82.4078 65.2541 82.407 66.0528V66.0537Z" fill="#333333" stroke="#333333"/>
<path d="M82.407 79.706C82.4078 80.5047 82.1801 81.3044 81.7246 82.0614C81.2681 82.8201 80.5902 83.5231 79.7177 84.1233C78.8454 84.7235 77.8011 85.2051 76.6421 85.5353C75.4834 85.8654 74.2379 86.0362 72.9779 86.0362C71.7179 86.0362 70.4725 85.8654 69.3138 85.5353C68.1547 85.2051 67.1105 84.7235 66.2382 84.1233C65.3657 83.5231 64.6877 82.8201 64.2313 82.0614C63.7757 81.3044 63.5481 80.5047 63.5488 79.706L63.5488 79.7051C63.5481 78.9064 63.7757 78.1068 64.2313 77.3497C64.6877 76.5911 65.3657 75.888 66.2382 75.2878C67.1105 74.6877 68.1547 74.2061 69.3138 73.8759C70.4725 73.5458 71.7179 73.375 72.9779 73.375C74.2379 73.375 75.4834 73.5458 76.6421 73.8759C77.8011 74.2061 78.8454 74.6877 79.7177 75.2878C80.5902 75.888 81.2681 76.5911 81.7246 77.3497C82.1801 78.1068 82.4078 78.9064 82.407 79.7051V79.706Z" fill="#333333" stroke="#333333"/>
<path d="M82.407 20.3975C82.4078 21.1961 82.1801 21.9958 81.7246 22.7528C81.2681 23.5115 80.5902 24.2145 79.7177 24.8148C78.8454 25.4149 77.8011 25.8965 76.6421 26.2267C75.4834 26.5568 74.2379 26.7276 72.9779 26.7276C71.7179 26.7276 70.4725 26.5568 69.3138 26.2267C68.1547 25.8965 67.1105 25.4149 66.2382 24.8148C65.3657 24.2145 64.6877 23.5115 64.2313 22.7528C63.7757 21.9958 63.5481 21.1961 63.5488 20.3975L63.5488 20.3965C63.5481 19.5978 63.7757 18.7982 64.2313 18.0411C64.6877 17.2825 65.3657 16.5795 66.2382 15.9792C67.1105 15.3791 68.1547 14.8975 69.3138 14.5673C70.4725 14.2372 71.7179 14.0664 72.9779 14.0664C74.2379 14.0664 75.4834 14.2372 76.6421 14.5673C77.8011 14.8975 78.8454 15.3791 79.7177 15.9792C80.5902 16.5795 81.2681 17.2825 81.7246 18.0411C82.1801 18.7982 82.4078 19.5978 82.407 20.3965V20.3975Z" fill="#333333" stroke="#333333"/>
<path d="M26.177 88.1945V10.5781" stroke="#333333" stroke-width="2.5" stroke-miterlimit="1.6"/>
<path d="M35.606 52.4008C35.607 53.1996 35.3795 53.9993 34.9241 54.7565C34.4677 55.5153 33.7898 56.2185 32.9173 56.8188C32.0449 57.4191 31.0006 57.9008 29.8415 58.231C28.6827 58.5612 27.4371 58.7321 26.1769 58.7321C24.9167 58.7321 23.6712 58.5612 22.5123 58.231C21.3532 57.9008 20.3089 57.4191 19.4365 56.8188C18.564 56.2185 17.8861 55.5153 17.4298 54.7565C16.9743 53.9993 16.7469 53.1996 16.7478 52.4008L16.7478 52.3996C16.7469 51.6008 16.9743 50.8011 17.4298 50.0439C17.8861 49.2851 18.564 48.582 19.4365 47.9816C20.3089 47.3814 21.3532 46.8997 22.5123 46.5694C23.6712 46.2392 24.9167 46.0684 26.1769 46.0684C27.4371 46.0684 28.6827 46.2392 29.8415 46.5694C31.0006 46.8997 32.0449 47.3814 32.9173 47.9816C33.7898 48.582 34.4677 49.2851 34.9241 50.0439C35.3795 50.8011 35.607 51.6008 35.606 52.3996V52.4008Z" fill="#333333" stroke="#333333"/>
<path d="M35.606 66.0532C35.607 66.8519 35.3795 67.6517 34.9241 68.4089C34.4677 69.1677 33.7898 69.8708 32.9173 70.4712C32.0449 71.0714 31.0006 71.5531 29.8415 71.8834C28.6827 72.2136 27.4371 72.3844 26.1769 72.3844C24.9167 72.3844 23.6712 72.2136 22.5123 71.8834C21.3532 71.5531 20.3089 71.0714 19.4365 70.4712C18.564 69.8708 17.8861 69.1677 17.4298 68.4089C16.9743 67.6517 16.7469 66.8519 16.7478 66.0532L16.7478 66.052C16.7469 65.2532 16.9743 64.4534 17.4298 63.6962C17.8861 62.9375 18.564 62.2343 19.4365 61.634C20.3089 61.0337 21.3532 60.552 22.5123 60.2217C23.6712 59.8915 24.9167 59.7207 26.1769 59.7207C27.4371 59.7207 28.6827 59.8915 29.8415 60.2217C31.0006 60.552 32.0449 61.0337 32.9173 61.634C33.7898 62.2343 34.4677 62.9375 34.9241 63.6962C35.3795 64.4534 35.607 65.2532 35.606 66.052V66.0532Z" fill="#333333" stroke="#333333"/>
<path d="M35.606 79.7074C35.607 80.5062 35.3795 81.306 34.9241 82.0632C34.4677 82.8219 33.7898 83.5251 32.9173 84.1254C32.0449 84.7257 31.0006 85.2074 29.8415 85.5377C28.6827 85.8679 27.4371 86.0387 26.1769 86.0387C24.9167 86.0387 23.6712 85.8679 22.5123 85.5377C21.3532 85.2074 20.3089 84.7257 19.4365 84.1254C18.564 83.5251 17.8861 82.8219 17.4298 82.0632C16.9743 81.306 16.7469 80.5062 16.7478 79.7074L16.7478 79.7063C16.7469 78.9075 16.9743 78.1077 17.4298 77.3505C17.8861 76.5918 18.564 75.8886 19.4365 75.2883C20.3089 74.688 21.3532 74.2063 22.5123 73.876C23.6712 73.5458 24.9167 73.375 26.1769 73.375C27.4371 73.375 28.6827 73.5458 29.8415 73.876C31.0006 74.2063 32.0449 74.688 32.9173 75.2883C33.7898 75.8886 34.4677 76.5918 34.9241 77.3505C35.3795 78.1077 35.607 78.9075 35.606 79.7063V79.7074Z" fill="#333333" stroke="#333333"/>
<path d="M35.606 20.3989C35.607 21.1976 35.3795 21.9974 34.9241 22.7546C34.4677 23.5134 33.7898 24.2165 32.9173 24.8169C32.0449 25.4171 31.0006 25.8988 29.8415 26.2291C28.6827 26.5593 27.4371 26.7301 26.1769 26.7301C24.9167 26.7301 23.6712 26.5593 22.5123 26.2291C21.3532 25.8988 20.3089 25.4171 19.4365 24.8169C18.564 24.2165 17.8861 23.5134 17.4298 22.7546C16.9743 21.9974 16.7469 21.1976 16.7478 20.3989L16.7478 20.3977C16.7469 19.5989 16.9743 18.7991 17.4298 18.0419C17.8861 17.2832 18.564 16.58 19.4365 15.9797C20.3089 15.3794 21.3532 14.8977 22.5123 14.5674C23.6712 14.2372 24.9167 14.0664 26.1769 14.0664C27.4371 14.0664 28.6827 14.2372 29.8415 14.5674C31.0006 14.8977 32.0449 15.3794 32.9173 15.9797C33.7898 16.58 34.4677 17.2832 34.9241 18.0419C35.3795 18.7991 35.607 19.5989 35.606 20.3977V20.3989Z" fill="#333333" stroke="#333333"/>
</svg>
