<svg width="100" height="100" viewBox="0 0 100 100" fill="none" xmlns="http://www.w3.org/2000/svg">
<g clip-path="url(#clip0_911_250)">
<path d="M85.1105 25.1778L84.9554 25.2505L83.449 25.6886C80.3937 26.6409 77.8342 29.1533 76.4074 32.4649C75.6312 34.2664 75.1311 37.4653 75.335 39.409C75.6664 42.5691 77.1166 45.7479 79.1234 47.1749C79.7139 47.5947 80.2891 47.887 80.8644 48.0135C81.4396 48.1399 82.0336 48.0558 82.5354 47.7516C83.5392 47.1433 84.0512 45.9163 84.4793 44.1712C85.2036 41.2181 86.9876 38.7815 89.7129 36.9903C91.39 35.8879 93.159 35.2824 95.4339 35.038C95.8885 34.9892 96.3689 34.9071 96.7629 34.8173C97.1568 34.7276 97.3879 34.6564 97.7328 34.437C98.3501 34.0443 98.7213 33.3098 98.6851 32.6187C98.6489 31.9276 98.3214 31.2561 97.8931 30.6045C97.0365 29.3013 95.5981 28.0448 93.7764 27.1376C92.6404 26.5718 91.6325 26.2803 88.7562 25.7941L85.2975 25.2094L85.1105 25.1778Z" fill="#FF0000" stroke="black" stroke-width="0.692516"/>
<path d="M66.9906 25.4302C65.7903 25.1698 64.5419 25.0166 63.7357 25.0779C62.0101 25.2092 60.4208 25.7535 59.1398 26.5772C57.8588 27.4009 56.8724 28.5266 56.6649 29.87C56.6142 30.1987 56.5888 30.5557 56.7422 30.9221C56.8956 31.2886 57.197 31.5529 57.526 31.7474C58.1841 32.1363 59.0784 32.3532 60.5045 32.6468C62.7057 33.0999 62.8031 33.1264 63.9525 33.9224C65.3231 34.8716 66.8793 36.9441 67.4081 38.5641C67.5243 38.9199 67.6233 39.2647 67.734 39.5593C67.8447 39.854 67.9244 40.0272 68.0579 40.2574C68.351 40.7629 68.9866 41.0602 69.5258 41.0003C70.065 40.9404 70.5319 40.7025 71.0695 40.3211C71.7734 39.8217 72.3389 39.1706 72.7208 38.3241C73.1027 37.4776 73.3493 36.454 73.5693 35.0038C73.9912 32.223 73.742 30.791 72.4532 28.8773C71.2189 27.0444 69.5031 25.9754 66.9906 25.4302Z" fill="#44AA00" stroke="black" stroke-width="0.692516"/>
<path d="M91.9933 42.7192C90.9427 42.5416 89.8142 42.8253 88.8869 43.5796L88.1134 44.2405L87.8499 44.3939L87.8052 44.6833L87.2615 48.2035L86.8445 50.904L75.2063 48.9366C69.4408 47.9641 66.3448 47.4339 64.5422 47.1833C62.7395 46.9329 62.1084 46.9418 61.5847 47.0792C59.4023 47.6521 57.5937 49.2461 56.9064 51.286L56.8149 51.5675L53.0141 51.0239C51.5242 50.8087 50.3656 50.7089 49.5256 50.6321C49.1056 50.5937 48.7606 50.5579 48.4824 50.5547C48.2042 50.5516 48.0549 50.5188 47.7515 50.6291C47.1897 50.8334 46.6777 51.1639 46.3426 51.6774C46.0076 52.1909 45.8276 52.8388 45.7101 53.5993C45.6138 54.2232 45.5801 54.6492 45.6662 55.1258C45.7523 55.6024 45.9438 55.9738 46.2353 56.4096L46.864 57.3076L47.0604 57.5882L47.3409 57.6356L51.813 58.4906L55.5298 59.2673L53.6328 71.8614L51.7282 84.5038L51.1131 84.4493C50.5552 84.3953 50.1378 84.3845 49.7205 84.4613C49.3031 84.5381 48.9343 84.728 48.5879 84.9626C46.7379 86.2156 46.3557 88.8968 47.8174 90.5723C48.1059 90.903 48.5076 91.2477 49.1228 91.4362C49.7381 91.6247 50.619 91.7386 52.3404 92.0296C53.9528 92.3022 54.7981 92.4655 55.4327 92.5029C56.0673 92.5405 56.5667 92.3993 56.9168 92.2095C57.5809 91.8495 58.1885 91.3524 58.5234 90.5018C58.8584 89.6511 59.024 88.5029 59.336 86.4827L59.7903 83.541L70.5404 85.3583L81.2439 87.1678L80.7747 90.2058C80.5539 91.6353 80.3947 92.7096 80.3468 93.5972C80.299 94.4849 80.3963 95.2741 80.8062 95.9016C81.2162 96.529 81.8442 96.8678 82.6352 97.1015C83.4263 97.3351 84.4146 97.4517 85.7126 97.6712L89.3116 98.2796L89.592 98.327L89.8555 98.1736L90.6067 97.6573C90.9763 97.395 91.3141 97.1 91.5258 96.6746C91.7375 96.2492 91.8055 95.8163 91.9044 95.1552C91.9765 94.6723 92.0197 94.2209 92.0121 93.8373C92.0043 93.4538 91.9851 93.1749 91.7871 92.8097C91.19 91.7084 90.1134 90.9945 88.7929 90.7696L88.419 90.7063L91.8151 68.7166L95.3304 45.9553L95.3751 45.666L95.2179 45.4415L94.6827 44.5593C94.0297 43.5379 93.0439 42.8968 91.9933 42.7192Z" fill="#44AA00" stroke="black" stroke-width="0.692516"/>
<path d="M78.9372 57.3866C78.4528 57.3047 78.1113 57.2354 77.6996 57.3258C77.288 57.4162 76.9586 57.6735 76.6457 57.9393C75.2308 59.1415 75.1624 61.371 76.6148 62.4865C77.6466 63.2789 79.0276 63.4209 80.1183 62.7818C80.4728 62.5741 80.789 62.3141 81.015 61.9438C81.2411 61.5734 81.3214 61.2027 81.3957 60.7216C81.4653 60.2709 81.5083 59.882 81.4415 59.4923C81.3747 59.1026 81.1927 58.7695 80.9754 58.4734C80.7582 58.1772 80.472 57.9152 80.13 57.7367C79.788 57.5581 79.3896 57.4631 78.9372 57.3866Z" fill="white" stroke="black" stroke-width="0.692516"/>
<path d="M81.1967 65.7341C80.3419 65.3394 79.3823 65.5692 78.3985 66.1518C76.6683 67.1763 75.738 67.5675 74.1616 67.8107C71.8125 68.173 70.7067 67.8968 68.2459 66.3653C67.8768 66.1356 67.4894 65.9389 67.137 65.782C66.7847 65.6251 66.5547 65.4751 66.1311 65.4635C65.6047 65.449 65.0662 65.6996 64.7425 66.0699C64.4189 66.4403 64.2653 66.9015 64.1526 67.4052C63.9272 68.4126 63.979 69.6256 64.3866 70.859C65.0602 72.8976 66.8249 75.3454 68.5027 76.5031C72.2664 79.0998 77.9775 77.6953 80.9324 73.6561C81.4896 72.8945 81.9507 71.9389 82.2599 70.961C82.5691 69.9831 82.7367 69.0493 82.6377 68.2044C82.5065 67.0844 82.0515 66.1289 81.1967 65.7341Z" fill="white" stroke="black" stroke-width="0.692516"/>
<path d="M69.1513 58.0096C68.6669 57.9278 68.3254 57.8585 67.9137 57.9488C67.5021 58.0392 67.1727 58.2965 66.8598 58.5624C65.4449 59.7645 65.3765 61.9941 66.8289 63.1095C67.8607 63.9019 69.2417 64.044 70.3324 63.4049C70.6869 63.1971 71.0031 62.9372 71.2292 62.5668C71.4552 62.1965 71.5355 61.8258 71.6098 61.3446C71.6794 60.8939 71.7224 60.5051 71.6556 60.1154C71.5888 59.7256 71.4068 59.3926 71.1895 59.0964C70.9723 58.8002 70.6861 58.5383 70.3441 58.3597C70.0021 58.1811 69.6037 58.0861 69.1513 58.0096Z" fill="white" stroke="black" stroke-width="0.692516"/>
<path d="M-1.06615 12.0242L1.22043 11.4378L5.14637 16.7105L5.24914 16.6842L6.15328 10.1729L8.43986 9.58653L10.6886 18.356L8.89021 18.8172L7.42652 13.1093L7.35373 13.128L6.53698 19.375L5.31234 19.6891L1.58469 14.5845L1.51189 14.6032L2.98107 20.3325L1.18264 20.7937L-1.06615 12.0242ZM14.0893 17.6163C13.6697 17.7239 13.2771 17.747 12.9115 17.6856C12.5451 17.6214 12.2293 17.4696 11.9641 17.2303C11.7011 16.9875 11.5139 16.6491 11.4026 16.2152C11.3089 15.8498 11.2973 15.5257 11.3678 15.2429C11.4383 14.9602 11.5697 14.7135 11.7622 14.5029C11.9546 14.2923 12.1879 14.1108 12.4622 13.9583C12.7393 13.8051 13.0366 13.6711 13.354 13.5562C13.7262 13.4182 14.025 13.302 14.2503 13.2077C14.4749 13.1106 14.6308 13.0128 14.7181 12.9143C14.8055 12.8159 14.8312 12.6967 14.7953 12.5569L14.7887 12.5312C14.7192 12.26 14.5797 12.0721 14.3704 11.9676C14.1639 11.8623 13.9051 11.8496 13.5939 11.9294C13.2656 12.0136 13.0231 12.1534 12.8663 12.3487C12.7088 12.5412 12.6265 12.754 12.6193 12.9871L10.8971 13.2827C10.8802 12.8611 10.9601 12.4725 11.1366 12.1169C11.3124 11.7584 11.5786 11.4498 11.9351 11.1911C12.2938 10.9287 12.7357 10.7302 13.261 10.5955C13.6264 10.5018 13.9871 10.455 14.343 10.4549C14.7018 10.4542 15.0342 10.5104 15.3401 10.6237C15.6488 10.7362 15.9151 10.9143 16.1389 11.1581C16.3619 11.3991 16.5236 11.7151 16.6238 12.1062L17.7614 16.5423L16.0315 16.986L15.7976 16.0739L15.7462 16.0871C15.6933 16.3197 15.5985 16.5372 15.4618 16.7396C15.3243 16.9391 15.1427 17.115 14.9171 17.2672C14.6907 17.4165 14.4148 17.5329 14.0893 17.6163ZM14.2889 16.2235C14.5573 16.1547 14.7806 16.0411 14.9591 15.8828C15.1368 15.7216 15.2608 15.5346 15.331 15.3219C15.4012 15.1092 15.4066 14.8872 15.3473 14.656L15.1683 13.958C15.1207 14.0098 15.051 14.0642 14.9592 14.1212C14.8694 14.1746 14.7665 14.2299 14.6503 14.2871C14.5334 14.3414 14.4162 14.3943 14.2985 14.4458C14.1802 14.4944 14.0729 14.5386 13.9766 14.5785C13.7706 14.6648 13.5964 14.7627 13.4541 14.8722C13.3118 14.9817 13.2114 15.1064 13.153 15.2461C13.0937 15.383 13.0861 15.5371 13.13 15.7083C13.1937 15.9567 13.3323 16.1235 13.5458 16.2087C13.7615 16.2903 14.0092 16.2952 14.2889 16.2235ZM20.9884 8.70522L21.3398 10.0755L17.3789 11.0911L17.0276 9.72091L20.9884 8.70522ZM17.5227 7.91455L19.3468 7.44678L20.9192 13.5786C20.9624 13.747 21.0218 13.8717 21.0973 13.9528C21.1721 14.0309 21.26 14.0769 21.3608 14.0905C21.4645 14.1035 21.5778 14.0942 21.7005 14.0628C21.7862 14.0408 21.87 14.0117 21.952 13.9755C22.0332 13.9364 22.0956 13.9067 22.139 13.8864L22.774 15.1702C22.69 15.2222 22.5699 15.288 22.4139 15.3676C22.2586 15.45 22.0635 15.5258 21.8288 15.5952C21.3936 15.725 20.9932 15.7653 20.6276 15.7161C20.265 15.6661 19.956 15.5232 19.7009 15.2875C19.4457 15.0517 19.2643 14.7179 19.1566 14.2861L17.5227 7.91455ZM24.8536 10.6712L25.8287 14.4736L24.0045 14.9414L21.7558 6.1719L23.5285 5.71731L24.3883 9.07011L24.4653 9.05034C24.5142 8.62404 24.6761 8.25853 24.9508 7.95381C25.2249 7.64623 25.6117 7.42839 26.1112 7.30029C26.568 7.18316 26.9918 7.18096 27.3828 7.29367C27.7758 7.4028 28.1142 7.61876 28.3977 7.94155C28.6834 8.26075 28.8907 8.67764 29.0196 9.19221L30.0935 13.38L28.2694 13.8478L27.279 9.98541C27.1779 9.57931 26.9942 9.29023 26.728 9.11815C26.4646 8.94534 26.1474 8.90651 25.7763 9.00168C25.5279 9.06536 25.3217 9.17454 25.1575 9.32921C24.9962 9.48314 24.8873 9.67536 24.8308 9.90586C24.7764 10.1328 24.784 10.3879 24.8536 10.6712Z" fill="black"/>
<path d="M18.5336 34.7846L13.1232 42.0643L11.584 40.9204L15.9087 35.1016L15.866 35.0699L13.4223 34.8759L14.4367 33.5109L17.0869 33.7093L18.5336 34.7846Z" fill="black"/>
<path d="M28.5337 34.7915L28.9242 36.1779L25.0931 37.2569L24.7026 35.8704L28.5337 34.7915Z" fill="black"/>
<path d="M41.0952 37.537C40.7239 37.7351 40.3591 37.8477 40.0009 37.8747C39.6435 37.8993 39.321 37.8435 39.0333 37.7073C38.7464 37.5686 38.5213 37.3522 38.3581 37.0582L39.4422 36.4799C39.5152 36.6007 39.6141 36.6884 39.7391 36.7432C39.8649 36.7953 40.0045 36.8135 40.1579 36.7977C40.3113 36.7819 40.4667 36.732 40.6242 36.648C40.7883 36.5604 40.9179 36.4541 41.013 36.3288C41.108 36.2036 41.1637 36.0706 41.1802 35.9298C41.1967 35.789 41.1691 35.6515 41.0975 35.5172C41.025 35.3813 40.9227 35.2814 40.7908 35.2176C40.6596 35.1513 40.5076 35.1259 40.3349 35.1414C40.1638 35.156 39.9821 35.2146 39.7898 35.3171L39.3149 35.5705L38.8931 34.7797L39.3681 34.5264C39.5305 34.4397 39.6589 34.3351 39.7532 34.2124C39.8491 34.0888 39.9053 33.9588 39.9219 33.8222C39.9376 33.6839 39.9096 33.5476 39.838 33.4134C39.7699 33.2857 39.6796 33.1902 39.567 33.1267C39.4551 33.0608 39.3299 33.0296 39.1913 33.0332C39.0544 33.036 38.9138 33.0759 38.7696 33.1528C38.6237 33.2306 38.5044 33.3283 38.4117 33.4459C38.3181 33.5618 38.2604 33.6873 38.2388 33.8224C38.2171 33.9574 38.2383 34.0909 38.3023 34.2229L37.2703 34.7733C37.1188 34.4772 37.0646 34.1739 37.1077 33.8635C37.1508 33.5531 37.2763 33.2615 37.4843 32.9887C37.6931 32.7134 37.9715 32.4829 38.3196 32.2972C38.6711 32.1098 39.0126 32.0096 39.3443 31.9966C39.676 31.9837 39.9727 32.0469 40.2344 32.1863C40.4968 32.3231 40.6989 32.5262 40.8405 32.7956C40.9942 33.0799 41.0324 33.3651 40.955 33.6512C40.8793 33.9365 40.7126 34.1808 40.4549 34.3843L40.4761 34.4241C40.8764 34.2723 41.231 34.2504 41.5397 34.3582C41.8493 34.4636 42.0877 34.675 42.2549 34.9925C42.4113 35.2817 42.4651 35.5841 42.4162 35.8998C42.3691 36.2145 42.2324 36.5153 42.0063 36.8019C41.7802 37.0886 41.4765 37.3337 41.0952 37.537Z" fill="black"/>
<path d="M28.6991 57.869L30.1764 51.919L30.1662 51.8744L27.0179 52.582L26.7597 51.4562L31.3341 50.4282L31.5959 51.5698L30.1221 57.5492L28.6991 57.869Z" fill="black"/>
<path d="M19.9958 56.9966L20.8749 58.6707L21.7759 56.9966H23.1382L21.7509 59.3909L23.1757 61.7852H21.8195L20.8749 60.1297L19.9459 61.7852H18.5742L19.9958 59.3909L18.6241 56.9966H19.9958Z" fill="black"/>
<path d="M23.0458 35.2738V32.3386H23.7879V35.2738H23.0458ZM21.9492 34.1773V33.4352H24.8844V34.1773H21.9492Z" fill="black"/>
<path d="M0.572268 70.2126L-0.198797 69.5136L-1.4921 64.8193L-0.88948 64.1545L0.1778 65.122L-0.178852 65.5154L0.645138 68.4826L0.681317 68.5154L3.17174 65.7681L3.95637 66.4793L0.572268 70.2126ZM3.40118 68.7277L2.35199 67.7766L2.02695 67.449L-1.21334 64.5118L-0.381148 63.5937L4.24977 67.7916L3.40118 68.7277Z" fill="black"/>
<path d="M47.7449 59.2868C47.9877 59.4489 48.1942 59.6456 48.3643 59.8769C48.5358 60.1091 48.6505 60.3734 48.7083 60.6697C48.7676 60.967 48.7503 61.2976 48.6563 61.6615C48.5649 62.0249 48.3773 62.4207 48.0936 62.8491C47.8259 63.2503 47.5415 63.5782 47.2405 63.8328C46.942 64.0869 46.6357 64.2679 46.3214 64.3759C46.0072 64.4839 45.6932 64.5165 45.3796 64.4738C45.0669 64.4296 44.7646 64.31 44.4725 64.1151C44.1574 63.9048 43.9197 63.6584 43.7594 63.3758C43.6001 63.0918 43.517 62.7952 43.51 62.4862C43.5055 62.1766 43.5761 61.8793 43.7219 61.5944L44.7064 62.2515C44.6299 62.4493 44.6214 62.6369 44.6808 62.8143C44.7411 62.9901 44.862 63.1386 45.0434 63.2596C45.3509 63.4648 45.6738 63.487 46.0121 63.3263C46.3515 63.1639 46.6779 62.8497 46.9914 62.3834L46.9591 62.3618C46.796 62.453 46.6212 62.5085 46.4346 62.5284C46.2491 62.5468 46.0607 62.531 45.8696 62.4812C45.6799 62.4324 45.4983 62.3501 45.3246 62.2341C45.0463 62.0484 44.8417 61.8174 44.7106 61.5411C44.5795 61.2648 44.5274 60.97 44.5542 60.6568C44.581 60.3437 44.6924 60.0403 44.8884 59.7467C45.0982 59.429 45.3594 59.1957 45.6722 59.0467C45.9849 58.8977 46.3202 58.8415 46.6779 58.878C47.0382 58.9141 47.3939 59.0504 47.7449 59.2868ZM47.2286 60.0754C47.0733 59.9718 46.9103 59.9164 46.7397 59.9091C46.5705 59.9029 46.409 59.9384 46.2552 60.0157C46.103 60.0941 45.9763 60.2106 45.8752 60.3654C45.7716 60.5206 45.7121 60.6831 45.6966 60.8527C45.6837 61.0219 45.7118 61.1828 45.781 61.3356C45.8526 61.4879 45.9653 61.6153 46.1191 61.7179C46.2343 61.7948 46.3555 61.8446 46.4826 61.8672C46.6097 61.8898 46.7346 61.8876 46.8571 61.8605C46.9822 61.8329 47.0988 61.783 47.207 61.7107C47.3152 61.6385 47.4067 61.5463 47.4816 61.4341C47.5796 61.284 47.6355 61.1236 47.6494 60.9529C47.6634 60.7822 47.6348 60.6187 47.5636 60.4623C47.4924 60.306 47.3807 60.177 47.2286 60.0754Z" fill="black"/>
<path d="M11.6721 79.5264C11.2203 79.1281 10.8908 78.69 10.6836 78.2119C10.4784 77.7357 10.4012 77.2605 10.4518 76.7863C10.5025 76.3122 10.6898 75.8827 11.0138 75.498L12.3564 76.6815C12.1478 76.9482 12.073 77.2478 12.1322 77.5802C12.1914 77.9126 12.3574 78.199 12.6302 78.4395C12.8476 78.6311 13.0816 78.7522 13.3324 78.8029C13.5872 78.8532 13.8375 78.8334 14.0835 78.7435C14.3334 78.6532 14.5579 78.4952 14.7571 78.2693C14.9599 78.0391 15.0894 77.7934 15.1454 77.5323C15.2035 77.273 15.1906 77.0192 15.1065 76.7709C15.0224 76.5225 14.8716 76.3006 14.6539 76.105C14.4621 75.9359 14.2409 75.8109 13.9902 75.7301C13.7417 75.6512 13.5072 75.6358 13.2869 75.6839L12.2505 74.3784L15.6039 71.1993L19.6062 74.7272L18.6087 75.8588L15.7476 73.3369L14.1326 74.8275L14.171 74.8613C14.4288 74.8007 14.7209 74.8196 15.0471 74.9178C15.3733 75.016 15.6803 75.1919 15.968 75.4455C16.3623 75.793 16.6322 76.1957 16.7778 76.6535C16.9234 77.1113 16.9429 77.5811 16.8364 78.0628C16.7317 78.5424 16.4933 78.9912 16.1211 79.4091C15.7344 79.8522 15.2864 80.1541 14.7773 80.315C14.2721 80.4757 13.7488 80.4915 13.2073 80.3626C12.6697 80.2334 12.158 79.9547 11.6721 79.5264Z" fill="black"/>
<path d="M31.6585 78.8653L31.8204 78.5353C31.9434 78.2848 32.1093 78.0806 32.3182 77.9228C32.5301 77.7639 32.7689 77.6713 33.0346 77.645C33.3033 77.6176 33.5853 77.6764 33.8807 77.8214C34.1802 77.9683 34.4007 78.1549 34.5425 78.3812C34.6862 78.6084 34.7581 78.8535 34.758 79.1163C34.7609 79.3781 34.7004 79.6353 34.5765 79.8879L34.4145 80.2179C34.2916 80.4684 34.1252 80.6736 33.9153 80.8335C33.7064 80.9913 33.4681 81.0829 33.2004 81.1082C32.9317 81.1356 32.6496 81.0768 32.3542 80.9319C32.0548 80.7849 31.8347 80.5973 31.694 80.369C31.5523 80.1427 31.4799 79.8987 31.477 79.6369C31.475 79.3731 31.5355 79.1159 31.6585 78.8653ZM32.7096 78.9717L32.5476 79.3017C32.4767 79.4463 32.4443 79.5998 32.4506 79.7621C32.4589 79.9254 32.5557 80.0526 32.7411 80.1435C32.9265 80.2345 33.0838 80.2333 33.213 80.14C33.3442 80.0477 33.4463 79.9272 33.5193 79.7785L33.6812 79.4485C33.7542 79.2998 33.7896 79.1453 33.7874 78.985C33.7852 78.8247 33.6883 78.6975 33.4968 78.6036C33.3135 78.5136 33.1547 78.5153 33.0204 78.6086C32.8862 78.702 32.7825 78.823 32.7096 78.9717ZM30.2045 73.7083L30.3665 73.3783C30.4904 73.1258 30.6579 72.921 30.8688 72.7642C31.0807 72.6053 31.3195 72.5127 31.5852 72.4864C31.8529 72.4611 32.1324 72.5199 32.4237 72.6628C32.7252 72.8108 32.9468 72.9979 33.0885 73.2242C33.2302 73.4504 33.3021 73.6955 33.304 73.9593C33.307 74.2211 33.2465 74.4783 33.1225 74.7309L32.9606 75.0609C32.8366 75.3135 32.6692 75.5182 32.4583 75.675C32.2494 75.8328 32.0111 75.9244 31.7434 75.9497C31.4787 75.974 31.1976 75.9132 30.9002 75.7672C30.6028 75.6213 30.3823 75.4347 30.2385 75.2074C30.0978 74.9791 30.0254 74.7351 30.0215 74.4754C30.0206 74.2146 30.0816 73.9589 30.2045 73.7083ZM31.2617 73.8177L31.0998 74.1477C31.0268 74.2964 30.994 74.4509 31.0012 74.6112C31.0106 74.7724 31.1048 74.8971 31.2841 74.985C31.4715 75.077 31.6298 75.0763 31.759 74.983C31.8902 74.8907 31.9924 74.7702 32.0653 74.6215L32.2273 74.2915C32.3002 74.1428 32.3356 73.9883 32.3334 73.828C32.3312 73.6677 32.2334 73.54 32.0398 73.4451C31.8585 73.3561 31.7013 73.3598 31.568 73.4562C31.4348 73.5526 31.3327 73.6731 31.2617 73.8177ZM28.2747 78.6606L35.6477 74.5142L36.4483 74.9071L29.0752 79.0535L28.2747 78.6606Z" fill="black"/>
</g>
<defs>
<clipPath id="clip0_911_250">
<rect width="100" height="100" fill="white"/>
</clipPath>
</defs>
</svg>
