<svg width="100" height="100" viewBox="0 0 100 100" fill="none" xmlns="http://www.w3.org/2000/svg">
<g clip-path="url(#clip0_911_318)">
<path d="M50.1486 98.6102C77.3845 98.6102 99.4634 76.5312 99.4634 49.2953C99.4634 22.0594 77.3845 -0.0195312 50.1486 -0.0195312C22.9127 -0.0195312 0.833496 22.0594 0.833496 49.2953C0.833496 76.5312 22.9127 98.6102 50.1486 98.6102Z" fill="white"/>
<path d="M19.0576 52.6254C19.0576 55.1237 18.8577 55.9374 18.3438 56.537C17.7718 57.052 17.0292 57.3369 16.2595 57.3364L16.4594 58.764C17.6527 58.7801 18.8106 58.3586 19.7143 57.5791C20.2005 56.9862 20.5623 56.3014 20.7782 55.5656C20.994 54.8297 21.0594 54.058 20.9706 53.2964V43.8457H19.0576V52.5683V52.6254Z" fill="#4E4E4E"/>
<path d="M33.3242 51.4989C33.3242 52.5696 33.3242 53.5261 33.4099 54.3541H31.711L31.5968 52.6553C31.2415 53.2564 30.7333 53.7526 30.124 54.0937C29.5147 54.4347 28.8259 54.6083 28.1278 54.5968C26.4718 54.5968 24.5017 53.6974 24.5017 50.0285V43.9327H26.4147V49.6431C26.4147 51.6274 27.0285 52.9551 28.7559 52.9551C29.1113 52.9589 29.4639 52.8917 29.793 52.7575C30.122 52.6232 30.421 52.4246 30.6723 52.1733C30.9236 51.922 31.1222 51.623 31.2565 51.294C31.3907 50.9649 31.4579 50.6123 31.4541 50.2569V43.8613H33.367V51.4418L33.3242 51.4989Z" fill="#4E4E4E"/>
<path d="M36.9504 47.3278C36.9504 46.0001 36.9504 44.9151 36.8647 43.9301H38.5779L38.6635 45.7146C39.0452 45.0699 39.5947 44.5408 40.2533 44.1838C40.912 43.8268 41.6553 43.6552 42.4038 43.6874C44.9449 43.6874 46.8579 45.8145 46.8579 48.9838C46.8579 52.7241 44.5595 54.5799 42.0754 54.5799C41.4397 54.6083 40.8073 54.4721 40.2396 54.1845C39.6719 53.8969 39.188 53.4676 38.8348 52.9382V58.6485H36.9504V47.3706V47.3278ZM38.8348 50.1116C38.84 50.3706 38.8687 50.6286 38.9205 50.8825C39.0824 51.5163 39.4512 52.0781 39.9683 52.4789C40.4854 52.8797 41.1214 53.0965 41.7757 53.0952C43.7886 53.0952 44.9735 51.4535 44.9735 49.0694C44.9735 46.9851 43.8599 45.2007 41.847 45.2007C41.0505 45.2659 40.305 45.6194 39.7505 46.195C39.1959 46.7706 38.8704 47.5286 38.8348 48.3271V50.1116Z" fill="#4E4E4E"/>
<path d="M50.2662 43.9211L52.5646 50.074C52.8073 50.7593 53.0642 51.5873 53.2355 52.2012C53.4354 51.573 53.6495 50.7736 53.9065 50.0312L55.9908 43.9211H58.0037L55.1485 51.3446C53.7209 54.9136 52.8501 56.7552 51.5367 57.8687C50.8752 58.4729 50.0687 58.8958 49.1955 59.0964L48.7244 57.4975C49.3349 57.2969 49.9017 56.982 50.3946 56.5696C51.0911 56.002 51.6438 55.2781 52.0078 54.4567C52.0857 54.3145 52.1388 54.16 52.1648 53.9999C52.1486 53.8276 52.1053 53.659 52.0364 53.5003L48.1533 43.8926H50.2376L50.2662 43.9211Z" fill="#4E4E4E"/>
<path d="M63.0822 40.9258V43.9237H65.8232V45.3513H63.0822V50.976C63.0822 52.2608 63.4534 53.0032 64.5098 53.0032C64.885 53.0093 65.2593 52.9661 65.6233 52.8747L65.709 54.3023C65.1632 54.4914 64.5874 54.5785 64.0101 54.5593C63.6278 54.5832 63.2449 54.5241 62.8876 54.3861C62.5303 54.2481 62.2071 54.0345 61.9401 53.7598C61.3586 52.9821 61.0934 52.0129 61.1978 51.0474V45.337H59.5703V43.9094H61.2263V41.3683L63.0822 40.9258Z" fill="#4E4E4E"/>
<path d="M69.3468 49.4713C69.3081 49.9555 69.3749 50.4423 69.5427 50.8981C69.7105 51.3539 69.9753 51.7678 70.3187 52.1112C70.6622 52.4547 71.0761 52.7194 71.5319 52.8872C71.9877 53.055 72.4745 53.1219 72.9586 53.0831C73.9379 53.105 74.9108 52.9202 75.8138 52.5406L76.1421 53.9682C75.034 54.4247 73.8425 54.6436 72.6445 54.6106C71.9462 54.6585 71.2457 54.5547 70.5912 54.3063C69.9367 54.058 69.3437 53.671 68.8528 53.172C68.3619 52.673 67.9847 52.0737 67.7472 51.4152C67.5097 50.7567 67.4174 50.0546 67.4767 49.3571C67.4767 46.2164 69.3468 43.7324 72.4019 43.7324C75.8281 43.7324 76.6846 46.7304 76.6846 48.6433C76.7029 48.9381 76.7029 49.2337 76.6846 49.5284H69.304L69.3468 49.4713ZM74.943 48.0437C74.9981 47.6621 74.9707 47.273 74.8627 46.9028C74.7548 46.5326 74.5687 46.1899 74.3171 45.8976C74.0654 45.6054 73.7541 45.3706 73.404 45.2088C73.0539 45.0471 72.6733 44.9623 72.2877 44.9601C71.5033 45.0169 70.7684 45.3646 70.227 45.935C69.6856 46.5054 69.3768 47.2575 69.3611 48.0437H74.943Z" fill="#4E4E4E"/>
<path d="M79.5871 47.1677C79.5871 45.9399 79.5871 44.8835 79.5015 43.9128H81.2146V45.9542H81.3002C81.48 45.3241 81.8516 44.7657 82.3632 44.3564C82.8748 43.947 83.5012 43.7072 84.1554 43.6701C84.3355 43.6464 84.5178 43.6464 84.6979 43.6701V45.4546C84.4797 45.4293 84.2594 45.4293 84.0412 45.4546C83.3932 45.4797 82.7764 45.7398 82.3061 46.1864C81.8359 46.633 81.5443 47.2356 81.4858 47.8815C81.4324 48.1736 81.4038 48.4697 81.4002 48.7666V54.3199H79.5157V47.1819L79.5871 47.1677Z" fill="#4E4E4E"/>
<path d="M78.7489 15.2462C78.8075 16.2052 78.5793 17.16 78.0934 17.989C77.6075 18.8179 76.8858 19.4834 76.0203 19.9007C75.1548 20.318 74.1847 20.4683 73.2335 20.3323C72.2823 20.1963 71.3931 19.7802 70.6792 19.1371C69.9653 18.494 69.459 17.653 69.2248 16.7211C68.9906 15.7892 69.0391 14.8087 69.3641 13.9045C69.6891 13.0003 70.2759 12.2133 71.0498 11.6437C71.8237 11.0742 72.7496 10.7479 73.7095 10.7064C74.3389 10.6718 74.9689 10.7619 75.5633 10.9716C76.1578 11.1814 76.7049 11.5065 77.1732 11.9284C77.6415 12.3503 78.0219 12.8606 78.2923 13.43C78.5627 13.9994 78.7179 14.6166 78.7489 15.2462Z" fill="#767677"/>
<path d="M50.5201 71.1551C37.6719 71.1551 26.3796 66.544 20.5408 59.7344C22.8063 65.8604 26.8941 71.1453 32.254 74.8779C37.6139 78.6104 43.9887 80.6113 50.5201 80.6113C57.0516 80.6113 63.4263 78.6104 68.7863 74.8779C74.1462 71.1453 78.234 65.8604 80.4996 59.7344C74.675 66.544 63.4255 71.1551 50.5201 71.1551Z" fill="#F37726"/>
<path d="M50.5201 26.8742C63.3684 26.8742 74.6608 31.4853 80.4996 38.2949C78.234 32.1689 74.1462 26.8839 68.7863 23.1514C63.4263 19.4189 57.0516 17.418 50.5201 17.418C43.9887 17.418 37.6139 19.4189 32.254 23.1514C26.8941 26.8839 22.8063 32.1689 20.5408 38.2949C26.3796 31.471 37.6148 26.8742 50.5201 26.8742Z" fill="#F37726"/>
<path d="M32.8331 84.4065C32.9085 85.6145 32.6225 86.8176 32.0117 87.8625C31.4008 88.9074 30.4927 89.7468 29.4031 90.2738C28.3134 90.8007 27.0916 90.9914 25.8932 90.8214C24.6949 90.6515 23.5742 90.1286 22.6741 89.3195C21.7739 88.5104 21.135 87.4516 20.8387 86.2781C20.5425 85.1045 20.6023 83.8693 21.0105 82.7299C21.4188 81.5905 22.157 80.5984 23.1311 79.88C24.1052 79.1616 25.2712 78.7495 26.4803 78.6961C27.2724 78.6538 28.0652 78.7679 28.8132 79.0319C29.5612 79.296 30.2498 79.7049 30.8398 80.2352C31.4297 80.7655 31.9094 81.4068 32.2514 82.1225C32.5934 82.8382 32.7911 83.6143 32.8331 84.4065Z" fill="#9E9E9E"/>
<path d="M22.0009 25.3232C21.3086 25.3423 20.6261 25.1563 20.0392 24.7886C19.4524 24.4208 18.9873 23.8878 18.7026 23.2564C18.4179 22.6251 18.3262 21.9236 18.439 21.2403C18.5519 20.557 18.8643 19.9223 19.3369 19.4161C19.8096 18.9098 20.4213 18.5546 21.0953 18.3952C21.7692 18.2357 22.4753 18.279 23.1247 18.5198C23.7741 18.7605 24.3378 19.1879 24.7449 19.7482C25.1521 20.3084 25.3845 20.9766 25.4129 21.6686C25.4399 22.6042 25.0968 23.5129 24.458 24.1971C23.8192 24.8813 22.9363 25.286 22.0009 25.3232Z" fill="#616262"/>
</g>
<defs>
<clipPath id="clip0_911_318">
<rect width="100" height="100" fill="white"/>
</clipPath>
</defs>
</svg>
