<svg width="100" height="100" viewBox="0 0 100 100" fill="none" xmlns="http://www.w3.org/2000/svg">
<path d="M83.0359 18.4531H20.8335V80.0603H83.0359V18.4531Z" stroke="black" stroke-width="2"/>
<path d="M92.8572 6.25H10.4167V16.9643H92.8572V6.25Z" stroke="black" stroke-width="2"/>
<path d="M91.9644 79.168H10.4167V89.8823H91.9644V79.168Z" stroke="black" stroke-width="2"/>
<path d="M96.4285 11.6074H95.238V11.905H96.4285V11.6074Z" fill="black" stroke="black" stroke-width="2"/>
<path d="M5.95239 12.5H8.63096H5.95239Z" stroke="black" stroke-width="2"/>
<path d="M8.63093 85.7148H6.84521V86.0125H8.63093V85.7148Z" fill="black" stroke="black" stroke-width="2"/>
<path d="M96.7262 84.8223H94.6428V85.1199H96.7262V84.8223Z" fill="black" stroke="black" stroke-width="2"/>
<path d="M5.05957 11.6074H8.03576H5.05957Z" stroke="black" stroke-width="2"/>
<path d="M8.33338 11.459C5.05957 11.459 5.05957 11.459 5.05957 11.459" stroke="black"/>
<path d="M9.22635 13.3926C5.2085 13.3926 5.2085 13.3926 5.2085 13.3926" stroke="black"/>
<path d="M9.52381 2.08398H9.375V21.1316H9.52381V2.08398Z" fill="black" stroke="black" stroke-width="2"/>
<path d="M92.8572 2.08398H91.6667V20.834H92.8572V2.08398Z" fill="black" stroke="black" stroke-width="2"/>
<path d="M10.8632 72.918H10.4167V93.9001H10.8632V72.918Z" fill="black" stroke="black" stroke-width="2"/>
<path d="M91.9644 72.918H91.6667V93.4537H91.9644V72.918Z" fill="black" stroke="black" stroke-width="2"/>
<path d="M37.156 49.5332C35.6794 49.5332 34.3699 49.2344 33.2273 48.6367C32.0847 48.0215 31.1882 47.1953 30.5378 46.1582C29.8875 45.1035 29.5623 43.9258 29.5623 42.625C29.5623 41.1484 29.8435 39.7598 30.406 38.459C30.9861 37.1406 31.7507 35.9805 32.7 34.9785C33.6667 33.9766 34.7478 33.1855 35.9431 32.6055C37.1384 32.0254 38.3513 31.7354 39.5818 31.7354C41.3396 31.7354 43.1589 31.9902 45.0398 32.5C45.0398 32.6406 45.031 32.9043 45.0134 33.291C44.9958 33.6777 44.9695 34.0996 44.9343 34.5566C44.8992 35.0137 44.864 35.418 44.8289 35.7695C44.8113 36.1211 44.7937 36.332 44.7761 36.4023C44.7234 36.666 44.4685 36.7979 44.0115 36.7979C43.9412 36.7979 43.8269 36.7715 43.6687 36.7188C43.4929 35.5059 43.0535 34.6182 42.3503 34.0557C41.6472 33.4932 40.6716 33.2119 39.4236 33.2119C38.4216 33.2119 37.5427 33.5107 36.7869 34.1084C36.031 34.7061 35.3982 35.4883 34.8884 36.4551C34.3787 37.4219 33.9919 38.4678 33.7283 39.5928C33.4822 40.7002 33.3591 41.7725 33.3591 42.8096C33.3591 44.3213 33.7019 45.5781 34.3875 46.5801C35.073 47.582 36.1013 48.083 37.4724 48.083C38.2283 48.083 38.9841 47.9775 39.74 47.7666L40.4519 44.3652C40.5574 43.8555 40.6101 43.4072 40.6101 43.0205C40.6101 42.8447 40.4871 42.7041 40.241 42.5986C39.9949 42.4932 39.7224 42.4141 39.4236 42.3613C39.1423 42.3086 38.9138 42.2822 38.738 42.2822C38.7029 42.2822 38.6853 42.2207 38.6853 42.0977C38.6853 41.6934 38.7468 41.4561 38.8699 41.3857L42.825 41.5439C43.1238 41.5439 44.2751 41.4912 46.2791 41.3857C46.2791 41.7549 46.2527 42.0098 46.2 42.1504C46.1472 42.291 46.0505 42.3701 45.9099 42.3877C45.7869 42.4053 45.6111 42.4316 45.3826 42.4668C45.1716 42.4844 44.908 42.5635 44.5916 42.7041C44.2927 42.8975 44.1082 43.1436 44.0378 43.4424L43.405 46.3691C43.3699 46.5801 43.3347 46.7734 43.2996 46.9492C43.2644 47.125 43.2468 47.2832 43.2468 47.4238C43.2468 47.5469 43.1326 47.7139 42.9041 47.9248C42.6931 48.1182 42.4558 48.2852 42.1921 48.4258C40.7156 49.1641 39.0369 49.5332 37.156 49.5332Z" fill="black"/>
<path d="M54.1667 34.375C72.9167 34.5238 72.0239 34.5238 72.0239 34.5238" stroke="black"/>
<path d="M71.7263 39.584H54.1667" stroke="black"/>
<path d="M54.1667 44.6426C70.8334 44.6426 70.8334 44.6426 70.8334 44.6426" stroke="black"/>
<path d="M54.1667 50C70.8334 50 70.8334 50 70.8334 50" stroke="black"/>
<path d="M54.1667 55.2094C70.8334 55.0605 70.8334 55.0605 70.8334 55.0605" stroke="black"/>
<path d="M29.167 62.5C70.8337 62.5 70.8337 62.5 70.8337 62.5" stroke="black"/>
<path d="M29.167 66.668C70.8337 66.668 70.8337 66.668 70.8337 66.668" stroke="black"/>
<path d="M29.167 70.834C70.8337 70.834 70.8337 70.834 70.8337 70.834" stroke="black"/>
</svg>
