<svg width="100" height="100" viewBox="0 0 100 100" fill="none" xmlns="http://www.w3.org/2000/svg">
<path d="M27.244 89.2635C27.244 89.2635 20.2268 90.0415 16.9874 88.943C14.5586 88.1193 11.4853 86.9089 10.7373 84.4557C10.0225 82.1114 11.6634 80.2298 12.9015 78.1146C13.4769 77.1314 12.3299 76.6706 11.7065 75.9504C11.4501 75.6542 7.91909 75.4019 11.0578 71.4747C10.3302 70.7714 8.86323 71.5837 8.49368 68.7503C8.31573 67.386 9.71637 67.1399 9.77575 66.1862C9.83559 65.225 10.0899 64.6438 9.46419 63.9117C8.00431 62.2039 3.94076 62.8625 3.0346 60.8066C2.59044 59.7988 3.20943 58.0442 3.68589 57.0514C5.86307 52.5145 11.6624 49.929 12.8207 45.0319C13.221 43.3394 11.5666 43.437 11.8591 39.9036C12.4127 33.2175 15.7571 24.4832 18.7503 20.993C24.4811 14.3106 34.8237 12.1781 43.5905 11.3774C53.5317 10.4695 66.0877 12.1605 72.3769 15.9339C77.6028 19.0693 80.7452 21.9907 83.1746 26.6021C86.0702 32.0985 87.3654 38.7753 86.4605 44.9216C85.834 49.1776 83.0258 52.5866 80.7707 56.2501C79.1625 58.8626 76.3454 60.8384 75.4821 63.7823C74.3988 67.4763 75.9629 75.3209 75.9629 75.3209" stroke="black" stroke-width="5" stroke-linecap="round"/>
<path d="M67.8899 48.8704C68.5624 48.5061 71.1695 49.6468 72.7189 50.2906C74.2646 50.9329 75.4648 52.9419 77.1218 52.7051C78.4474 52.5158 79.3942 50.4327 79.9624 49.8646C80.5305 49.2964 82.1607 41.6364 81.6667 37.508C81.0681 32.5062 79.5288 27.1631 76.1276 23.4472C71.982 18.918 65.628 16.6202 59.6522 15.2095C52.7408 13.5779 39.0581 15.2095 38.3479 15.2095C37.6378 15.2095 26.8298 18.4738 22.8668 22.595C19.0448 26.5695 15.9632 32.2906 16.3334 37.7921C16.5188 40.5464 18.2396 43.4527 20.5943 44.8936C24.7633 47.4445 31.0848 43.2875 35.2233 45.8878C37.2519 47.1624 36.9318 50.6052 38.774 52.137C40.7771 53.8027 43.5574 54.5675 46.1595 54.6935C50.1967 54.8891 53.99 52.6731 57.9479 51.853C60.1124 51.4044 62.3931 51.442 64.4812 50.7167C65.7019 50.2927 67.8899 48.8704 67.8899 48.8704Z" fill="#575757"/>
<path d="M50.2824 37.1454H48.6504V36.6334C48.6504 35.6947 48.7784 34.948 49.0344 34.3934C49.2904 33.8174 49.5998 33.3267 49.9624 32.9214C50.3464 32.516 50.7198 32.1 51.0824 31.6734C51.4664 31.2254 51.7864 30.6707 52.0424 30.0094C52.2984 29.3267 52.4264 28.4307 52.4264 27.3214C52.4264 25.8067 52.1811 24.6547 51.6904 23.8654C51.2211 23.0547 50.5278 22.6494 49.6104 22.6494C48.4584 22.6494 47.6584 23.172 47.2104 24.2174C46.7838 25.2627 46.6771 26.7454 46.8904 28.6654L43.2104 28.1534C42.9971 27.0014 43.0824 25.924 43.4664 24.9214C43.8718 23.9187 44.5864 23.108 45.6104 22.4894C46.6344 21.8494 47.9784 21.5294 49.6424 21.5294C51.2424 21.5294 52.5331 21.796 53.5144 22.3294C54.5171 22.8414 55.2531 23.5134 55.7224 24.3454C56.1918 25.1774 56.4264 26.0627 56.4264 27.0014C56.4264 27.9187 56.2664 28.6974 55.9464 29.3374C55.6264 29.956 55.2104 30.4894 54.6984 30.9374C54.2078 31.364 53.6851 31.7587 53.1304 32.1214C52.5758 32.484 52.0531 32.868 51.5624 33.2734C51.0931 33.6574 50.7304 34.116 50.4744 34.6494C50.2184 35.1614 50.1331 35.812 50.2184 36.6014L50.2824 37.1454ZM49.4184 43.9294C48.7571 43.9294 48.2131 43.7267 47.7864 43.3214C47.3811 42.8947 47.1784 42.34 47.1784 41.6574C47.1784 40.9747 47.3811 40.4307 47.7864 40.0254C48.2131 39.62 48.7571 39.4174 49.4184 39.4174C50.0798 39.4174 50.6238 39.62 51.0504 40.0254C51.4771 40.4307 51.6904 40.9747 51.6904 41.6574C51.6904 42.34 51.4771 42.8947 51.0504 43.3214C50.6238 43.7267 50.0798 43.9294 49.4184 43.9294Z" fill="black"/>
</svg>
