<svg width="100" height="100" viewBox="0 0 100 100" fill="none" xmlns="http://www.w3.org/2000/svg">
<path d="M26 54C37.0457 54 46 45.0457 46 34C46 22.9543 37.0457 14 26 14C14.9543 14 6 22.9543 6 34C6 45.0457 14.9543 54 26 54Z" stroke="black" stroke-width="3.5"/>
<path d="M74 54C85.0457 54 94 45.0457 94 34C94 22.9543 85.0457 14 74 14C62.9543 14 54 22.9543 54 34C54 45.0457 62.9543 54 74 54Z" stroke="black" stroke-width="3.5"/>
<path d="M34 34C36.2091 34 38 32.2091 38 30C38 27.7909 36.2091 26 34 26C31.7909 26 30 27.7909 30 30C30 32.2091 31.7909 34 34 34Z" stroke="black" stroke-width="3.5"/>
<path d="M82 34C84.2091 34 86 32.2091 86 30C86 27.7909 84.2091 26 82 26C79.7909 26 78 27.7909 78 30C78 32.2091 79.7909 34 82 34Z" stroke="black" stroke-width="3.5"/>
<path d="M52 86C74.0914 86 92 82.4183 92 78C92 73.5817 74.0914 70 52 70C29.9086 70 12 73.5817 12 78C12 82.4183 29.9086 86 52 86Z" stroke="black" stroke-width="3.5"/>
</svg>
