<svg width="100" height="100" viewBox="0 0 100 100" fill="none" xmlns="http://www.w3.org/2000/svg">
<g clip-path="url(#clip0_911_269)">
<path fill-rule="evenodd" clip-rule="evenodd" d="M61.6847 69.8673C64.0096 69.0164 66.4872 68.9413 68.8484 68.2431C72.572 67.1279 75.5393 64.7085 79.0569 63.1401L90.4169 58.5679C84.766 61.4964 79.2266 65.654 73.8011 69.3194C70.3054 71.7194 66.3902 73.3437 62.4411 73.8916C62.1381 73.9473 61.8157 73.9473 61.4957 73.8552C61.4011 73.8164 61.2872 73.7582 61.1926 73.6831C61.1175 73.6273 61.0423 73.5522 60.9841 73.4576C60.9284 73.3631 60.8896 73.2685 60.8532 73.1546C60.8338 73.0601 60.8144 72.9291 60.8144 72.8152C60.795 72.5679 60.8144 72.2867 60.8702 72.0588C61.0423 71.2855 61.326 70.5291 61.6847 69.8673Z" fill="#92D9D9"/>
<path fill-rule="evenodd" clip-rule="evenodd" d="M42.7053 42.1114C40.3999 42.9235 37.9611 43.0181 35.6168 43.6799C31.9683 44.7369 28.8871 46.9478 25.3889 48.4217L14.0483 52.6738C19.738 49.9708 25.3138 46.1744 30.8338 42.7926C34.3877 40.6011 38.2641 39.0884 42.1768 38.5405C42.4774 38.4847 42.7805 38.4653 43.0835 38.5599C43.178 38.5769 43.292 38.635 43.3865 38.6908C43.4423 38.749 43.5174 38.8241 43.5756 38.8993C43.612 38.9744 43.6508 39.069 43.6702 39.1635C43.7065 39.2581 43.7065 39.372 43.7065 39.4666C43.7065 39.692 43.6702 39.9563 43.612 40.1647C43.4035 40.8823 43.0641 41.5441 42.7053 42.1114Z" fill="#92D9D9"/>
<path fill-rule="evenodd" clip-rule="evenodd" d="M45.1442 38.8052C43.4036 39.4113 41.5708 39.4864 39.8133 39.9955C37.0715 40.7713 34.7466 42.4343 32.1187 43.547L23.6121 46.7422C27.8836 44.7204 32.0799 41.867 36.2205 39.3167C38.8872 37.6731 41.7987 36.5385 44.7272 36.1216C44.9551 36.0852 45.1999 36.0852 45.4278 36.141C45.503 36.1604 45.5781 36.1992 45.6363 36.2549C45.6921 36.2937 45.7502 36.3301 45.7866 36.4052C45.8254 36.4634 45.8424 36.5192 45.8618 36.5943C45.8811 36.6719 45.9005 36.747 45.9005 36.8222C45.9005 36.9919 45.8618 37.181 45.8254 37.3507C45.6557 37.8792 45.4084 38.3907 45.1442 38.8052Z" fill="#4DC2C2"/>
<path fill-rule="evenodd" clip-rule="evenodd" d="M60.8703 34.5352C63.5757 33.1558 66.2012 32.9473 69.0569 32.7412C71.9297 32.5327 74.8775 32.5691 77.7139 32.0212C78.0921 31.9461 78.4703 31.7376 78.7733 31.4176C79.0012 31.1897 79.2266 30.8697 79.3406 30.4915C79.3769 30.3412 79.3963 30.1885 79.3963 30.0382C79.3963 29.9824 79.3769 29.9049 79.36 29.8491C79.3406 29.7909 79.3018 29.7352 79.2824 29.6794C79.1878 29.5655 79.0763 29.5097 78.9624 29.4903C78.7927 29.4321 78.623 29.4709 78.4509 29.5097C76.543 29.8491 74.6715 29.6964 72.7442 29.6236C70.1333 29.5291 67.1272 29.8685 64.5575 30.4721C62.7418 30.8891 60.8703 31.8515 59.1321 32.7024C59.7187 33.3061 60.303 33.9291 60.8703 34.5352Z" fill="#4DC2C2"/>
<path fill-rule="evenodd" clip-rule="evenodd" d="M88.2061 71.6602C88.32 71.0929 88.4533 70.528 88.64 69.9995C88.6982 69.8662 88.7345 69.7523 88.8121 69.6408C88.8291 69.602 88.8485 69.5826 88.8679 69.5632C88.8848 69.5462 88.9042 69.5268 88.9236 69.5268C88.943 69.5462 88.9624 69.5462 88.9624 69.5632C88.9818 69.5826 88.9988 69.6214 88.9988 69.6408C89.0376 69.7329 89.057 69.8274 89.057 69.9026C89.0933 70.1862 89.0764 70.4892 89.0764 70.7729C89.0376 71.3208 88.9818 71.9826 88.7733 72.4553C88.7539 72.5305 88.6982 72.5862 88.6594 72.6056C88.64 72.625 88.6036 72.625 88.5842 72.625C88.5648 72.6056 88.5455 72.5862 88.5285 72.5668C88.4533 72.4917 88.4145 72.3777 88.3758 72.2856C88.3006 72.0965 88.2448 71.9074 88.2061 71.6989C88.2061 71.6989 88.2061 71.6795 88.2061 71.6602Z" fill="#4DC2C2"/>
<path fill-rule="evenodd" clip-rule="evenodd" d="M56.2787 75.9329C57.9612 75.3098 59.7381 75.2711 61.4375 74.762C64.1042 73.9474 66.2594 72.2286 68.7733 71.0771L76.9575 67.7899C72.8751 69.8868 68.9066 72.8905 65.0109 75.5353C62.4775 77.2541 59.663 78.4274 56.8266 78.8226C56.5987 78.8614 56.3733 78.8614 56.1454 78.8032C56.0703 78.7668 55.9951 78.728 55.9369 78.6723C55.8812 78.6335 55.8254 78.5777 55.7866 78.522C55.7478 78.4444 55.7115 78.3692 55.6921 78.2941C55.6727 78.2189 55.6533 78.1438 55.6533 78.0468C55.6363 77.8795 55.6533 77.6711 55.6921 77.5014C55.8254 76.9341 56.0315 76.4056 56.2787 75.9329Z" fill="#4DC2C2"/>
<path fill-rule="evenodd" clip-rule="evenodd" d="M74.2352 71.2844C74.1988 71.2456 74.1406 71.2262 74.1042 71.1898C74.4242 69.5268 75.5588 69.1292 75.9758 67.6189C76.0703 67.3353 76.1067 67.0516 76.2206 66.768C76.24 66.7098 76.2764 66.6347 76.2958 66.5789C76.3152 66.5595 76.3346 66.5401 76.3346 66.5232C76.3539 66.5038 76.3733 66.5038 76.3733 66.5038C76.3903 66.5038 76.3903 66.5038 76.4097 66.5038C76.4097 66.5038 76.4291 66.5232 76.4291 66.5401C76.4485 66.5789 76.4679 66.6153 76.4679 66.6735C76.5042 66.8238 76.5042 66.9935 76.5042 67.1462C76.5236 67.6189 76.4849 68.0892 76.4291 68.5426C76.3903 68.9013 76.3152 69.3377 76.1649 69.6213C75.823 70.2638 75.5394 70.9426 75.1636 71.5292C75.0861 71.6601 74.9915 71.7741 74.897 71.8686C74.8218 71.9438 74.7273 72.002 74.6327 72.002C74.5964 72.002 74.5576 71.9826 74.5188 71.9632C74.4824 71.9244 74.4436 71.888 74.4073 71.8323C74.3321 71.6795 74.2739 71.471 74.2352 71.2844Z" fill="#36A1A1"/>
<path fill-rule="evenodd" clip-rule="evenodd" d="M72.5356 75.7431C72.6302 75.3455 72.7247 74.9504 72.8556 74.5698C72.8944 74.497 72.9138 74.4001 72.9696 74.3249C72.989 74.3079 72.989 74.2885 73.0084 74.2691C73.0253 74.2691 73.0447 74.2498 73.0447 74.2498C73.0641 74.2498 73.0835 74.2691 73.0835 74.2691C73.1029 74.2885 73.1029 74.3079 73.1199 74.3249C73.1393 74.3831 73.1393 74.4582 73.1393 74.514C73.1587 74.7225 73.1587 74.9285 73.1587 75.1176C73.1393 75.4958 73.0835 75.9685 72.9502 76.3104C72.9308 76.3467 72.8944 76.4049 72.8556 76.4049C72.8556 76.4219 72.8387 76.4219 72.8169 76.4219C72.7999 76.4049 72.7805 76.4049 72.7611 76.3855C72.7247 76.3298 72.6859 76.2522 72.6666 76.177C72.6108 76.0437 72.572 75.9128 72.5526 75.7794C72.5526 75.7625 72.5526 75.7625 72.5356 75.7431Z" fill="#36A1A1"/>
<path fill-rule="evenodd" clip-rule="evenodd" d="M50.1721 78.7468C51.326 78.3129 52.5721 78.2741 53.7648 77.9153C55.6363 77.348 57.1466 76.1383 58.9236 75.3262L64.6521 73.0207C61.7987 74.4971 59.0012 76.611 56.2594 78.4632C54.5018 79.6729 52.5357 80.5044 50.5503 80.7686C50.4 80.788 50.2278 80.805 50.0775 80.7492C50.0218 80.7298 49.9636 80.7129 49.9272 80.6741C49.8884 80.6353 49.8521 80.5989 49.8133 80.5407C49.7939 80.5044 49.7745 80.4462 49.7551 80.4098C49.7381 80.3516 49.7381 80.2959 49.7188 80.2207C49.7188 80.1068 49.7381 79.9565 49.7551 79.8426C49.8521 79.445 49.983 79.0668 50.1721 78.7468Z" fill="#36A1A1"/>
<path fill-rule="evenodd" clip-rule="evenodd" d="M27.9224 40.4481C27.9612 40.4675 28.017 40.5063 28.0558 40.5427C27.583 42.3197 26.3176 42.659 25.7309 44.2469C25.6364 44.5475 25.5612 44.8312 25.4279 45.1148C25.3891 45.19 25.3527 45.2651 25.314 45.3233C25.2946 45.3427 25.2776 45.3621 25.2776 45.379C25.2582 45.3984 25.2388 45.3984 25.2194 45.3984H25.2C25.183 45.379 25.183 45.379 25.1637 45.3621C25.1443 45.3233 25.1443 45.2651 25.1249 45.2287C25.1055 45.0784 25.1055 44.8893 25.1055 44.7366C25.1443 44.2469 25.2 43.7742 25.2946 43.3015C25.3697 42.9233 25.4667 42.47 25.6558 42.1863C26.0703 41.5269 26.4485 40.8069 26.9018 40.2033C26.9964 40.07 27.1103 39.939 27.2243 39.8445C27.2994 39.7694 27.4133 39.7112 27.5079 39.7112C27.5637 39.7112 27.6024 39.7306 27.6388 39.75C27.6776 39.7887 27.7164 39.8251 27.7527 39.8833C27.8473 40.053 27.8836 40.2421 27.9224 40.4481Z" fill="#36A1A1"/>
<path fill-rule="evenodd" clip-rule="evenodd" d="M30.0969 35.82C29.9636 36.2346 29.8327 36.6516 29.663 37.0297C29.6242 37.1243 29.5854 37.2188 29.5296 37.294C29.5102 37.311 29.4909 37.3303 29.4739 37.3497C29.4545 37.3691 29.4351 37.3691 29.4351 37.3691C29.4157 37.3691 29.3963 37.3691 29.3963 37.3497C29.3793 37.3303 29.3793 37.311 29.3599 37.294C29.3406 37.2358 29.3406 37.1607 29.3406 37.1049C29.3212 36.8964 29.3406 36.6879 29.3599 36.4794C29.4157 36.0649 29.4909 35.5922 29.663 35.2528C29.6824 35.214 29.7187 35.1582 29.7769 35.1388C29.7769 35.1388 29.7939 35.1388 29.8133 35.1388C29.8327 35.1388 29.8521 35.1582 29.869 35.1776C29.9272 35.2334 29.9466 35.3085 29.983 35.3861C30.0218 35.517 30.0581 35.6503 30.0775 35.8007C30.0775 35.8007 30.0775 35.82 30.0969 35.82Z" fill="#36A1A1"/>
<path fill-rule="evenodd" clip-rule="evenodd" d="M55.4279 32.3413C54.0848 32.8141 52.6667 32.8723 51.3261 33.2698C49.2073 33.8735 47.4133 35.1583 45.3891 36.0092L38.7927 38.4844C42.0994 36.9159 45.3527 34.705 48.5479 32.7413C50.6254 31.4735 52.8558 30.5862 55.1248 30.2638C55.2945 30.2444 55.4836 30.2274 55.6533 30.2832C55.7115 30.3026 55.7673 30.322 55.8255 30.3583C55.8618 30.3971 55.9006 30.4359 55.937 30.4916C55.9564 30.5304 55.9758 30.5862 55.9951 30.6419C56.0121 30.7001 56.0121 30.7559 56.0121 30.8116C56.0121 30.945 55.9951 31.0977 55.9564 31.2092C55.8255 31.6262 55.6364 32.0213 55.4279 32.3413Z" fill="#36A1A1"/>
<path fill-rule="evenodd" clip-rule="evenodd" d="M30.4096 79.9902C30.4096 79.9902 27.0351 77.2314 24.7345 73.2459C22.4339 69.2629 21.823 68.0362 21.823 68.0362C21.823 68.0362 19.2145 68.1889 17.069 66.3514C14.9211 64.5114 11.8545 63.2847 11.8545 59.3017C11.8545 55.3162 11.0884 52.7102 12.4678 49.9514C13.8472 47.1926 15.5345 42.2883 15.3818 39.8374C15.229 37.3865 16.4557 35.8544 17.6824 34.475C18.909 33.0956 20.5963 32.0217 20.5963 32.0217L21.5151 30.6423C21.5151 30.6423 18.2957 28.0362 18.1405 24.972C17.9878 21.9077 14.9211 17.309 12.4678 13.9368C10.0145 10.5671 9.70902 7.65562 9.86175 4.58895C10.0145 1.52471 9.70902 -1.38681 13.389 0.911372C17.069 3.20955 22.7418 8.26895 27.4957 14.5502C32.2472 20.8338 34.2424 24.3586 34.2424 24.3586C34.2424 24.3586 38.3805 18.3829 44.5139 13.018C50.6472 7.65561 57.0884 4.43622 56.7805 10.1065C56.4751 15.7768 56.7805 16.0847 56.7805 16.0847C56.7805 16.0847 65.8278 16.3902 71.1951 18.3829C76.5599 20.3756 82.2351 25.5853 84.3805 32.0217C86.526 38.458 87.7527 38.9186 88.9793 40.4508C90.2084 41.9829 91.7405 45.6605 91.4351 51.178C91.1272 56.6956 90.5139 57.7671 91.4351 61.1392C92.3539 64.5114 89.9005 72.7877 88.2133 74.778C86.526 76.7708 86.2205 84.7393 85.7599 88.1114C85.2993 91.4835 82.6933 98.8386 79.4739 99.2993C76.2545 99.7599 74.2617 98.6859 74.2617 98.6859C74.2617 98.6859 73.0351 100.679 69.9684 99.9126C66.9017 99.1465 66.7466 98.2253 66.7466 98.2253C66.7466 98.2253 65.8278 98.5332 64.6011 98.3805C63.3745 98.2253 61.2266 95.9271 64.4484 90.2568C67.6678 84.5865 69.9684 81.9829 70.4266 80.6035C70.8872 79.2241 72.1139 75.6993 70.1211 77.2314C68.1284 78.7635 64.6011 85.6605 63.8351 88.572C63.0666 91.4835 62.3005 98.0726 60.9211 98.9938C59.5417 99.9126 57.2411 97.9199 57.2411 97.9199C57.2411 97.9199 55.0957 99.1465 52.9478 98.9938C50.8024 98.8386 50.8024 97.6144 50.8024 97.6144C50.8024 97.6144 50.8024 100.065 47.8884 98.6859C44.9745 97.3065 44.8218 94.7029 46.8145 92.4023C48.8072 90.1041 50.0339 87.1926 50.0339 87.1926C50.0339 87.1926 47.7357 86.4265 45.7405 85.8132C43.7478 85.1999 41.5999 85.5077 41.5999 85.5077C41.5999 85.5077 41.9078 90.7174 40.6811 93.1683C39.4545 95.6217 37.7672 96.3877 36.6933 95.4689C35.6217 94.5477 35.0084 94.8556 35.0084 94.8556C35.0084 94.8556 30.2545 97.6144 27.6484 94.7029C25.0424 91.7889 27.1878 88.8774 28.8751 87.8059C30.5624 86.732 31.4811 86.2738 31.4811 84.8944C31.4811 83.515 30.4096 79.9902 30.4096 79.9902Z" fill="black"/>
<path fill-rule="evenodd" clip-rule="evenodd" d="M25.1951 68.9551C25.1951 68.9551 31.3285 81.2169 42.3685 83.2072C53.4085 85.1999 54.0218 84.7393 52.7951 87.4981C51.5685 90.2569 48.1939 93.4763 48.96 95.1611C49.7285 96.8484 50.6473 96.6933 51.7212 95.6217C52.7951 94.5478 51.8739 96.8484 52.9479 97.0011C54.0218 97.1539 55.2485 96.3878 55.8618 94.5478C56.4751 92.7102 56.0145 95.0084 57.7018 95.6217C59.3891 96.2351 61.2267 94.2423 61.9951 89.7987C62.7612 85.3526 63.0667 82.2884 64.6012 80.4484C66.1333 78.6108 70.2739 74.1672 71.5006 73.3987C72.7273 72.6326 77.9418 74.7781 74.2618 80.6036C70.5818 86.4266 66.2885 89.7987 65.3673 92.2496C64.4485 94.703 64.1406 95.7745 65.3673 96.3878C66.5939 97.0011 67.9733 93.1684 67.9733 93.1684C67.9733 93.1684 68.1285 97.9199 70.7345 97.9199C73.3406 97.9199 74.1067 94.2423 74.1067 94.2423C74.1067 94.2423 73.4933 97.3066 77.0206 97.0011C80.5479 96.6933 82.2351 95.0084 83.6145 87.1926C84.9939 79.3769 84.5333 75.5442 87.2945 72.1745C90.0533 68.8023 90.3612 64.0508 89.44 58.8411C88.5212 53.6314 91.4351 47.6533 87.2945 41.983C83.1539 36.3126 83.7673 33.8617 81.6218 30.3369C79.4739 26.812 76.56 23.4399 72.4218 20.989C68.2812 18.5357 58.9285 18.5357 57.5467 18.5357C56.1673 18.5357 54.3273 20.5284 54.3273 20.5284C54.3273 20.5284 48.96 32.0217 47.2751 33.8617C45.5879 35.6993 56.0145 46.2739 48.0412 55.1636C40.0679 64.0508 51.8739 50.8726 47.7358 40.2981C43.5951 29.7236 44.9745 34.0145 48.8073 27.2702C52.6424 20.5284 54.0218 16.543 54.0218 14.092C54.0218 11.6387 54.0218 9.95386 54.0218 9.95386C54.0218 9.95386 49.1151 10.1066 42.5212 17.7696C35.9273 25.4327 35.9273 27.5781 35.9273 27.5781C35.9273 27.5781 32.2473 27.1175 31.6339 24.0533C31.0206 20.989 25.8085 15.0108 20.5964 9.80113C15.3818 4.58901 12.9285 3.20962 12.9285 3.20962C12.9285 3.20962 10.3224 7.96114 15.0739 13.6314C19.8279 19.3017 20.1358 21.9078 20.2885 24.3587C20.4412 26.812 23.2024 28.6496 24.2739 29.7236C25.3479 30.7951 24.5818 31.869 21.9757 33.7066C19.3673 35.5466 17.6824 38.3054 17.6824 39.6848C17.6824 41.0642 17.6824 41.6775 17.6824 41.6775C17.6824 41.6775 14.7685 49.0326 13.8473 50.8726C12.9285 52.7102 13.6945 57.1563 13.6945 57.1563C13.6945 57.1563 13.2364 58.6884 15.6897 58.6884C18.1406 58.6884 18.4485 59.9126 16.9164 61.7526C15.3818 63.5926 17.2218 63.8981 18.2957 64.6642C19.3673 65.4302 21.6679 64.3587 21.6679 64.3587C21.6679 64.3587 21.823 65.4302 20.2885 65.8908C18.7539 66.3514 23.3551 66.0436 28.8751 65.1248C34.3951 64.206 38.6885 61.7526 38.6885 61.7526C38.6885 61.7526 34.2424 66.5042 28.8751 66.6569C23.5079 66.8096 25.1951 68.9551 25.1951 68.9551Z" fill="white"/>
<path fill-rule="evenodd" clip-rule="evenodd" d="M45.8982 56.3254C47.2873 53.1642 50.0873 46.3109 47.7358 40.2987C43.5951 29.7242 44.9745 34.0151 48.8073 27.2709C52.6424 20.5291 54.0218 16.5436 54.0218 14.0927C54.0218 11.6394 54.0218 9.9545 54.0218 9.9545C54.0218 9.9545 49.1151 10.1072 42.5212 17.7703C35.9273 25.4333 35.9273 27.5787 35.9273 27.5787C35.9273 27.5787 32.2473 27.1181 31.6339 24.0539C31.0206 20.9897 25.8085 15.0115 20.5964 9.80177C15.3818 4.58965 12.9285 3.21026 12.9285 3.21026C12.9285 3.21026 10.3224 7.96178 15.0739 13.6321C19.8279 19.3024 20.1358 21.9084 20.2885 24.3594C20.4412 26.8127 23.2024 28.6503 24.2739 29.7242C25.3479 30.7957 24.5818 31.8697 21.9757 33.7072C19.3673 35.5472 17.6824 38.306 17.6824 39.6854C17.6824 39.7169 17.6824 39.746 17.6824 39.7751C18.3612 40.083 19.1224 40.2987 19.8279 40.2987C21.5151 40.2987 23.3551 36.466 25.9612 33.8624C28.5673 31.2563 31.4812 33.0963 29.9491 34.9339C28.4145 36.7739 26.2691 40.146 25.9612 42.2891C25.6557 44.4369 25.1951 51.4842 26.5745 52.7109C27.9539 53.9375 31.1758 55.6224 28.5673 55.6224C25.9612 55.6224 36.8485 62.0588 36.6933 62.2139C36.5406 62.3666 40.6812 61.2927 41.7551 60.3739C42.5309 59.7072 44.5139 57.7581 45.8982 56.3254Z" fill="#FF0000"/>
<path fill-rule="evenodd" clip-rule="evenodd" d="M45.8981 56.3254C47.2872 53.1642 50.0872 46.3109 47.7357 40.2987C43.5951 29.7242 44.9745 34.0151 48.8072 27.2709C52.6423 20.5291 54.0217 16.5436 54.0217 14.0927C54.0217 11.6394 54.0217 9.9545 54.0217 9.9545C54.0217 9.9545 53.9854 9.95451 53.9199 9.96178C49.1951 12.5921 44.0702 16.2866 41.7502 19.7678C38.6254 24.449 35.1126 31.4745 39.406 31.4745C43.7017 31.4745 42.9211 33.8139 40.9696 34.5945C39.0157 35.3751 40.9696 38.8878 42.9211 42.0103C44.8726 45.1303 45.6533 46.6915 40.1866 53.3242C37.7745 56.2527 34.2957 57.7363 31.1611 58.4806C33.6533 60.2212 36.7781 62.1315 36.6933 62.2139C36.5405 62.3666 40.6811 61.2927 41.7551 60.3739C42.5308 59.7072 44.5139 57.7581 45.8981 56.3254Z" fill="#2FE900"/>
<path fill-rule="evenodd" clip-rule="evenodd" d="M32.0945 81.2171C32.2473 81.0619 37.1539 85.2001 32.0945 88.1116C27.0351 91.0231 28.2618 94.2425 32.5551 93.6292C36.8485 93.0159 35.7745 91.7892 35.7745 91.7892C35.7745 91.7892 34.8557 93.6292 37.1539 93.6292C39.4545 93.6292 39.4545 90.7177 39.4545 88.8777C39.4545 87.0401 40.6812 85.0474 40.0679 84.2813C39.4545 83.5153 37.6145 83.9734 35.7745 83.0546C33.9345 82.1359 31.9418 81.3698 32.0945 81.2171Z" fill="white"/>
<path fill-rule="evenodd" clip-rule="evenodd" d="M35.4109 37.1659C35.4109 37.401 29.0472 37.8713 29.0472 43.5247C29.0472 49.178 28.3394 50.5938 28.3394 50.5938C28.3394 50.5938 30.2254 50.3562 34.9406 49.8859C39.6533 49.4156 40.1236 43.2895 39.6533 40.2277C39.183 37.1659 35.4109 36.9307 35.4109 37.1659Z" fill="#54381E"/>
<path fill-rule="evenodd" clip-rule="evenodd" d="M37.297 39.9919C37.297 39.9919 37.5321 46.8234 33.76 47.2937C29.9903 47.764 29.7551 41.8755 32.1115 39.9919C34.4679 38.1082 37.297 39.9919 37.297 39.9919Z" fill="black"/>
<path fill-rule="evenodd" clip-rule="evenodd" d="M33.2897 41.8757C33.2897 41.8757 34.4678 43.7617 32.1115 43.9969C29.7551 44.232 32.1115 41.1702 32.1115 41.1702L33.2897 41.8757Z" fill="white"/>
<path fill-rule="evenodd" clip-rule="evenodd" d="M14.1551 59.4539C14.1551 59.4539 17.3745 58.5352 16.4557 60.5255C15.5345 62.5182 15.6896 63.437 14.6157 61.7521C13.5417 60.0673 14.1551 59.4539 14.1551 59.4539Z" fill="black"/>
<path fill-rule="evenodd" clip-rule="evenodd" d="M38.9939 29.8754C38.9939 29.8754 39.7624 23.1311 44.6666 18.5347C49.5757 13.936 52.6424 12.559 52.6424 12.559C52.6424 12.559 52.6424 20.5275 47.2751 26.1978C41.9078 31.8681 38.9939 29.8754 38.9939 29.8754Z" fill="#FF0000"/>
<path fill-rule="evenodd" clip-rule="evenodd" d="M12.218 6.72237C12.2495 8.57207 12.8726 11.0036 15.0738 13.6315C19.8277 19.3018 20.1356 21.9078 20.2883 24.3587C20.441 26.8121 23.2023 28.6496 24.2738 29.7236C24.4095 29.8593 24.5162 29.9927 24.5938 30.1309C25.098 30.126 25.5417 30.0896 25.961 30.029C27.035 29.8763 26.8823 28.8024 26.4217 28.3442C25.961 27.8836 20.9017 19.3018 19.2144 15.0109C17.995 11.903 14.3635 8.63752 12.218 6.72237Z" fill="#2FE900"/>
<path fill-rule="evenodd" clip-rule="evenodd" d="M43.9005 26.6602C43.9005 26.6602 48.0411 26.1996 49.5757 21.2953C51.1078 16.3911 52.029 14.0929 49.4205 15.9329C46.8145 17.7705 44.8217 19.7632 44.2084 21.9086C43.5951 24.0541 43.9005 26.6602 43.9005 26.6602Z" fill="black"/>
<path fill-rule="evenodd" clip-rule="evenodd" d="M70.8726 73.8843C71.1247 73.6686 71.3381 73.5037 71.5005 73.3995C72.7272 72.6334 77.9417 74.7789 74.2617 80.6043C72.0944 84.0322 69.7163 86.6092 67.9369 88.6504C68.1866 88.5049 68.4581 88.3255 68.7417 88.1122C71.195 86.2746 78.2472 85.3534 80.8532 88.5728C81.7138 89.6346 82.4726 89.8286 83.1587 89.4916C83.3163 88.791 83.4666 88.0273 83.6144 87.1934C84.6326 81.4286 84.6496 77.831 85.6944 74.9873C84.9769 71.8843 84.4363 68.8855 85.6072 67.4237C87.9466 64.5025 88.4726 60.8831 89.3138 57.8964C88.8435 52.917 91.1853 47.3146 87.2944 41.9837C83.1538 36.3134 83.7672 33.8625 81.6217 30.3376C79.4738 26.8128 76.5599 23.4407 72.4217 20.9898C68.2811 18.5364 58.9284 18.5364 57.5466 18.5364C56.7296 18.5364 55.7453 19.2395 55.0835 19.8092C54.6544 22.4104 55.1781 26.277 59.8472 30.3376C68.1284 37.5401 75.4859 53.7849 72.7272 58.6892C69.9684 63.5934 67.515 64.5122 73.1878 64.2067C78.8605 63.8989 72.8799 69.8746 69.1999 71.5619C66.7975 72.6625 68.9066 73.4358 70.8726 73.8843Z" fill="#FF0000"/>
<path fill-rule="evenodd" clip-rule="evenodd" d="M59.3211 65.8467C59.7114 65.8467 63.8011 74.9982 59.3211 78.5037C54.8387 82.0067 49.9684 77.3352 49.5805 72.6612C49.1902 67.9873 53.4763 64.094 54.0605 60.5885C54.6447 57.0831 59.3211 58.0576 59.7114 59.8103C60.0993 61.5606 58.9308 65.8467 59.3211 65.8467Z" fill="#FF0000"/>
<path fill-rule="evenodd" clip-rule="evenodd" d="M47.5805 64.9724C47.4278 65.2778 48.9599 71.7142 46.0484 69.7215C43.1345 67.7312 43.4424 64.5118 44.2084 63.593C44.9745 62.6718 47.7357 64.6645 47.5805 64.9724Z" fill="#FF0000"/>
<path fill-rule="evenodd" clip-rule="evenodd" d="M76.8363 86.5704C78.4654 86.8176 79.9345 87.4382 80.8533 88.5728C81.7139 89.6346 82.4726 89.8286 83.1587 89.4916C83.3163 88.791 83.4666 88.0273 83.6145 87.1934C84.6326 81.4286 84.6496 77.831 85.6945 74.9873C84.9769 71.8843 84.4363 68.8855 85.6072 67.4237C87.9466 64.5025 88.4726 60.8831 89.3139 57.8964C88.8436 52.917 91.1854 47.3146 87.2945 41.9837C83.1539 36.3134 83.7672 33.8625 81.6217 30.3376C79.4739 26.8128 76.5599 23.4407 72.4217 20.9898C68.2811 18.5364 58.9284 18.5364 57.5466 18.5364C57.183 18.5364 56.7878 18.6746 56.4023 18.8782C56.5817 18.9195 56.7733 18.9558 56.9745 18.9873C69.4666 20.9389 65.1733 27.9619 78.446 36.9364C91.7187 45.911 81.1781 65.8116 81.1781 65.8116C81.1781 65.8116 75.7139 74.3958 78.0557 76.3449C80.3975 78.2964 83.9126 80.6382 79.6169 82.9801C77.4811 84.1437 76.892 85.5013 76.8363 86.5704Z" fill="#2FE900"/>
</g>
<defs>
<clipPath id="clip0_911_269">
<rect width="100" height="100" fill="white"/>
</clipPath>
</defs>
</svg>
