<svg width="100" height="100" viewBox="0 0 100 100" fill="none" xmlns="http://www.w3.org/2000/svg">
<path d="M87.1924 13.2012H12.8076V87.1755H87.1924V13.2012Z" fill="black" stroke="#FF0000" stroke-width="3.5"/>
<path d="M50.1418 62.6794H46.9946V61.2062C46.9946 59.1974 47.2848 57.5904 47.8651 56.3851C48.4901 55.1352 49.249 54.0638 50.1418 53.171C51.0346 52.2336 51.9274 51.2962 52.8202 50.3587C53.713 49.3766 54.4495 48.1937 55.0298 46.8098C55.6548 45.3814 55.9673 43.5065 55.9673 41.1852C55.9673 37.7479 55.3423 35.1811 54.0924 33.4848C52.8425 31.7885 51.0569 30.9403 48.7356 30.9403C45.7894 30.9403 43.7359 32.0563 42.5753 34.2883C41.4146 36.4757 41.0575 39.6228 41.5039 43.7297L36.0132 42.6583C35.6114 40.2478 35.79 37.9934 36.5489 35.8954C37.3524 33.7973 38.7809 32.101 40.8343 30.8064C42.8878 29.4672 45.5438 28.7976 48.8026 28.7976C51.972 28.7976 54.5388 29.3556 56.503 30.4716C58.4671 31.5876 59.8956 33.0384 60.7884 34.824C61.6812 36.565 62.1276 38.4398 62.1276 40.4486C62.1276 42.5021 61.7928 44.2207 61.1232 45.6046C60.4982 46.9438 59.6947 48.1044 58.7126 49.0865C57.7306 50.0239 56.6815 50.8721 55.5655 51.631C54.4942 52.3898 53.4898 53.1934 52.5523 54.0415C51.6595 54.845 50.9453 55.8048 50.4096 56.9208C49.9186 58.0368 49.7623 59.443 49.9409 61.1393L50.1418 62.6794ZM48.4678 75.6696C47.3518 75.6696 46.4366 75.3125 45.7224 74.5982C45.0528 73.884 44.718 72.9689 44.718 71.8529C44.718 70.7369 45.0528 69.8441 45.7224 69.1745C46.4366 68.4602 47.3518 68.1031 48.4678 68.1031C49.5838 68.1031 50.4989 68.4602 51.2131 69.1745C51.9274 69.8441 52.2845 70.7369 52.2845 71.8529C52.2845 72.9689 51.9274 73.884 51.2131 74.5982C50.4989 75.3125 49.5838 75.6696 48.4678 75.6696Z" fill="#FF0000"/>
</svg>
