<?xml version="1.0" encoding="UTF-8"?>
<svg version="1.1" xmlns="http://www.w3.org/2000/svg" width="200" height="200">
<path d="M0 0 C66 0 132 0 200 0 C200 66 200 132 200 200 C134 200 68 200 0 200 C0 134 0 68 0 0 Z " fill="#FEFEFE" transform="translate(0,0)"/>
<path d="M0 0 C1.06886948 -0.00642769 1.06886948 -0.00642769 2.15933228 -0.01298523 C3.66382792 -0.01871596 5.16835127 -0.01923805 6.67285156 -0.01489258 C8.96207562 -0.01173871 11.24999864 -0.03518397 13.5390625 -0.06054688 C15.00520671 -0.06282079 16.47135438 -0.06352294 17.9375 -0.0625 C18.95497818 -0.07631462 18.95497818 -0.07631462 19.99301147 -0.09040833 C25.88320749 -0.03373041 29.65740866 1.4848067 33.94555664 5.49023438 C36.07540594 9.10498082 36.1609292 12.19124797 36.09765625 16.26953125 C36.09911148 17.02745972 36.10056671 17.78538818 36.10206604 18.56628418 C36.10041157 20.16320656 36.08890087 21.76014563 36.06811523 23.35693359 C36.03915101 25.79333621 36.04751614 28.22756151 36.06054688 30.6640625 C36.05430886 32.2200626 36.04591741 33.77605586 36.03515625 35.33203125 C36.03809189 36.05612183 36.04102753 36.7802124 36.04405212 37.52624512 C35.96183715 41.96108865 35.29873781 44.76207435 32.6015625 48.30078125 C26.0312522 54.0698342 20.49445616 53.55106775 12.10839844 53.59594727 C9.87371781 53.61311108 7.64053629 53.65698968 5.40625 53.70117188 C3.97657335 53.71130368 2.54688414 53.71981826 1.1171875 53.7265625 C-0.17928711 53.74114502 -1.47576172 53.75572754 -2.81152344 53.77075195 C-8.34539517 53.04568368 -11.17574892 50.73692679 -14.73803711 46.55273438 C-16.70325074 42.70379369 -16.99413434 39.49665349 -16.96484375 35.26953125 C-16.97104233 34.5153894 -16.97724091 33.76124756 -16.98362732 32.98425293 C-16.99069796 31.39755538 -16.98759973 29.8107832 -16.97485352 28.22412109 C-16.96097247 25.80687121 -16.99510842 23.39348691 -17.03320312 20.9765625 C-17.03415436 19.42838448 -17.03229523 17.88020165 -17.02734375 16.33203125 C-17.04060196 15.61623901 -17.05386017 14.90044678 -17.06752014 14.16296387 C-16.962274 8.44508324 -15.35902384 6.13330756 -11.3984375 2.30078125 C-7.9265826 -0.24423775 -4.15498848 -0.00554963 0 0 Z " fill="#020202" transform="translate(56.3984375,109.69921875)"/>
<path d="M0 0 C7.0917094 4.23266439 12.11030253 10.16293883 14.734375 18.03515625 C15.51949733 27.2883837 15.48982551 35.33321518 9.734375 43.03515625 C4.16681577 49.42982517 -2.58227758 53.07541329 -10.92578125 54.484375 C-19.39984435 55.03305534 -26.76303737 51.82490936 -33.21484375 46.39453125 C-34.79533578 44.69062548 -36.03784745 43.00691821 -37.265625 41.03515625 C-37.67554688 40.37902344 -38.08546875 39.72289062 -38.5078125 39.046875 C-41.90552714 32.63808221 -42.33598682 26.14600961 -41.265625 19.03515625 C-38.57161065 10.56680169 -34.07708621 4.38353632 -26.265625 0.03515625 C-18.31340242 -3.20020006 -7.93099727 -3.6435137 0 0 Z " fill="#020202" transform="translate(79.265625,39.96484375)"/>
<path d="M0 0 C5.97362778 1.46117514 11.21652896 5.10171726 16.44873047 8.23925781 C17.68416879 8.96083552 18.92049212 9.68090019 20.15771484 10.39941406 C38.51421052 21.11872789 38.51421052 21.11872789 41.51123047 25.61425781 C41.94873047 28.48925781 41.94873047 28.48925781 41.51123047 31.61425781 C38.27337001 35.31592386 34.9112552 37.79239182 30.65185547 40.20800781 C28.97736328 41.16513672 28.97736328 41.16513672 27.26904297 42.14160156 C26.09985911 42.79930828 24.93058779 43.45685954 23.76123047 44.11425781 C22.61912109 44.76523438 21.47701172 45.41621094 20.30029297 46.08691406 C17.04320362 47.94008559 13.77759765 49.77750752 10.51123047 51.61425781 C9.6137207 52.12907715 8.71621094 52.64389648 7.79150391 53.17431641 C6.99776367 53.62629395 6.20402344 54.07827148 5.38623047 54.54394531 C4.36916016 55.12764893 4.36916016 55.12764893 3.33154297 55.72314453 C0.48627319 57.11601399 -1.41018761 57.31393552 -4.48876953 56.61425781 C-7.37284321 54.56039509 -9.21636596 52.93116495 -9.9524231 49.37277222 C-10.13484695 46.56520032 -10.1553629 43.79865954 -10.11767578 40.98535156 C-10.12008774 39.95869888 -10.12249969 38.9320462 -10.12498474 37.87428284 C-10.12400695 35.70822275 -10.11062964 33.54213747 -10.08569336 31.3762207 C-10.05134993 28.0595222 -10.06504757 24.74548309 -10.08447266 21.42871094 C-10.07757512 19.3225798 -10.06790358 17.21645554 -10.05517578 15.11035156 C-10.06013565 14.11861435 -10.06509552 13.12687714 -10.07020569 12.10508728 C-9.95328198 5.27901043 -9.95328198 5.27901043 -7.66455078 2.00366211 C-5.0984993 0.36504014 -3.0481784 -0.16224972 0 0 Z " fill="#010101" transform="translate(120.48876953125,37.3857421875)"/>
<path d="M0 0 C1.423125 0.37125 1.423125 0.37125 2.875 0.75 C4.0232685 3.046537 3.99061175 4.33313167 3.97265625 6.8828125 C3.96943359 7.68847656 3.96621094 8.49414062 3.96289062 9.32421875 C3.95451172 10.16597656 3.94613281 11.00773437 3.9375 11.875 C3.93298828 12.72449219 3.92847656 13.57398437 3.92382812 14.44921875 C3.91202874 16.54950909 3.89409306 18.6497633 3.875 20.75 C5.13957031 20.71519531 6.40414062 20.68039063 7.70703125 20.64453125 C9.36717423 20.61639323 11.02733156 20.58909309 12.6875 20.5625 C13.93756836 20.52479492 13.93756836 20.52479492 15.21289062 20.48632812 C16.01533203 20.47666016 16.81777344 20.46699219 17.64453125 20.45703125 C18.75211792 20.43346558 18.75211792 20.43346558 19.88208008 20.40942383 C22.47229066 20.85207283 23.35530233 21.62885008 24.875 23.75 C24.6875 27.375 24.6875 27.375 23.875 30.75 C21.578463 31.8982685 20.29186833 31.86561175 17.7421875 31.84765625 C16.93652344 31.84443359 16.13085938 31.84121094 15.30078125 31.83789062 C14.03814453 31.82532227 14.03814453 31.82532227 12.75 31.8125 C11.47576172 31.80573242 11.47576172 31.80573242 10.17578125 31.79882812 C8.07549091 31.78702874 5.9752367 31.76909306 3.875 31.75 C3.92720703 33.64685547 3.92720703 33.64685547 3.98046875 35.58203125 C4.00860677 37.24217423 4.03590691 38.90233156 4.0625 40.5625 C4.08763672 41.39587891 4.11277344 42.22925781 4.13867188 43.08789062 C4.14833984 43.89033203 4.15800781 44.69277344 4.16796875 45.51953125 C4.1836792 46.25792236 4.19938965 46.99631348 4.21557617 47.75708008 C3.77524628 50.33372014 2.96864883 51.22205392 0.875 52.75 C-2.25 52.5625 -2.25 52.5625 -5.125 51.75 C-6.2732685 49.453463 -6.24061175 48.16686833 -6.22265625 45.6171875 C-6.21943359 44.81152344 -6.21621094 44.00585938 -6.21289062 43.17578125 C-6.20451172 42.33402344 -6.19613281 41.49226563 -6.1875 40.625 C-6.18298828 39.77550781 -6.17847656 38.92601562 -6.17382812 38.05078125 C-6.16202874 35.95049091 -6.14409306 33.8502367 -6.125 31.75 C-8.02185547 31.78480469 -8.02185547 31.78480469 -9.95703125 31.8203125 C-11.6171816 31.83907126 -13.27733833 31.85727135 -14.9375 31.875 C-15.77087891 31.89175781 -16.60425781 31.90851563 -17.46289062 31.92578125 C-18.66655273 31.93544922 -18.66655273 31.93544922 -19.89453125 31.9453125 C-21.00211792 31.96102295 -21.00211792 31.96102295 -22.13208008 31.97705078 C-24.125 31.75 -24.125 31.75 -27.125 29.75 C-27.5 26.25 -27.5 26.25 -27.125 22.75 C-24.02414429 20.68276286 -23.39568319 20.50502577 -19.89453125 20.5546875 C-19.09208984 20.56113281 -18.28964844 20.56757813 -17.46289062 20.57421875 C-16.62951172 20.59097656 -15.79613281 20.60773438 -14.9375 20.625 C-13.6700293 20.63853516 -13.6700293 20.63853516 -12.37695312 20.65234375 C-10.29284757 20.67589297 -8.20888783 20.71176353 -6.125 20.75 C-6.14071045 20.18490723 -6.1564209 19.61981445 -6.17260742 19.03759766 C-6.23487045 16.48349977 -6.27396136 13.92956129 -6.3125 11.375 C-6.33763672 10.48554687 -6.36277344 9.59609375 -6.38867188 8.6796875 C-6.39833984 7.82890625 -6.40800781 6.978125 -6.41796875 6.1015625 C-6.4336792 5.31604004 -6.44938965 4.53051758 -6.46557617 3.72119141 C-6.35318604 3.07069824 -6.2407959 2.42020508 -6.125 1.75 C-3.125 -0.25 -3.125 -0.25 0 0 Z " fill="#050505" transform="translate(135.125,108.25)"/>
</svg>
