<?xml version="1.0" encoding="UTF-8"?>
<svg version="1.1" xmlns="http://www.w3.org/2000/svg" width="368" height="97">
<path d="M0 0 C121.44 0 242.88 0 368 0 C368 32.01 368 64.02 368 97 C246.56 97 125.12 97 0 97 C0 64.99 0 32.98 0 0 Z " fill="#4D86CC" transform="translate(0,0)"/>
<path d="M0 0 C3.60032301 2.16770566 7.09249265 4.45213468 10.55859375 6.828125 C20.42741056 13.50667629 30.47132667 19.89504901 40.54663086 26.25634766 C42.25161677 27.34270681 43.9389619 28.45670377 45.62109375 29.578125 C45.62109375 30.238125 45.62109375 30.898125 45.62109375 31.578125 C42.22222919 34.23332885 38.50906888 36.45323706 34.87109375 38.765625 C33.34742187 39.76625977 33.34742187 39.76625977 31.79296875 40.78710938 C30.81328125 41.41294922 29.83359375 42.03878906 28.82421875 42.68359375 C27.92348633 43.26262451 27.02275391 43.84165527 26.09472656 44.43823242 C23.62109375 45.578125 23.62109375 45.578125 21.29589844 45.2590332 C20.74321289 45.0343335 20.19052734 44.80963379 19.62109375 44.578125 C21.10609375 45.568125 21.10609375 45.568125 22.62109375 46.578125 C22.96166992 49.10009766 22.96166992 49.10009766 22.9140625 52.2421875 C22.90439453 53.36367187 22.89472656 54.48515625 22.88476562 55.640625 C22.85962891 56.81625 22.83449219 57.991875 22.80859375 59.203125 C22.78829102 60.97816406 22.78829102 60.97816406 22.76757812 62.7890625 C22.73213291 65.71920039 22.68272144 68.64843959 22.62109375 71.578125 C21.46609375 70.99417969 20.31109375 70.41023438 19.12109375 69.80859375 C16.30249657 68.38376056 13.47128902 67.09656677 10.55859375 65.87890625 C6.18218667 63.79747731 2.28783904 61.74933728 -0.37890625 57.578125 C-2.26895635 49.43437336 -1.29637814 40.81184712 -0.37890625 32.578125 C0.28109375 32.578125 0.94109375 32.578125 1.62109375 32.578125 C1.29109375 31.588125 0.96109375 30.598125 0.62109375 29.578125 C1.94109375 28.588125 3.26109375 27.598125 4.62109375 26.578125 C3.85796875 27.073125 3.09484375 27.568125 2.30859375 28.078125 C-0.37890625 29.578125 -0.37890625 29.578125 -3.37890625 29.578125 C-3.37890625 30.238125 -3.37890625 30.898125 -3.37890625 31.578125 C-5.27490234 33.09033203 -5.27490234 33.09033203 -7.90234375 34.8359375 C-8.84078125 35.46113281 -9.77921875 36.08632813 -10.74609375 36.73046875 C-12.23496094 37.70693359 -12.23496094 37.70693359 -13.75390625 38.703125 C-14.73875 39.36183594 -15.72359375 40.02054688 -16.73828125 40.69921875 C-24.11219753 45.578125 -24.11219753 45.578125 -26.37890625 45.578125 C-26.37890625 53.828125 -26.37890625 62.078125 -26.37890625 70.578125 C-29.80789317 69.20653023 -32.12769884 68.24404525 -35.04296875 66.265625 C-35.69007812 65.82992187 -36.3371875 65.39421875 -37.00390625 64.9453125 C-37.66390625 64.49414062 -38.32390625 64.04296875 -39.00390625 63.578125 C-39.67164063 63.12695312 -40.339375 62.67578125 -41.02734375 62.2109375 C-42.26657487 61.37321726 -43.50452575 60.53359754 -44.74072266 59.69140625 C-46.28080474 58.64479309 -47.82958215 57.61100773 -49.37890625 56.578125 C-49.71948242 54.05615234 -49.71948242 54.05615234 -49.671875 50.9140625 C-49.66220703 49.79257812 -49.65253906 48.67109375 -49.64257812 47.515625 C-49.61744141 46.34 -49.59230469 45.164375 -49.56640625 43.953125 C-49.55287109 42.76976562 -49.53933594 41.58640625 -49.52539062 40.3671875 C-49.48994541 37.43704961 -49.44053394 34.50781041 -49.37890625 31.578125 C-48.71890625 31.578125 -48.05890625 31.578125 -47.37890625 31.578125 C-47.12560547 30.97162109 -46.87230469 30.36511719 -46.61132812 29.74023438 C-45.20678219 27.27615775 -44.06840731 26.43950461 -41.66015625 24.984375 C-40.90114014 24.51708984 -40.14212402 24.04980469 -39.36010742 23.56835938 C-38.54131104 23.07658203 -37.72251465 22.58480469 -36.87890625 22.078125 C-35.15499481 21.01766277 -33.43237101 19.95510491 -31.7109375 18.890625 C-30.82873535 18.34664062 -29.9465332 17.80265625 -29.03759766 17.2421875 C-24.824112 14.60498656 -20.69296899 11.84871855 -16.56640625 9.078125 C-15.46619141 8.34045898 -15.46619141 8.34045898 -14.34375 7.58789062 C-13.64765625 7.12060547 -12.9515625 6.65332031 -12.234375 6.171875 C-11.2451001 5.51638672 -11.2451001 5.51638672 -10.23583984 4.84765625 C-9.03594526 4.02732337 -7.85891814 3.17201291 -6.71337891 2.27734375 C-3.01973254 -0.53551907 -3.01973254 -0.53551907 0 0 Z " fill="#F5F7F9" transform="translate(68.37890625,11.421875)"/>
<path d="M0 0 C3.65746028 1.79357644 7.11002992 3.84298579 10.5625 6 C11.23071777 6.41717285 11.89893555 6.8343457 12.58740234 7.26416016 C23.23163363 13.97266996 33.64681713 21.04287505 44.09423828 28.05224609 C47.01343044 30.06585163 47.01343044 30.06585163 50.29443359 31.84033203 C53 34 53 34 53.96679688 37.01757812 C54.24152713 40.84889387 54.46961558 44.65950064 54.5 48.5 C54.51604279 49.52444214 54.51604279 49.52444214 54.53240967 50.56958008 C54.54379817 56.15423569 54.51950996 61.68663475 51.36816406 66.484375 C47.32172845 70.34363644 42.622276 72.69394321 37.51269531 74.86328125 C33.12132429 76.84989449 29.08301713 79.45121402 25 82 C24.42032471 81.61666504 23.84064941 81.23333008 23.2434082 80.83837891 C20.60281173 79.09592834 17.95772547 77.36041436 15.3125 75.625 C14.40048828 75.02171875 13.48847656 74.4184375 12.54882812 73.796875 C11.66259766 73.21679688 10.77636719 72.63671875 9.86328125 72.0390625 C9.05157471 71.50490723 8.23986816 70.97075195 7.40356445 70.42041016 C3.86483711 68.3258632 3.86483711 68.3258632 0 67 C-2.51548458 68.02254495 -2.51548458 68.02254495 -4.87109375 69.90234375 C-5.77537109 70.54494141 -6.67964844 71.18753906 -7.61132812 71.84960938 C-8.54396484 72.53861328 -9.47660156 73.22761719 -10.4375 73.9375 C-12.27878678 75.29578442 -14.13134763 76.63894953 -15.99609375 77.96484375 C-16.81263428 78.5693335 -17.6291748 79.17382324 -18.47045898 79.79663086 C-21.81320919 81.38686498 -23.466475 80.98252403 -27 80 C-35.93075831 76.57480397 -44.97135394 71.53580757 -51 64 C-54.79296212 54.50833711 -54.4146704 43.56722967 -51 34 C-47.35324856 28.4462644 -41.69860404 26.03193178 -35.81201172 23.37402344 C-30.57044348 20.81285431 -25.83532451 17.43350657 -21 14.1875 C-19.12628134 12.97068091 -17.25131914 11.7557741 -15.375 10.54296875 C-10.16838094 7.1429404 -5.07006002 3.59977011 0 0 Z M-4.015625 6.5703125 C-4.84465332 7.13057129 -5.67368164 7.69083008 -6.52783203 8.26806641 C-7.42614746 8.88085449 -8.32446289 9.49364258 -9.25 10.125 C-18.04089082 16.07308834 -26.93618567 21.81869909 -35.97753906 27.37939453 C-37.29189941 28.20093018 -37.29189941 28.20093018 -38.6328125 29.0390625 C-39.40512207 29.51553223 -40.17743164 29.99200195 -40.97314453 30.48291016 C-43.13309606 32.09962165 -44.44626698 33.81324286 -46 36 C-46.33 36 -46.66 36 -47 36 C-48.3211451 44.21723214 -49.54960282 52.93951719 -47 61 C-41.78871169 67.57086389 -33.66872042 71.83815164 -26 75 C-25.34 75 -24.68 75 -24 75 C-24 66.75 -24 58.5 -24 50 C-22.35 49.34 -20.7 48.68 -19 48 C-17.51161546 47.12424693 -16.04763637 46.2058432 -14.609375 45.25 C-13.81789062 44.7240625 -13.02640625 44.198125 -12.2109375 43.65625 C-11.39882813 43.1096875 -10.58671875 42.563125 -9.75 42 C-8.92242187 41.4534375 -8.09484375 40.906875 -7.2421875 40.34375 C-6.06269531 39.55484375 -6.06269531 39.55484375 -4.859375 38.75 C-4.14233398 38.27046875 -3.42529297 37.7909375 -2.68652344 37.296875 C-0.86314264 36.08997244 -0.86314264 36.08997244 0 34 C4.44444444 32 4.44444444 32 6 32 C5.01 32.66 4.02 33.32 3 34 C3.495 35.485 3.495 35.485 4 37 C3.34 37 2.68 37 2 37 C0.75233504 45.21059519 -0.45710655 53.93765927 2 62 C7.50327886 69.02471581 16.671579 73.22385967 25 76 C25.11591764 71.89606988 25.18715601 67.79255894 25.25 63.6875 C25.28351563 62.52025391 25.31703125 61.35300781 25.3515625 60.15039062 C25.36445312 59.03212891 25.37734375 57.91386719 25.390625 56.76171875 C25.41157227 55.73006592 25.43251953 54.69841309 25.45410156 53.63549805 C25.25040775 50.85002162 25.25040775 50.85002162 22.97558594 49.13989258 C22.32364258 48.76372803 21.67169922 48.38756348 21 48 C21.71567139 48.38768555 22.43134277 48.77537109 23.16870117 49.17480469 C25.98847749 50.31105147 25.98847749 50.31105147 28.5871582 48.97363281 C29.48265381 48.38936523 30.37814941 47.80509766 31.30078125 47.203125 C32.27724609 46.5740625 33.25371094 45.945 34.25976562 45.296875 C35.77086914 44.28367187 35.77086914 44.28367187 37.3125 43.25 C38.33923828 42.59 39.36597656 41.93 40.42382812 41.25 C44.29600115 38.74174442 44.29600115 38.74174442 48 36 C48 35.34 48 34.68 48 34 C46.19379676 32.57884063 46.19379676 32.57884063 43.8203125 31.1640625 C42.91925781 30.59993652 42.01820312 30.03581055 41.08984375 29.45458984 C40.11144531 28.8508252 39.13304688 28.24706055 38.125 27.625 C36.10575222 26.36100078 34.08753843 25.0953484 32.0703125 23.828125 C31.05227539 23.18939453 30.03423828 22.55066406 28.98535156 21.89257812 C24.61191284 19.1200154 20.30009136 16.25961809 16 13.375 C15.27828613 12.89111816 14.55657227 12.40723633 13.81298828 11.90869141 C13.13220215 11.45155762 12.45141602 10.99442383 11.75 10.5234375 C11.11320312 10.09643555 10.47640625 9.66943359 9.8203125 9.22949219 C8.62225944 8.42029218 7.42935778 7.60340365 6.2421875 6.77832031 C1.66143975 3.62214085 0.51956716 3.4770429 -4.015625 6.5703125 Z " fill="#234D89" transform="translate(66,7)"/>
<path d="M0 0 C14 0 14 0 20 3 C21 4 21 4 21.25 7.375 C21 11 21 11 19.5 12.9375 C19.005 13.288125 18.51 13.63875 18 14 C19.2375 15.051875 19.2375 15.051875 20.5 16.125 C23 19 23 19 23.625 22 C22.80352072 25.94310054 21.01509365 27.42613957 18 30 C17.67 30.33 17.34 30.66 17 31 C14.13530675 31.07330331 11.30106326 31.09217831 8.4375 31.0625 C4.2609375 31.0315625 4.2609375 31.0315625 0 31 C0 20.77 0 10.54 0 0 Z " fill="#F2F6FB" transform="translate(328,47)"/>
<path d="M0 0 C1.7325 0.87591797 1.7325 0.87591797 3.5 1.76953125 C6.31859718 3.19436444 9.14980473 4.48155823 12.0625 5.69921875 C16.43890708 7.78064769 20.33325471 9.82878772 23 14 C24.8900501 22.14375164 23.91747189 30.76627788 23 39 C21.845 38.41605469 20.69 37.83210938 19.5 37.23046875 C16.68140282 35.80563556 13.85019527 34.51844177 10.9375 33.30078125 C6.56109292 31.21935231 2.66674529 29.17121228 0 25 C-1.8900501 16.85624836 -0.91747189 8.23372212 0 0 Z " fill="#FDFDFD" transform="translate(68,44)"/>
<path d="M0 0 C0.56195068 0.32323242 1.12390137 0.64646484 1.70288086 0.97949219 C5.3884112 3.06825615 8.98261875 5.05732752 12.94140625 6.578125 C20.59479487 10.11172838 20.59479487 10.11172838 23 14 C24.77974944 22.15730107 23.85041122 30.76222541 23 39 C19.86890529 37.82053796 17.10397215 36.56600044 14.3359375 34.6875 C13.68882813 34.25179687 13.04171875 33.81609375 12.375 33.3671875 C11.715 32.91601562 11.055 32.46484375 10.375 32 C9.70726562 31.54882812 9.03953125 31.09765625 8.3515625 30.6328125 C7.11233138 29.79509226 5.8743805 28.95547254 4.63818359 28.11328125 C3.09810151 27.06666809 1.5493241 26.03288273 0 25 C-0.34057617 22.47802734 -0.34057617 22.47802734 -0.29296875 19.3359375 C-0.28330078 18.21445312 -0.27363281 17.09296875 -0.26367188 15.9375 C-0.23853516 14.761875 -0.21339844 13.58625 -0.1875 12.375 C-0.17396484 11.19164062 -0.16042969 10.00828125 -0.14648438 8.7890625 C-0.11103916 5.85892461 -0.06162769 2.92968541 0 0 Z " fill="#FCFDFD" transform="translate(19,43)"/>
<path d="M0 0 C1.98 0 3.96 0 6 0 C6 4.29 6 8.58 6 13 C9.96 13 13.92 13 18 13 C18 8.71 18 4.42 18 0 C19.98 0 21.96 0 24 0 C24 10.23 24 20.46 24 31 C22.02 31 20.04 31 18 31 C18 26.71 18 22.42 18 18 C14.04 18 10.08 18 6 18 C6 22.29 6 26.58 6 31 C4.02 31 2.04 31 0 31 C0 20.77 0 10.54 0 0 Z " fill="#EFF4FA" transform="translate(256,47)"/>
<path d="M0 0 C1.4540625 0.0309375 1.4540625 0.0309375 2.9375 0.0625 C5.87076043 6.98898596 8.19208268 13.93884117 10.1875 21.1875 C10.455625 22.14398438 10.72375 23.10046875 11 24.0859375 C11.65077412 26.41013077 12.29652381 28.73558943 12.9375 31.0625 C10.9575 31.0625 8.9775 31.0625 6.9375 31.0625 C6.2775 28.7525 5.6175 26.4425 4.9375 24.0625 C1.3075 23.7325 -2.3225 23.4025 -6.0625 23.0625 C-6.2790625 24.7640625 -6.2790625 24.7640625 -6.5 26.5 C-7.0625 30.0625 -7.0625 30.0625 -8.0625 31.0625 C-9.72867115 31.10313832 -11.39638095 31.105221 -13.0625 31.0625 C-11.66484839 24.20768608 -9.74585958 17.68431279 -7.5 11.0625 C-7.02530273 9.63357422 -7.02530273 9.63357422 -6.54101562 8.17578125 C-3.82056716 0.07797076 -3.82056716 0.07797076 0 0 Z " fill="#F2F6FB" transform="translate(206.0625,46.9375)"/>
<path d="M0 0 C1.98 0 3.96 0 6 0 C6.01981934 0.68102783 6.03963867 1.36205566 6.06005859 2.0637207 C6.15526983 5.14703917 6.26496466 8.22967649 6.375 11.3125 C6.4059375 12.38435547 6.436875 13.45621094 6.46875 14.56054688 C6.50742187 15.58857422 6.54609375 16.61660156 6.5859375 17.67578125 C6.6173584 18.62364502 6.6487793 19.57150879 6.68115234 20.5480957 C6.8489051 23.2530269 6.8489051 23.2530269 9 26 C11.95746492 26.58345476 11.95746492 26.58345476 15 26 C17.86623133 23.05997281 18.39432857 20.83509713 18.51171875 16.796875 C18.54716797 15.8171875 18.58261719 14.8375 18.61914062 13.828125 C18.64169922 12.81234375 18.66425781 11.7965625 18.6875 10.75 C18.72166016 9.71875 18.75582031 8.6875 18.79101562 7.625 C18.87338093 5.08344188 18.94256834 2.54222374 19 0 C20.65 0 22.3 0 24 0 C24.08782542 3.52067351 24.14066643 7.04106144 24.1875 10.5625 C24.21263672 11.55314453 24.23777344 12.54378906 24.26367188 13.56445312 C24.32302198 19.51924687 23.93156232 23.76958665 21 29 C18.08028473 31.51419926 16.34151162 31.96340947 12.5 32.375 C8.71458927 31.96942028 6.94655311 31.37361222 4 29 C-0.5231695 22.86141283 -0.13332834 16.49371579 -0.0625 9.1875 C-0.05798828 8.30384766 -0.05347656 7.42019531 -0.04882812 6.50976562 C-0.03709866 4.33981441 -0.01916495 2.16989828 0 0 Z " fill="#F4F8FC" transform="translate(292,47)"/>
<path d="M0 0 C2.65414595 1.2893658 5.17977882 2.67554291 7.6796875 4.2421875 C8.70255859 4.88220703 8.70255859 4.88220703 9.74609375 5.53515625 C10.44863281 5.97730469 11.15117188 6.41945313 11.875 6.875 C12.56980469 7.30941406 13.26460937 7.74382813 13.98046875 8.19140625 C15.99214425 9.45296546 17.99643858 10.72560689 20 12 C20.88921143 12.55204102 20.88921143 12.55204102 21.79638672 13.11523438 C25.33654256 15.36545059 26.85970185 16.89492664 28 21 C23.33900457 19.40756778 19.59290624 16.88158891 15.5625 14.125 C14.91990234 13.69058594 14.27730469 13.25617187 13.61523438 12.80859375 C12.98037109 12.37933594 12.34550781 11.95007812 11.69140625 11.5078125 C11.06766113 11.09047852 10.44391602 10.67314453 9.80126953 10.24316406 C8.10522534 9.07262231 6.46965047 7.81582348 4.83984375 6.5546875 C2.17809733 4.7124147 2.17809733 4.7124147 -0.37890625 5.421875 C-3.97918131 7.58955179 -7.47202241 9.87314811 -10.9375 12.25 C-16.24460787 15.85832043 -21.58087165 19.38881499 -27.0390625 22.765625 C-28.54158569 23.69906738 -28.54158569 23.69906738 -30.07446289 24.65136719 C-32.04425424 25.87003375 -34.0199163 27.07926907 -36.00170898 28.27832031 C-36.89962158 28.83616211 -37.79753418 29.39400391 -38.72265625 29.96875 C-39.52453369 30.45794922 -40.32641113 30.94714844 -41.15258789 31.45117188 C-43.2814333 33.23594725 -43.65155774 34.28851225 -44 37 C-44.66 37 -45.32 37 -46 37 C-46.33 44.92 -46.66 52.84 -47 61 C-47.33 61 -47.66 61 -48 61 C-48 52.42 -48 43.84 -48 35 C-47.34 35 -46.68 35 -46 35 C-45.96519531 34.2678125 -45.93039063 33.535625 -45.89453125 32.78125 C-44.63474087 28.86434717 -42.04074914 27.54904086 -38.6875 25.5 C-38.03177002 25.08129639 -37.37604004 24.66259277 -36.70043945 24.23120117 C-35.25719874 23.3101296 -33.80995669 22.39530638 -32.359375 21.48583984 C-28.10590526 18.80717502 -23.90069381 16.05389423 -19.6875 13.3125 C-18.83341553 12.75925049 -17.97933105 12.20600098 -17.09936523 11.63598633 C-11.30887658 7.87912585 -5.5927871 4.04741172 0 0 Z " fill="#2E5690" transform="translate(66,7)"/>
<path d="M0 0 C7.92 0 15.84 0 24 0 C24 1.65 24 3.3 24 5 C21.03 5 18.06 5 15 5 C15 13.58 15 22.16 15 31 C13.02 31 11.04 31 9 31 C9 22.42 9 13.84 9 5 C6.03 5 3.06 5 0 5 C0 3.35 0 1.7 0 0 Z " fill="#F0F5FB" transform="translate(223,47)"/>
<path d="M0 0 C6.27 0 12.54 0 19 0 C19 1.65 19 3.3 19 5 C14.38 5 9.76 5 5 5 C5 7.97 5 10.94 5 14 C8.63 14 12.26 14 16 14 C16 15.32 16 16.64 16 18 C12.37 18 8.74 18 5 18 C5 22.29 5 26.58 5 31 C3.35 31 1.7 31 0 31 C0 20.77 0 10.54 0 0 Z " fill="#FAFBFD" transform="translate(140,47)"/>
<path d="M0 0 C1.65 0 3.3 0 5 0 C5 8.91 5 17.82 5 27 C9.29 27 13.58 27 18 27 C18 28.32 18 29.64 18 31 C12.06 31 6.12 31 0 31 C0 20.77 0 10.54 0 0 Z " fill="#FDFEFE" transform="translate(169,47)"/>
<path d="M0 0 C2.85812053 2.55726573 3.85567742 4.23027959 4.5625 8 C3.79864772 12.07387885 2.27248936 13.52745249 -1 16 C-3.5625 16.625 -3.5625 16.625 -6 16 C-9.10047679 13.23470989 -9.92053638 11.56617832 -10.5 7.4375 C-10 4 -10 4 -8.375 1.5625 C-5.2629338 -0.48491197 -3.65605504 -0.68551032 0 0 Z " fill="#E8EFF8" transform="translate(231,19)"/>
<path d="M0 0 C4 1 4 1 5.265625 2.62890625 C6.17708333 4.41927083 7.08854167 6.20963542 8 8 C8.33 5.36 8.66 2.72 9 0 C9.99 0 10.98 0 12 0 C12 5.28 12 10.56 12 16 C8 15 8 15 6.734375 13.15234375 C5.82291667 11.1015625 4.91145833 9.05078125 4 7 C3.67 9.97 3.34 12.94 3 16 C2.01 16 1.02 16 0 16 C0 10.72 0 5.44 0 0 Z " fill="#E7EFF8" transform="translate(239,19)"/>
<path d="M0 0 C1.258125 -0.04125 2.51625 -0.0825 3.8125 -0.125 C4.52019531 -0.14820313 5.22789062 -0.17140625 5.95703125 -0.1953125 C8 0 8 0 11 2 C11.375 5 11.375 5 11 8 C7.91111478 10.05925681 7.29064073 10.2390374 3.8125 10.125 C1.9253125 10.063125 1.9253125 10.063125 0 10 C0 6.7 0 3.4 0 0 Z " fill="#4D88CF" transform="translate(334,64)"/>
<path d="M0 0 C2.875 0.375 2.875 0.375 4.875 1.375 C4.875 2.035 4.875 2.695 4.875 3.375 C2.235 3.375 -0.405 3.375 -3.125 3.375 C-3.145625 4.65375 -3.16625 5.9325 -3.1875 7.25 C-3.19910156 7.96929688 -3.21070313 8.68859375 -3.22265625 9.4296875 C-3.25149242 11.45685404 -3.25149242 11.45685404 -2.125 13.375 C0.40233235 14.03055119 0.40233235 14.03055119 2.875 14.375 C2.875 13.055 2.875 11.735 2.875 10.375 C1.885 10.375 0.895 10.375 -0.125 10.375 C-0.125 9.715 -0.125 9.055 -0.125 8.375 C1.855 8.375 3.835 8.375 5.875 8.375 C6.0625 11.25 6.0625 11.25 5.875 14.375 C2.875 16.375 2.875 16.375 -0.625 16.25 C-4.125 15.375 -4.125 15.375 -6.0625 13.6875 C-7.47089562 10.62216836 -7.60272045 8.71904315 -7.125 5.375 C-5.07198838 1.74274868 -4.20750018 0.50490002 0 0 Z " fill="#E9F0F9" transform="translate(146.125,18.625)"/>
<path d="M0 0 C2.5625 0.25 2.5625 0.25 5 1 C6.38550197 3.77100394 6.1877467 5.9334706 6 9 C5.01 10.485 5.01 10.485 4 12 C1.5625 11.625 1.5625 11.625 -1 11 C-2.50662097 7.98675805 -2.17770373 5.31713623 -2 2 C-1.34 1.34 -0.68 0.68 0 0 Z " fill="#578FD2" transform="translate(226,21)"/>
<path d="M0 0 C6.0546875 -0.1953125 6.0546875 -0.1953125 8 0 C8.66 0.66 9.32 1.32 10 2 C9.75 4.5625 9.75 4.5625 9 7 C6.04335481 8.4783226 3.25770263 8.06032783 0 8 C0 5.36 0 2.72 0 0 Z " fill="#4C87CF" transform="translate(334,52)"/>
<path d="M0 0 C2.97 0 5.94 0 9 0 C9 0.66 9 1.32 9 2 C6.69 2 4.38 2 2 2 C2 3.65 2 5.3 2 7 C3.98 7 5.96 7 8 7 C8 7.66 8 8.32 8 9 C6.02 9 4.04 9 2 9 C2 10.65 2 12.3 2 14 C4.31 14 6.62 14 9 14 C9 14.66 9 15.32 9 16 C6.03 16 3.06 16 0 16 C0 10.72 0 5.44 0 0 Z " fill="#FEFEFE" transform="translate(157,19)"/>
<path d="M0 0 C3.96 0 7.92 0 12 0 C12 0.66 12 1.32 12 2 C10.68 2 9.36 2 8 2 C8 6.62 8 11.24 8 16 C7.01 16 6.02 16 5 16 C5 11.38 5 6.76 5 2 C3.35 2 1.7 2 0 2 C0 1.34 0 0.68 0 0 Z " fill="#EEF3FA" transform="translate(199,19)"/>
<path d="M0 0 C3.63 0 7.26 0 11 0 C11 0.66 11 1.32 11 2 C9.68 2 8.36 2 7 2 C7 6.62 7 11.24 7 16 C6.01 16 5.02 16 4 16 C4 11.38 4 6.76 4 2 C2.68 2 1.36 2 0 2 C0 1.34 0 0.68 0 0 Z " fill="#F5F8FC" transform="translate(170,19)"/>
<path d="M0 0 C0.66 0.33 1.32 0.66 2 1 C3.26761762 5.29581527 4 8.50944298 4 13 C1.69 13 -0.62 13 -3 13 C-2.01 8.71 -1.02 4.42 0 0 Z " fill="#5C92D3" transform="translate(205,52)"/>
<path d="M0 0 C0.66 0.33 1.32 0.66 2 1 C-1.75 4 -1.75 4 -4 4 C-2.68 5.65 -1.36 7.3 0 9 C-1.32 8.67 -2.64 8.34 -4 8 C-4.33 15.92 -4.66 23.84 -5 32 C-5.33 32 -5.66 32 -6 32 C-6 23.42 -6 14.84 -6 6 C-6.66 6 -7.32 6 -8 6 C-8.33 5.01 -8.66 4.02 -9 3 C-8.071875 2.87625 -7.14375 2.7525 -6.1875 2.625 C-2.86074765 2.18466918 -2.86074765 2.18466918 0 0 Z " fill="#49699A" transform="translate(73,37)"/>
<path d="M0 0 C0.99 0 1.98 0 3 0 C3 5.28 3 10.56 3 16 C2.01 16 1.02 16 0 16 C0 10.72 0 5.44 0 0 Z " fill="#EFF4FA" transform="translate(192,19)"/>
<path d="M0 0 C0.94875 0.04125 1.8975 0.0825 2.875 0.125 C2.276875 0.33125 1.67875 0.5375 1.0625 0.75 C-1.93518767 2.63426082 -2.73861776 4.93632084 -4.125 8.125 C-4.455 8.125 -4.785 8.125 -5.125 8.125 C-5.25 5.25 -5.25 5.25 -5.125 2.125 C-3.125 0.125 -3.125 0.125 0 0 Z " fill="#FBFCFE" transform="translate(227.125,19.875)"/>
</svg>
