<svg width="100" height="100" viewBox="0 0 100 100" fill="none" xmlns="http://www.w3.org/2000/svg">
<path d="M91.6666 69.7499V19.4582C91.6666 14.4582 87.5833 10.7499 82.625 11.1666H82.375C73.625 11.9166 60.3333 16.3749 52.9166 21.0416L52.2083 21.4999C51 22.2499 49 22.2499 47.7916 21.4999L46.75 20.8749C39.3333 16.2499 26.0833 11.8332 17.3333 11.1249C12.375 10.7082 8.33331 14.4582 8.33331 19.4166V69.7499C8.33331 73.7499 11.5833 77.4999 15.5833 77.9999L16.7916 78.1666C25.8333 79.3749 39.7916 83.9582 47.7916 88.3332L47.9583 88.4166C49.0833 89.0416 50.875 89.0416 51.9583 88.4166C59.9583 83.9999 73.9583 79.3749 83.0416 78.1666L84.4166 77.9999C88.4166 77.4999 91.6666 73.7499 91.6666 69.7499Z" stroke="black" stroke-width="3.5" stroke-linecap="round" stroke-linejoin="round"/>
<path d="M50 22.875V85.375" stroke="black" stroke-width="3.5" stroke-linecap="round" stroke-linejoin="round"/>
<path d="M32.2917 35.375H22.9167" stroke="black" stroke-width="3.5" stroke-linecap="round" stroke-linejoin="round"/>
<path d="M35.4167 47.875H22.9167" stroke="black" stroke-width="3.5" stroke-linecap="round" stroke-linejoin="round"/>
</svg>
