<svg width="100" height="100" viewBox="0 0 100 100" fill="none" xmlns="http://www.w3.org/2000/svg">
<path d="M35.4167 79.0416H33.3334C16.6667 79.0416 8.33337 74.8749 8.33337 54.0416V33.2083C8.33337 16.5416 16.6667 8.20825 33.3334 8.20825H66.6667C83.3334 8.20825 91.6667 16.5416 91.6667 33.2083V54.0416C91.6667 70.7082 83.3334 79.0416 66.6667 79.0416H64.5834C63.2917 79.0416 62.0418 79.6667 61.2501 80.7084L55.0001 89.0417C52.2501 92.7084 47.75 92.7084 45 89.0417L38.75 80.7084C38.0833 79.7917 36.5834 79.0416 35.4167 79.0416Z" stroke="black" stroke-width="3.5" stroke-miterlimit="10" stroke-linecap="round" stroke-linejoin="round"/>
<path d="M33.3333 36.25L25 44.5833L33.3333 52.9167" stroke="black" stroke-width="3.5" stroke-miterlimit="10" stroke-linecap="round" stroke-linejoin="round"/>
<path d="M66.6667 36.25L75 44.5833L66.6667 52.9167" stroke="black" stroke-width="3.5" stroke-miterlimit="10" stroke-linecap="round" stroke-linejoin="round"/>
<path d="M54.1667 34.875L45.8334 54.2918" stroke="black" stroke-width="3.5" stroke-miterlimit="10" stroke-linecap="round" stroke-linejoin="round"/>
</svg>
