<svg width="100" height="100" viewBox="0 0 100 100" fill="none" xmlns="http://www.w3.org/2000/svg">
<path d="M50 4C24.6227 4 4 24.6227 4 50C4 75.3773 24.6227 96 50 96C75.3773 96 96 75.3773 96 50C96 24.6227 75.3773 4 50 4ZM50 8C73.2147 8 92 26.7853 92 50C92 50.1427 91.9897 50.2834 91.9883 50.4258C90.7091 50.3077 89.231 50.1956 87.3516 50.1289C84.6941 50.0347 81.3445 50.062 77.5469 50.25C77.6877 49.2693 77.7864 48.2748 77.7891 47.2539C77.9827 43.5087 76.725 40.0049 74.6797 36.9102C75.1738 35.2027 75.7535 33.0304 75.8984 30.5664C76.0636 27.7579 75.8212 24.6435 73.5664 22.5391L72.9883 22H72.1992C66.8331 22 63.16 24.2464 60.9141 26.0273C57.6711 24.772 54.0244 24 50 24C45.9527 24 42.271 24.7828 38.8945 26.0352C36.6498 24.2534 32.9736 22 27.6016 22H26.8164L26.2383 22.5352C24.0419 24.5746 23.8396 27.6035 23.9766 30.3984C24.0974 32.863 24.6435 35.1043 25.1289 36.8945C23.049 40.0497 21.8008 43.644 21.8008 47.1992C21.8008 48.2225 21.8959 49.2201 22.0352 50.2031C18.4236 50.0356 15.2042 50.0033 12.6484 50.0938C10.769 50.1602 9.29088 50.2714 8.01172 50.3906C8.01053 50.2599 8 50.131 8 50C8 26.7853 26.7853 8 50 8ZM28.793 26.2617C32.8281 26.6441 35.864 28.4459 37.2695 29.6953L38.207 30.5234L39.3633 30.0508C42.5262 28.7484 46.054 28 50 28C53.946 28 57.4748 28.7522 60.3984 30.0312L61.5703 30.5469L62.5273 29.6953C63.9334 28.4455 66.9744 26.6431 71.0117 26.2617C71.5485 27.1517 72.015 28.4173 71.9023 30.332C71.7675 32.6235 71.1546 35.1193 70.6914 36.6016L70.3906 37.5664L70.9883 38.3828C72.9672 41.0814 73.9762 44.0019 73.8047 47.0898L73.8008 47.1445V47.1992C73.8008 52.1901 72.0036 56.1847 68.1758 59.1445C64.3481 62.1044 58.3053 64 49.8008 64C41.2962 64 35.2497 62.1044 31.4219 59.1445C27.5941 56.1847 25.8008 52.1901 25.8008 47.1992C25.8008 44.2698 26.8586 41.0472 28.8125 38.3828L29.3984 37.5859L29.1172 36.6367C28.6537 35.061 28.0857 32.5082 27.9727 30.2031C27.8787 28.2859 28.3324 27.0741 28.793 26.2617ZM17.7695 52.043C19.1829 52.061 20.8029 52.1373 22.4258 52.2188C22.5808 52.8423 22.7576 53.4558 22.9727 54.0547C16.3579 54.1942 11.4095 54.8593 8.35938 55.4297C8.23041 54.429 8.1277 53.42 8.07031 52.3984C10.3244 52.1845 13.502 51.9885 17.7695 52.043ZM82.2305 52.0742C86.4951 52.0201 89.6715 52.2163 91.9258 52.4297C91.8685 53.4367 91.7675 54.4313 91.6406 55.418C88.4815 54.8384 83.3993 54.1734 76.6133 54.0664C76.8239 53.4794 76.9993 52.8764 77.1523 52.2656C78.9426 52.1697 80.6891 52.0938 82.2305 52.0742ZM23.8242 56.0391C25.0177 58.4307 26.723 60.566 28.9766 62.3086C32.0577 64.6911 36.0632 66.3557 40.9531 67.2461C40.3134 67.9034 39.7316 68.6252 39.2148 69.3867L39.0938 69.2812C39.1047 69.2686 38.0995 69.7718 36.5977 69.9062C35.0958 70.0407 33.2432 70 31.6016 70C29.1516 70 28.0724 68.8424 26.3477 66.7344C25.3926 65.4471 24.2282 64.4047 23.0977 63.6133C21.94 62.8029 20.9525 62.231 19.7305 62.0273L19.5664 62H19.3984C18.4651 62 17.562 62.0676 16.7188 63.0312C16.2971 63.5131 16.0066 64.4051 16.1953 65.1602C16.3841 65.9152 16.8617 66.3792 17.2891 66.6641C20.0225 68.4864 20.5056 72.093 22.2188 75.3008C23.8186 78.4886 27.2713 80 30.8008 80H36V89.6055C21.9356 84.6411 11.3294 72.4092 8.66406 57.4062C11.7259 56.8296 16.8531 56.1362 23.8242 56.0391ZM75.7656 56.0547C82.8911 56.1157 88.1621 56.8081 91.3398 57.3945C88.6781 72.403 78.0681 84.6397 64 89.6055V79.1992C64 76.0301 62.9593 72.5354 61.1484 69.6211C60.5986 68.7363 59.9519 67.8995 59.2305 67.1484C63.8609 66.2337 67.6647 64.5976 70.625 62.3086C72.8736 60.5698 74.5752 58.4408 75.7656 56.0547ZM47.3984 68.1992H53C54.6256 68.1992 56.3608 69.4948 57.75 71.7305C59.1392 73.9661 60 76.9684 60 79.1992V90.7969C56.7948 91.5785 53.4476 92 50 92C46.5524 92 43.2052 91.5785 40 90.7969V79.1992C40 77.0177 40.9357 74.0226 42.418 71.7773C43.9003 69.5321 45.7728 68.1992 47.3984 68.1992ZM24.6172 70.5625C26.3487 72.3585 28.4451 74 31.6016 74C33.1599 74 35.105 74.0561 36.9531 73.8906C36.9597 73.89 36.9661 73.8873 36.9727 73.8867C36.7292 74.5867 36.5475 75.2911 36.3945 76H30.8008C28.3341 76 26.5915 75.1089 25.7891 73.5039L25.7734 73.4766L25.7617 73.4531C25.4329 72.8424 25.0013 71.6212 24.6172 70.5625Z" fill="black"/>
</svg>
