<svg width="100" height="100" viewBox="0 0 100 100" fill="none" xmlns="http://www.w3.org/2000/svg">
<path d="M90.2501 43.5001L86.1667 60.9168C82.6667 75.9584 75.7501 82.0418 62.7501 80.7918C60.6667 80.6251 58.4167 80.2501 56.0001 79.6668L49.0001 78.0001C31.6251 73.8751 26.2501 65.2918 30.3334 47.8751L34.4167 30.4168C35.2501 26.8751 36.2501 23.7918 37.5001 21.2501C42.3751 11.1668 50.6667 8.45845 64.5834 11.7501L71.5417 13.3751C89.0001 17.4584 94.3334 26.0834 90.2501 43.5001Z" stroke="black" stroke-width="3.5" stroke-linecap="round" stroke-linejoin="round"/>
<path d="M62.75 80.7917C60.1666 82.5417 56.9166 84 52.9583 85.2917L46.375 87.4583C29.8333 92.7917 21.125 88.3333 15.75 71.7917L10.4166 55.3333C5.08329 38.7917 9.49996 30.0417 26.0416 24.7083L32.625 22.5417C34.3333 22 35.9583 21.5417 37.5 21.25C36.25 23.7917 35.25 26.875 34.4166 30.4167L30.3333 47.875C26.25 65.2917 31.625 73.875 49 78L56 79.6667C58.4166 80.25 60.6666 80.625 62.75 80.7917Z" stroke="black" stroke-width="3.5" stroke-linecap="round" stroke-linejoin="round"/>
<path d="M52.6666 35.5417L72.875 40.6668" stroke="black" stroke-width="3.5" stroke-linecap="round" stroke-linejoin="round"/>
<path d="M48.5834 51.6667L60.6667 54.7501" stroke="black" stroke-width="3.5" stroke-linecap="round" stroke-linejoin="round"/>
</svg>
