<svg width="24" height="24" viewBox="0 0 24 24" fill="none" xmlns="http://www.w3.org/2000/svg">
<g clip-path="url(#clip0_216_13760)">
<path d="M4.02997 15.39C3.49997 14.25 3.21997 13.01 3.21997 11.76C3.21997 10.45 3.50997 9.16 4.07997 7.98C4.64997 6.8 5.46997 5.75999 6.48997 4.93999C7.50997 4.11999 8.69997 3.53998 9.97997 3.23998C11.26 2.93998 12.58 2.93 13.87 3.2C15.15 3.48 16.36 4.03998 17.39 4.83998C18.43 5.63998 19.27 6.66998 19.86 7.83998C20.45 9.00998 20.76 10.3 20.79 11.6C20.81 12.91 20.54 14.2 20 15.39" stroke="black" stroke-width="1.5" stroke-miterlimit="10" stroke-linecap="round"/>
<path d="M16.1201 17.91C15.5501 18.89 15.8901 20.15 16.8801 20.72C17.8701 21.29 19.1301 20.95 19.7001 19.97L20.7301 18.19C21.3001 17.21 20.9601 15.95 19.9701 15.38C18.9801 14.81 17.7201 15.15 17.1501 16.13L16.1201 17.91Z" stroke="black" stroke-width="1.5" stroke-miterlimit="10" stroke-linecap="round"/>
<path d="M6.85001 16.13C6.28001 15.15 5.02 14.81 4.03 15.38C3.04 15.95 2.70001 17.21 3.27001 18.19L4.3 19.97C4.87 20.95 6.13 21.29 7.12 20.72C8.11 20.15 8.45001 18.89 7.88001 17.91L6.85001 16.13Z" stroke="black" stroke-width="1.5" stroke-miterlimit="10" stroke-linecap="round"/>
</g>
<defs>
<clipPath id="clip0_216_13760">
<rect width="24" height="24" fill="white"/>
</clipPath>
</defs>
</svg>
