<svg width="275" height="218" viewBox="0 0 275 218" fill="none" xmlns="http://www.w3.org/2000/svg">
<mask id="mask0_1007_2" style="mask-type:luminance" maskUnits="userSpaceOnUse" x="50" y="22" width="175" height="171">
<path d="M225 22H50V192.909H225V22Z" fill="white"/>
</mask>
<g mask="url(#mask0_1007_2)">
<path d="M213.037 96.9811C213.037 90.3192 207.53 84.9187 200.735 84.9187H74.2645C67.4706 84.9187 61.9629 90.3192 61.9629 96.9811V179.147H213.037V96.9811Z" fill="#373E49"/>
<path d="M205.71 173.08V99.4234C205.71 95.567 202.522 92.4407 198.589 92.4407H76.4116C72.4786 92.4407 69.2904 95.567 69.2904 99.4234V173.08H205.71Z" fill="#FFDA00"/>
<path d="M205.71 173.08V99.4234C205.71 95.567 202.522 92.4407 198.589 92.4407H76.4116C72.4786 92.4407 69.2904 95.567 69.2904 99.4234V173.08H205.71Z" fill="white"/>
<path d="M205.71 173.08V99.4234C205.71 95.567 202.522 92.4407 198.589 92.4407H76.4116C72.4786 92.4407 69.2904 95.567 69.2904 99.4234V173.08H205.71Z" fill="url(#paint0_linear_1007_2)"/>
<path d="M50 178.947H225V192.909H50V178.947Z" fill="url(#paint1_linear_1007_2)"/>
<path d="M170.22 22V108.413L193.853 108.381L137.734 163.074L81.6145 108.046H104.61V22H170.22Z" fill="#FFDA00"/>
<path d="M112.339 75.375H162.661V108.335H112.339V75.375Z" fill="#0092FF"/>
<path d="M112.339 75.375L137.5 99.2584L162.661 75.375H112.339Z" fill="#00CFFF"/>
</g>
<defs>
<linearGradient id="paint0_linear_1007_2" x1="69.2904" y1="132.76" x2="205.71" y2="132.76" gradientUnits="userSpaceOnUse">
<stop stop-color="#0062FF"/>
<stop offset="0.312" stop-color="#006BFF"/>
<stop offset="1" stop-color="#007BFF"/>
</linearGradient>
<linearGradient id="paint1_linear_1007_2" x1="50" y1="185.928" x2="225" y2="185.928" gradientUnits="userSpaceOnUse">
<stop stop-color="#373E49"/>
<stop offset="0.05" stop-color="#474D58"/>
<stop offset="0.143" stop-color="#5D636E"/>
<stop offset="0.244" stop-color="#6D737D"/>
<stop offset="0.358" stop-color="#767C86"/>
<stop offset="0.515" stop-color="#797F89"/>
<stop offset="0.657" stop-color="#767C86"/>
<stop offset="0.771" stop-color="#6C727C"/>
<stop offset="0.874" stop-color="#5B616C"/>
<stop offset="0.972" stop-color="#434A55"/>
<stop offset="1" stop-color="#3B424D"/>
</linearGradient>
</defs>
</svg>
