<svg width="275" height="165" viewBox="0 0 275 165" fill="none" xmlns="http://www.w3.org/2000/svg">
<path d="M171.689 24.8142H151.747L150.936 21.1725C150.657 19.9035 149.53 19 148.23 19H125.766C124.466 19 123.343 19.9035 123.06 21.1725L122.253 24.8142H102.307C95.0106 24.8142 89.0781 30.7489 89.0781 38.0453V133.769C89.0781 141.066 95.0106 147 102.307 147H171.689C178.986 147 184.922 141.066 184.922 133.769V38.0453C184.922 30.7489 178.985 24.8142 171.689 24.8142ZM176.275 133.769C176.275 136.296 174.218 138.353 171.689 138.353H102.307C99.7816 138.353 97.7252 136.296 97.7252 133.769V38.0453C97.7252 35.518 99.7816 33.4619 102.307 33.4619H120.332L119.872 35.5308C119.686 36.3519 119.889 37.2133 120.412 37.868C120.94 38.5246 121.738 38.9066 122.578 38.9066H151.421C152.262 38.9066 153.06 38.5246 153.583 37.868C154.111 37.2114 154.314 36.3522 154.128 35.5308L153.668 33.4619H171.689C174.218 33.4619 176.275 35.5183 176.275 38.0453V133.769Z" fill="#646464"/>
<path d="M119.449 70.2324H131.209L128.414 68.324C124.47 65.6325 123.457 60.2506 126.15 56.307C128.84 52.3675 134.224 51.3479 138.167 54.0437L138.628 54.3583V51.0586C138.628 48.9198 136.892 47.1846 134.756 47.1846H119.449C117.313 47.1846 115.578 48.9201 115.578 51.0586V66.3585C115.578 68.4975 117.313 70.2324 119.449 70.2324Z" fill="white"/>
<path d="M155.454 48.9938L141.9 61.8257L135.727 57.614C133.764 56.2649 131.07 56.7758 129.718 58.7457C128.371 60.7172 128.878 63.4071 130.854 64.754L139.903 70.9334C140.642 71.4403 141.491 71.6871 142.34 71.6871C143.416 71.6871 144.484 71.2864 145.312 70.5028L161.4 55.2727C163.135 53.6324 163.206 50.8941 161.568 49.1608C159.922 47.4274 157.189 47.3535 155.454 48.9938Z" fill="#10A300"/>
<path d="M119.449 99.9353H131.213L128.414 98.0247C124.47 95.3326 123.457 89.9513 126.15 86.0077C128.84 82.0657 134.224 81.0461 138.167 83.7441L138.628 84.059V80.7592C138.628 78.6208 136.892 76.8853 134.756 76.8853H119.449C117.313 76.8853 115.578 78.6208 115.578 80.7592V96.0613C115.578 98.1998 117.313 99.9353 119.449 99.9353Z" fill="white"/>
<path d="M155.454 78.6963L141.9 91.526L135.727 87.3143C133.764 85.963 131.07 86.472 129.718 88.446C128.371 90.418 128.878 93.1074 130.854 94.4546L139.903 100.634C140.642 101.141 141.491 101.388 142.34 101.388C143.416 101.388 144.484 100.986 145.312 100.203L161.4 84.9752C163.135 83.3349 163.206 80.5988 161.568 78.8633C159.922 77.1296 157.189 77.0579 155.454 78.6963Z" fill="#10A300"/>
<path d="M134.756 106.587H119.449C117.313 106.587 115.578 108.323 115.578 110.461V125.761C115.578 127.9 117.313 129.635 119.449 129.635H134.756C136.892 129.635 138.628 127.9 138.628 125.761V110.461C138.628 108.323 136.892 106.587 134.756 106.587Z" fill="white"/>
</svg>
