<svg width="44" height="44" viewBox="0 0 44 44" fill="none" xmlns="http://www.w3.org/2000/svg">
<path d="M9.83452 33.4672C9.77296 33.4339 9.7114 33.4005 9.64798 33.3661C9.20559 33.1166 9.20559 33.1166 9.10942 32.8281C9.05802 32.8157 9.00662 32.8033 8.95366 32.7905C8.16852 32.5886 7.36945 31.0788 6.96098 30.4218C6.44335 29.5221 6.13297 28.5994 5.92973 27.5859C5.91746 27.5275 5.90519 27.469 5.89255 27.4089C5.60376 26.0288 5.45237 24.6047 5.67192 23.2031C5.68211 23.1096 5.6923 23.0161 5.7028 22.9198C5.84758 21.6399 6.17001 20.4232 6.70317 19.25C6.79286 19.037 6.88238 18.8239 6.97172 18.6108C7.11896 18.261 7.27614 17.9392 7.47661 17.6171C7.55421 17.4796 7.63123 17.3418 7.70756 17.2036C7.74512 17.1357 7.78267 17.0678 7.82136 16.9978C7.84939 16.9469 7.87742 16.8961 7.90629 16.8437C7.96301 16.8437 8.01973 16.8437 8.07817 16.8437C8.16325 16.5885 8.16325 16.5885 8.25004 16.3281C8.30676 16.3281 8.36348 16.3281 8.42192 16.3281C8.451 16.2382 8.451 16.2382 8.48067 16.1465C8.61869 15.8438 8.81161 15.6143 9.02885 15.3667C9.07117 15.3176 9.11349 15.2686 9.15709 15.2181C9.28379 15.0719 9.41133 14.9265 9.53911 14.7812C9.60546 14.7051 9.67182 14.629 9.74019 14.5506C11.1624 12.9432 12.7595 11.6806 14.6031 10.591C14.7862 10.4814 14.967 10.3685 15.1475 10.2547C15.3741 10.1125 15.6002 9.97624 15.8394 9.85591C15.894 9.82788 15.9486 9.79985 16.0049 9.77098C16.1563 9.71089 16.1563 9.71089 16.4141 9.71089C16.4141 9.65417 16.4141 9.59745 16.4141 9.53901C16.5559 9.53901 16.6977 9.53901 16.8438 9.53901C16.8666 9.58665 16.8894 9.63428 16.9129 9.68336C16.9433 9.74562 16.9737 9.80788 17.0049 9.87202C17.0348 9.93384 17.0647 9.99565 17.0956 10.0593C17.1999 10.2489 17.3305 10.3719 17.489 10.5172C17.628 10.6679 17.6961 10.8022 17.7784 10.9892C17.9366 11.3216 18.1166 11.5298 18.3907 11.7734C18.3 12.0579 18.2125 12.1208 17.9479 12.2732C17.84 12.3243 17.7315 12.3743 17.6226 12.4233C17.1471 12.6368 17.1471 12.6368 16.7579 12.9765C16.6157 13.0643 16.4722 13.1498 16.3282 13.2343C16.1915 13.3211 16.0555 13.4089 15.92 13.4975C15.8531 13.541 15.7861 13.5846 15.7172 13.6294C15.5441 13.7389 15.5441 13.7389 15.4688 13.9218C15.4121 13.9218 15.3554 13.9218 15.2969 13.9218C15.2969 13.9785 15.2969 14.0353 15.2969 14.0937C15.1828 14.2058 15.1828 14.2058 15.0176 14.3408C14.17 15.0654 13.4401 15.8393 12.8047 16.7578C12.7403 16.8485 12.6758 16.9392 12.6094 17.0327C11.6402 18.4349 11.1821 20.0242 10.7845 21.6644C10.7478 21.8066 10.7027 21.9466 10.6563 22.0859C10.7084 22.0631 10.7604 22.0402 10.8141 22.0167C12.4361 21.333 14.2315 21.4151 15.8787 21.9983C16.0626 22.0772 16.2375 22.1639 16.4141 22.2578C16.5734 22.3366 16.7328 22.4154 16.8921 22.4941C17.0193 22.5584 17.1465 22.6228 17.2735 22.6875C17.2735 22.7442 17.2735 22.8009 17.2735 22.8593C17.3354 22.8802 17.3973 22.901 17.4611 22.9224C18.0664 23.1944 18.5796 23.7515 18.9063 24.3203C18.9393 24.3691 18.9723 24.418 19.0063 24.4683C19.4811 25.1775 19.8019 25.9704 19.9375 26.8125C19.9564 26.9102 19.9752 27.0079 19.9946 27.1085C20.2974 28.9436 19.728 30.6113 18.6864 32.1184C17.9537 33.1246 16.9974 33.8215 15.8125 34.2031C15.7239 34.2332 15.6353 34.2633 15.544 34.2944C13.4961 34.7898 11.6633 34.4669 9.83452 33.4672Z" fill="#FF4F00"/>
<path d="M27.7576 33.2579C27.3865 32.9731 27.0401 32.6596 26.7264 32.3126C26.7264 32.2559 26.7264 32.1992 26.7264 32.1407C26.6509 32.1098 26.6509 32.1098 26.574 32.0783C26.3446 31.9471 26.2298 31.8033 26.0711 31.5929C25.995 31.4935 25.995 31.4935 25.9174 31.3921C25.7943 31.2146 25.704 31.0451 25.6092 30.8517C25.5538 30.7603 25.4984 30.6689 25.4413 30.5747C24.9134 29.7006 24.5816 28.8291 24.3201 27.8439C24.2919 27.7394 24.2636 27.6349 24.2345 27.5273C23.9586 26.3854 23.9704 25.2147 23.9656 24.0465C23.965 23.9217 23.965 23.9217 23.9644 23.7944C23.9664 22.9442 24.1345 22.1684 24.3362 21.3448C24.3602 21.2422 24.3842 21.1395 24.4089 21.0337C24.565 20.3975 24.7726 19.825 25.0614 19.2368C25.1711 19.0098 25.264 18.7828 25.3514 18.5465C25.5292 18.0897 25.7783 17.687 26.0389 17.2736C26.1931 17.0197 26.3397 16.7678 26.4686 16.5001C26.5253 16.5001 26.582 16.5001 26.6404 16.5001C26.6575 16.4434 26.6746 16.3867 26.6921 16.3282C26.8607 15.9666 27.1051 15.6875 27.3602 15.3829C27.4593 15.263 27.5585 15.143 27.6576 15.0231C27.7046 14.9666 27.7516 14.9102 27.8 14.852C27.9095 14.7196 28.0169 14.5855 28.1239 14.451C28.3026 14.2294 28.4992 14.0348 28.7029 13.8361C28.765 13.7722 28.827 13.7084 28.8909 13.6427C30.2771 12.2874 31.8415 11.187 33.5208 10.2267C33.6089 10.1761 33.697 10.1254 33.7877 10.0733C33.9123 10.003 33.9123 10.003 34.0395 9.93127C34.1518 9.86763 34.1518 9.86763 34.2664 9.8027C34.4608 9.71106 34.4608 9.71106 34.7186 9.71106C34.7186 9.65434 34.7186 9.59762 34.7186 9.53918C34.9166 9.51669 34.9166 9.51669 35.1483 9.53918C35.2939 9.69327 35.2939 9.69327 35.4168 9.89905C35.4598 9.9695 35.5028 10.04 35.5471 10.1125C35.5856 10.1786 35.6242 10.2446 35.6639 10.3126C35.7171 10.3959 35.7702 10.4792 35.825 10.5651C35.9217 10.7423 35.9217 10.7423 35.9217 10.9142C35.9784 10.9142 36.0351 10.9142 36.0936 10.9142C36.1817 11.056 36.2674 11.1995 36.3514 11.3439C36.3975 11.3882 36.4435 11.4325 36.491 11.4781C36.6337 11.6273 36.6605 11.7447 36.6951 11.9454C36.4253 12.1873 36.1428 12.3613 35.825 12.5309C35.2112 12.8589 34.5983 13.2037 34.0687 13.6588C33.8592 13.8361 33.8592 13.8361 33.6873 13.8361C33.6676 13.8848 33.6479 13.9335 33.6276 13.9838C33.486 14.2312 33.3117 14.3801 33.0965 14.5665C32.8793 14.7559 32.6673 14.9416 32.4674 15.1493C32.3123 15.297 32.3123 15.297 32.1404 15.297C32.1404 15.3537 32.1404 15.4104 32.1404 15.4689C32.0837 15.5256 32.027 15.5823 31.9686 15.6407C31.9118 15.7152 31.8551 15.7896 31.7967 15.8663C31.74 15.9337 31.6833 16.001 31.6248 16.0704C31.5681 16.0704 31.5114 16.0704 31.4529 16.0704C31.4423 16.1218 31.4317 16.1732 31.4207 16.2262C31.367 16.4142 31.367 16.4142 31.1951 16.672C31.1384 16.672 31.0817 16.672 31.0233 16.672C31.0179 16.7305 31.0126 16.789 31.0071 16.8492C30.9318 17.1215 30.805 17.2866 30.6382 17.5106C29.7376 18.8395 29.3583 20.4495 29.0467 22.0001C29.0916 21.9835 29.1364 21.9669 29.1826 21.9498C31.0736 21.2808 33.0644 21.4555 34.873 22.2855C36.4644 23.12 37.6181 24.5044 38.1561 26.2111C38.5206 27.5024 38.6184 29.0416 37.9896 30.277C37.96 30.3284 37.9304 30.3798 37.8999 30.4327C37.7987 30.6189 37.7328 30.8078 37.6619 31.0074C37.4563 31.535 37.1277 31.9556 36.7811 32.3986C36.7173 32.4872 36.6534 32.5758 36.5877 32.6671C34.2958 35.0632 30.4094 35.0279 27.7576 33.2579Z" fill="#FF4F00"/>
</svg>
