<svg xmlns="http://www.w3.org/2000/svg" width="20" height="20" viewBox="0 0 20 20" fill="currentColor">
    <path d="M18.333 20H1.667C.747 20 0 19.253 0 18.333V1.667C0 .747.746 0 1.667 0h16.666C19.253 0 20 .746 20 1.667v16.666c0 .92-.747 1.667-1.667 1.667zm-4.392-4.166c2.143 0 3.88-1.737 3.88-3.88 0-2.144-1.737-3.88-3.88-3.88-2.144 0-3.88 1.736-3.88 3.88 0 2.143 1.736 3.88 3.88 3.88zm-6.944 0c1.071 0 1.94-.869 1.94-1.94 0-1.072-.869-1.94-1.94-1.94-1.072 0-1.94.868-1.94 1.94 0 1.071.868 1.94 1.94 1.94zm-3.472-3.88c.536 0 .97-.434.97-.97 0-.536-.434-.97-.97-.97-.536 0-.97.434-.97.97 0 .536.434.97.97.97z"/>
</svg>