<svg width="80" height="111" viewBox="0 0 80 111" fill="none" xmlns="http://www.w3.org/2000/svg">
<path d="M59.1894 102.631C60.0556 100.543 60.857 98.5139 61.6322 96.5515C63.3042 92.3189 64.8541 88.3953 66.6678 84.8511C70.0017 78.3418 72.0708 70.6237 73.4645 62.1575C75.311 50.9343 74.8662 38.9846 71.5504 26.2322C70.0856 20.5994 67.997 15.5113 64.8916 11.3971C61.7753 7.26771 59.5377 6.74373 56.6279 8.87711C53.3304 11.2987 51.839 16.0499 51.5438 21.8896C51.1703 29.2422 51.1862 36.8276 51.3159 44.4187C50.472 55.3687 41.6105 43.9189 35.1421 35.561C33.0838 32.9015 31.2679 30.5551 30.0296 29.3431C25.1013 24.6088 19.9935 20.736 14.7247 19.6594C6.26044 17.9288 2.98396 27.9244 7.82356 40.745C13.2262 55.0589 20.9226 66.3111 29.364 75.1988C35.9899 82.1743 42.8871 88.227 49.9036 94.3844C52.9802 97.0843 56.0798 99.8043 59.1894 102.631ZM45.0709 36.7667C45.2298 34.7279 45.3852 32.7905 45.535 30.9214C45.8721 26.717 46.1815 22.8587 46.4409 18.9716C46.9655 11.1311 49.5274 6.05729 53.5764 2.88652C60.3891 -2.45543 67.5826 2.45309 73.2219 14.818C77.5462 24.3035 79.122 34.3614 79.6877 44.5492C80.6782 62.3175 76.8238 76.021 71.6972 88.7248C69.3195 94.6132 66.9979 100.577 64.751 106.63C63.0031 111.341 61.8754 111.527 58.1213 108.047C54.9847 105.139 51.7823 102.463 48.56 100.022C38.9783 92.7569 29.5923 84.5665 20.9279 73.7336C13.539 64.4949 6.62108 54.2772 2.21196 40.8253C-0.389302 32.8823 -0.03398 23.8911 3.19318 19.3153C7.11881 13.7454 12.1522 11.8688 18.345 14.0857C26.6311 17.0552 34.0759 24.7481 41.4906 32.6993C42.128 33.3841 42.7546 34.1063 43.5464 35.0187C43.9919 35.5321 44.4896 36.1057 45.0709 36.7667Z" fill="#FF0000"/>
<path d="M59.1894 102.631C60.0556 100.543 60.857 98.5139 61.6322 96.5515C63.3042 92.3189 64.8541 88.3953 66.6678 84.8511C70.0017 78.3418 72.0708 70.6237 73.4645 62.1575C75.311 50.9343 74.8662 38.9846 71.5504 26.2322C70.0856 20.5994 67.997 15.5113 64.8916 11.3971C61.7753 7.26771 59.5377 6.74373 56.6279 8.87711C53.3304 11.2987 51.839 16.0499 51.5438 21.8896C51.1703 29.2422 51.1862 36.8276 51.3159 44.4187C50.472 55.3687 41.6105 43.9189 35.1421 35.561C33.0838 32.9015 31.2679 30.5551 30.0296 29.3431C25.1013 24.6088 19.9935 20.736 14.7247 19.6594C6.26044 17.9288 2.98396 27.9244 7.82356 40.745C13.2262 55.0589 20.9226 66.3111 29.364 75.1988C35.9899 82.1743 42.8871 88.227 49.9036 94.3844C52.9802 97.0843 56.0798 99.8043 59.1894 102.631ZM45.0709 36.7667C45.2298 34.7279 45.3852 32.7905 45.535 30.9214C45.8721 26.717 46.1815 22.8587 46.4409 18.9716C46.9655 11.1311 49.5274 6.05729 53.5764 2.88652C60.3891 -2.45543 67.5826 2.45309 73.2219 14.818C77.5462 24.3035 79.122 34.3614 79.6877 44.5492C80.6782 62.3175 76.8238 76.021 71.6972 88.7248C69.3195 94.6132 66.9979 100.577 64.751 106.63C63.0031 111.341 61.8754 111.527 58.1213 108.047C54.9847 105.139 51.7823 102.463 48.56 100.022C38.9783 92.7569 29.5923 84.5665 20.9279 73.7336C13.539 64.4949 6.62108 54.2772 2.21196 40.8253C-0.389302 32.8823 -0.03398 23.8911 3.19318 19.3153C7.11881 13.7454 12.1522 11.8688 18.345 14.0857C26.6311 17.0552 34.0759 24.7481 41.4906 32.6993C42.128 33.3841 42.7546 34.1063 43.5464 35.0187C43.9919 35.5321 44.4896 36.1057 45.0709 36.7667Z" stroke="black"/>
</svg>
