<svg width="93" height="129" viewBox="0 0 93 129" fill="none" xmlns="http://www.w3.org/2000/svg">
<path d="M15.6343 118.671C17.9364 117.344 20.1353 116.026 22.2623 114.751C26.8499 112.001 31.1025 109.451 35.3318 107.444C43.1019 103.759 50.5487 98.0445 57.8962 91.15C67.6353 82.0096 75.7448 70.555 81.7355 56.3011C84.3815 50.0049 86.0539 43.7708 86.0783 37.7177C86.1032 31.6429 84.3794 29.5559 80.1293 29.4653C75.31 29.3662 70.5217 32.7287 66.0781 37.9602C60.4818 44.5458 55.0843 51.6266 49.7894 58.7939C41.185 68.3961 41.0473 51.3941 40.9469 38.9835C40.9149 35.0344 40.8867 31.5501 40.5907 29.5359C39.3485 21.6027 37.3233 14.3441 33.1521 9.57647C26.4518 1.91634 16.248 8.89103 11.6372 24.2971C6.48863 41.4972 5.67508 57.4827 7.2471 71.7967C8.48162 83.0316 10.6289 93.6003 12.8132 104.352C13.7711 109.066 14.736 113.815 15.6343 118.671ZM49.3947 47.2008C50.9984 45.4142 52.5264 43.7196 54.0005 42.0848C57.3165 38.4072 60.3596 35.0324 63.3763 31.595C69.4626 24.6627 75.4847 21.7643 81.543 21.702C91.7415 21.5908 94.9829 31.3048 91.447 46.8576C88.7327 58.7872 83.0333 69.2868 76.2943 79.1857C64.5447 96.4529 51.1534 106.471 37.2828 114.647C30.852 118.436 24.4201 122.336 17.9948 126.372C12.9944 129.514 11.8046 128.881 10.7683 122.956C9.9029 118.005 8.81004 113.223 7.53134 108.645C3.73223 95.0292 0.777041 80.6902 0.383945 64.404C0.0490044 50.5149 0.854164 36.0497 6.31906 20.3628C9.54802 11.1016 16.2966 2.97601 22.587 1.01706C30.2415 -1.36929 36.2992 0.477878 40.5231 6.96838C46.1724 15.6559 47.6626 28.1444 48.9404 40.8521C49.0493 41.9457 49.1215 43.0665 49.2127 44.4826C49.2641 45.2793 49.3214 46.1694 49.3947 47.2008Z" fill="#F11C61"/>
<path d="M15.6343 118.671C17.9364 117.344 20.1353 116.026 22.2623 114.751C26.8499 112.001 31.1025 109.451 35.3318 107.444C43.1019 103.759 50.5487 98.0445 57.8962 91.15C67.6353 82.0096 75.7448 70.555 81.7355 56.3011C84.3815 50.0049 86.0539 43.7708 86.0783 37.7177C86.1032 31.6429 84.3794 29.5559 80.1293 29.4653C75.31 29.3662 70.5217 32.7287 66.0781 37.9602C60.4818 44.5458 55.0843 51.6266 49.7894 58.7939C41.185 68.3961 41.0473 51.3941 40.9469 38.9835C40.9149 35.0344 40.8867 31.5501 40.5907 29.5359C39.3485 21.6027 37.3233 14.3441 33.1521 9.57647C26.4518 1.91634 16.248 8.89103 11.6372 24.2971C6.48863 41.4972 5.67508 57.4827 7.2471 71.7967C8.48162 83.0316 10.6289 93.6003 12.8132 104.352C13.7711 109.066 14.736 113.815 15.6343 118.671ZM49.3947 47.2008C50.9984 45.4142 52.5264 43.7196 54.0005 42.0848C57.3165 38.4072 60.3596 35.0324 63.3763 31.595C69.4626 24.6627 75.4847 21.7643 81.543 21.702C91.7415 21.5908 94.9829 31.3048 91.447 46.8576C88.7327 58.7872 83.0333 69.2868 76.2943 79.1857C64.5447 96.4529 51.1534 106.471 37.2828 114.647C30.852 118.436 24.4201 122.336 17.9948 126.372C12.9944 129.514 11.8046 128.881 10.7683 122.956C9.9029 118.005 8.81004 113.223 7.53134 108.645C3.73223 95.0292 0.777041 80.6902 0.383945 64.404C0.0490044 50.5149 0.854164 36.0497 6.31906 20.3628C9.54802 11.1016 16.2966 2.97601 22.587 1.01706C30.2415 -1.36929 36.2992 0.477878 40.5231 6.96838C46.1724 15.6559 47.6626 28.1444 48.9404 40.8521C49.0493 41.9457 49.1215 43.0665 49.2127 44.4826C49.2641 45.2793 49.3214 46.1694 49.3947 47.2008Z" stroke="black"/>
</svg>
