<svg xmlns="http://www.w3.org/2000/svg" width="20" height="20" viewBox="0 0 20 20" fill="currentColor">
   <path d="M19.3 6.633C19.1 4.485 17.1 2.843 14.7 2.537c-.4-.054-1.9-.258-5.1-.258h-.1c-3.2 0-4 .204-4.4.258-2.4.306-4.4 1.948-4.6 4.096-.1 1.071-.1 2.316-.1 3.458.1 1.563.1 3.121.2 4.675.1 1.037.3 2.062.5 3.071.5 1.869 2.3 3.415 4.2 4.05 1.9.66 4.1.77 6.1.306.1-.051.4-.102.6-.178.5-.153 1.1-.332 1.5-.637v-1.513c-.9.46-1.9.766-3 .919-2.6.357-3.5-.867-3.7-1.412a4.681 4.681 0 01-.3-1.207c1.3.306 2.7.46 4.1.46.3 0 .6 0 1-.011 1.3-.037 2.7-.105 4-.357 2-.383 3.8-1.615 4-4.675V9.755c0-.434.2-3.033 0-4.634l-.2.512zM16.2 14.3h-2.1V8.99c0-1.105-.5-1.666-1.4-1.666s-1.5.663-1.5 1.973v2.85h-2.1V9.297c0-1.31-.5-1.973-1.5-1.973-.9 0-1.4.561-1.4 1.666v5.31H4.1V8.837c0-1.105.3-1.973.8-2.621.6-.637 1.3-.969 2.3-.969 1.1 0 1.9.409 2.5 1.258l.5.867.5-.867c.6-.85 1.4-1.258 2.5-1.258 1 0 1.7.332 2.3.969.5.648.8 1.516.8 2.621V14.3h-.1z"/>
</svg>