<svg width="88" height="97" viewBox="0 0 88 97" fill="none" xmlns="http://www.w3.org/2000/svg">
<path d="M16.302 71V32.8182H26.3944V39.5547H26.8418C27.6373 37.3175 28.963 35.5526 30.8191 34.2599C32.6751 32.9673 34.8958 32.321 37.481 32.321C40.0994 32.321 42.3283 32.9756 44.1678 34.2848C46.0073 35.5774 47.2336 37.334 47.8468 39.5547H48.2445C49.0234 37.3672 50.432 35.6188 52.4703 34.3097C54.5253 32.9839 56.9531 32.321 59.7537 32.321C63.3167 32.321 66.2085 33.4562 68.4292 35.7266C70.6664 37.9803 71.785 41.1787 71.785 45.3217V71H61.2203V47.4098C61.2203 45.2886 60.6569 43.6977 59.53 42.6371C58.4031 41.5765 56.9945 41.0462 55.3042 41.0462C53.3818 41.0462 51.882 41.6593 50.8049 42.8857C49.7277 44.0954 49.1891 45.6946 49.1891 47.6832V71H38.9228V47.1861C38.9228 45.3134 38.3842 43.822 37.307 42.7116C36.2464 41.6013 34.8461 41.0462 33.106 41.0462C31.9294 41.0462 30.8688 41.3445 29.9242 41.9411C28.9962 42.5211 28.2587 43.3414 27.7118 44.402C27.165 45.446 26.8915 46.6723 26.8915 48.081V71H16.302Z" fill="black"/>
<line y1="1" x2="9" y2="1" stroke="black" stroke-width="2"/>
<line x1="1" y1="96" x2="9" y2="96" stroke="black" stroke-width="2"/>
<line x1="1" y1="97.0051" x2="1" y2="0.999924" stroke="black" stroke-width="2"/>
<line y1="-1" x2="9" y2="-1" transform="matrix(-1 0 0 1 88 2)" stroke="black" stroke-width="2"/>
<line y1="-1" x2="8" y2="-1" transform="matrix(-1 0 0 1 87 97)" stroke="black" stroke-width="2"/>
<line y1="-1" x2="96.0052" y2="-1" transform="matrix(0 -1 -1 0 86 97.0051)" stroke="black" stroke-width="2"/>
</svg>
