<svg width="100" height="100" viewBox="0 0 100 100" fill="none" xmlns="http://www.w3.org/2000/svg">
<path d="M91.6666 49.9999C91.6666 26.9999 73 8.33325 50 8.33325C27 8.33325 8.33331 26.9999 8.33331 49.9999C8.33331 72.9999 27 91.6666 50 91.6666" stroke="black" stroke-width="3.5" stroke-linecap="round" stroke-linejoin="round"/>
<path d="M33.3333 12.5H37.5C29.375 36.8333 29.375 63.1667 37.5 87.5H33.3333" stroke="black" stroke-width="3.5" stroke-linecap="round" stroke-linejoin="round"/>
<path d="M62.5 12.5C66.5417 24.6667 68.5834 37.3333 68.5834 50" stroke="black" stroke-width="3.5" stroke-linecap="round" stroke-linejoin="round"/>
<path d="M12.5 66.6667V62.5C24.6667 66.5417 37.3333 68.5834 50 68.5834" stroke="black" stroke-width="3.5" stroke-linecap="round" stroke-linejoin="round"/>
<path d="M12.5 37.4998C36.8333 29.3748 63.1667 29.3748 87.5 37.4998" stroke="black" stroke-width="3.5" stroke-linecap="round" stroke-linejoin="round"/>
<path d="M80.0418 65.5834L65.2917 80.3336C64.7084 80.9169 64.1667 82.0001 64.0417 82.7918L63.25 88.4167C62.9584 90.4583 64.3751 91.875 66.4167 91.5834L72.0417 90.7917C72.8334 90.6667 73.9584 90.1251 74.5001 89.5417L89.25 74.7918C91.7917 72.2502 93 69.2917 89.25 65.5417C85.5417 61.8334 82.5834 63.0417 80.0418 65.5834Z" stroke="black" stroke-width="3.5" stroke-miterlimit="10" stroke-linecap="round" stroke-linejoin="round"/>
<path d="M77.9167 67.7083C79.1667 72.2083 82.6667 75.7081 87.1667 76.9581" stroke="black" stroke-width="3.5" stroke-miterlimit="10" stroke-linecap="round" stroke-linejoin="round"/>
</svg>
