<svg width="205" height="256" viewBox="0 0 205 256" fill="none" xmlns="http://www.w3.org/2000/svg">
<g clip-path="url(#clip0_912_765)">
<path d="M122.438 135.257C118.205 135.316 123.238 137.443 128.764 138.296C130.29 137.101 131.675 135.892 132.909 134.717C129.468 135.562 125.966 135.581 122.438 135.257Z" fill="#A80030"/>
<path d="M145.154 129.583C147.674 126.096 149.511 122.279 150.159 118.332C149.594 121.146 148.07 123.575 146.635 126.139C138.724 131.131 145.891 123.174 146.631 120.15C138.124 130.881 145.463 126.585 145.154 129.583Z" fill="#A80030"/>
<path d="M153.54 107.714C154.051 100.075 152.039 102.49 151.363 105.405C152.152 105.816 152.776 110.79 153.54 107.714Z" fill="#A80030"/>
<path d="M106.391 3.30273C108.649 3.70877 111.271 4.02037 110.903 4.56096C113.374 4.01801 113.934 3.51755 106.391 3.30273Z" fill="#A80030"/>
<path d="M110.902 4.56055L109.305 4.89104L110.791 4.75884L110.902 4.56055Z" fill="#A80030"/>
<path d="M181.332 110.61C181.584 117.47 179.33 120.798 177.297 126.69L173.64 128.522C170.646 134.348 173.929 132.221 171.786 136.855C167.113 141.02 157.605 149.886 154.562 150.696C152.341 150.646 156.067 148.068 156.555 147.058C150.3 151.364 151.536 153.522 141.969 156.137L141.689 155.514C118.094 166.64 85.3192 144.591 85.7502 114.507C85.4982 116.417 85.0343 115.94 84.5114 116.712C83.2938 101.233 91.643 85.6861 105.725 79.3383C119.498 72.5043 135.645 75.3087 145.511 84.5246C140.092 77.4097 129.305 69.8674 116.521 70.5732C103.998 70.7715 92.2836 78.7482 88.3739 87.407C81.9583 91.4555 81.2141 103.013 78.4185 105.128C74.6572 132.835 85.4935 144.806 103.824 158.887C106.709 160.837 104.637 161.132 105.028 162.617C98.9371 159.758 93.3599 155.443 88.7743 150.16C91.2073 153.729 93.8333 157.199 97.2272 159.926C91.4852 157.976 83.8143 145.979 81.5745 145.491C91.4734 163.254 121.736 176.644 137.581 170.001C130.25 170.273 120.935 170.152 112.696 167.1C109.236 165.315 104.531 161.619 105.372 160.927C126.997 169.024 149.336 167.06 168.048 152.025C172.808 148.309 178.009 141.987 179.511 141.9C177.248 145.311 179.897 143.541 178.159 146.553C182.903 138.886 176.099 143.432 183.063 133.312L185.635 136.862C184.679 130.498 193.52 122.769 192.623 112.704C194.651 109.625 194.886 116.016 192.733 123.098C195.72 115.241 193.52 113.978 194.288 107.496C195.117 109.675 196.205 111.991 196.763 114.29C194.818 106.698 198.76 101.505 199.735 97.0927C198.774 96.6654 196.733 100.45 196.266 91.4815C196.334 87.5864 197.347 89.4395 197.738 88.4811C196.975 88.042 194.973 85.0558 193.756 79.3289C194.639 77.9833 196.115 82.8179 197.317 83.0162C196.544 78.4625 195.213 74.99 195.159 71.4963C191.65 64.1452 193.918 72.4759 191.071 68.3401C187.335 56.662 194.17 65.6301 194.632 60.3233C200.294 68.5455 203.523 81.2882 205.004 86.5666C203.874 80.1315 202.046 73.897 199.815 67.8656C201.535 68.5903 197.046 54.6247 202.051 63.8737C196.704 44.1576 179.17 25.7352 163.039 17.0905C165.013 18.9011 167.504 21.1744 166.609 21.5309C158.588 16.7435 159.998 16.3705 158.849 14.3474C152.313 11.6823 151.885 14.5623 147.556 14.3522C135.238 7.80373 132.864 8.50012 121.528 4.39732L122.044 6.81226C113.883 4.08808 112.536 7.84622 103.716 6.8217C103.179 6.40151 106.542 5.30145 109.309 4.89778C101.419 5.94118 101.789 3.33975 94.0689 5.18578C95.9719 3.84729 97.9832 2.96205 100.013 1.82422C93.579 2.21609 84.6527 5.57764 87.4083 2.52061C76.9135 7.21357 58.2743 13.8021 47.8148 23.6318L47.4851 21.4294C42.6923 27.1964 26.585 38.6526 25.3014 46.1217L24.0201 46.4215C21.526 50.6541 19.9126 55.451 17.9343 59.8063C14.6723 65.3775 13.1532 61.9498 13.6172 62.8233C7.20156 75.8611 4.01496 86.8168 1.26172 95.8014C3.22361 98.7404 1.30882 113.494 2.05071 125.302C-1.17122 183.62 42.8854 240.242 91.0424 253.315C98.101 255.846 108.598 255.749 117.527 256.009C106.992 252.99 105.631 254.408 95.3689 250.823C87.9665 247.329 86.3438 243.339 81.1011 238.779L83.176 242.454C72.8931 238.807 77.1961 237.941 68.8304 235.285L71.0467 232.384C67.714 232.131 62.2193 226.753 60.7167 223.777L57.0708 223.921C52.6901 218.503 50.3561 214.598 50.5257 211.574L49.3481 213.678C48.0127 211.381 33.2314 193.36 40.8999 197.555C39.475 196.249 37.5814 195.43 35.5277 191.691L37.0892 189.901C33.3986 185.142 30.2968 179.042 30.5323 177.01C32.5012 179.675 33.8673 180.173 35.2192 180.629C25.8996 157.452 25.3767 179.352 18.3182 157.037L19.8114 156.916C18.6667 155.188 17.9719 153.311 17.0511 151.47L17.7011 144.978C10.9911 137.202 15.824 111.915 16.792 98.0464C17.4632 92.4068 22.3927 86.4037 26.1422 76.9895L23.8576 76.5952C28.2242 68.9609 48.7899 45.9352 58.3144 47.1202C62.9282 41.3107 57.3982 47.099 56.4962 45.6354C66.6306 35.1235 69.8172 38.2088 76.6568 36.3179C84.0333 31.9295 70.326 38.0294 73.8234 34.6442C86.5746 31.3795 82.8604 27.2224 99.4953 25.5652C101.25 26.5661 95.4231 27.1114 93.9605 28.4098C104.585 23.1998 127.581 24.3849 142.518 31.3016C159.85 39.4198 179.323 63.4181 180.091 85.9977L180.964 86.2338C180.522 95.2089 182.335 105.589 179.193 115.123L181.332 110.61Z" fill="#A80030"/>
<path d="M76.2439 141.082L75.6504 144.056C78.4319 147.843 80.6387 151.946 84.1904 154.906C81.635 149.906 79.7367 147.841 76.2439 141.082Z" fill="#A80030"/>
<path d="M82.8185 140.822C81.3465 139.191 80.4751 137.227 79.5 135.27C80.4327 138.709 82.3427 141.665 84.1209 144.67L82.8185 140.822Z" fill="#A80030"/>
<path d="M199.176 115.473L198.554 117.035C197.414 125.151 194.953 133.182 191.18 140.628C195.348 132.771 198.045 124.179 199.176 115.473Z" fill="#A80030"/>
<path d="M107.226 1.26767C110.087 0.217179 114.261 0.691669 117.297 0C113.34 0.332851 109.402 0.531145 105.514 1.03396L107.226 1.26767Z" fill="#A80030"/>
<path d="M6.76381 54.8125C7.42327 60.9313 2.17114 63.3061 7.92728 59.2718C11.0126 52.3055 6.72141 57.3478 6.76381 54.8125Z" fill="#A80030"/>
<path d="M2.48206e-05 83.1304C1.32601 79.0512 1.56624 76.6009 2.07261 74.2402C-1.5921 78.9356 0.38628 79.9365 2.48206e-05 83.1304Z" fill="#A80030"/>
</g>
<defs>
<clipPath id="clip0_912_765">
<rect width="205" height="256" fill="white"/>
</clipPath>
</defs>
</svg>
