<svg width="253" height="253" viewBox="0 0 253 253" fill="none" xmlns="http://www.w3.org/2000/svg">
<path d="M200.294 168.667V68.5208C200.294 56.925 190.807 47.4375 179.211 47.4375H131.773" stroke="#276CF3" stroke-width="8.5" stroke-linecap="round" stroke-linejoin="round"/>
<path d="M158.125 21.0835L126.5 47.4377L158.125 73.7918" stroke="#276CF3" stroke-width="8.5" stroke-linecap="round" stroke-linejoin="round"/>
<path d="M52.7109 94.875V168.667" stroke="#276CF3" stroke-width="8.5" stroke-linecap="round" stroke-linejoin="round"/>
<path d="M55.3464 89.6043C74.2679 89.6043 89.6068 74.2654 89.6068 55.3439C89.6068 36.4224 74.2679 21.0835 55.3464 21.0835C36.4248 21.0835 21.0859 36.4224 21.0859 55.3439C21.0859 74.2654 36.4248 89.6043 55.3464 89.6043Z" stroke="#276CF3" stroke-width="8.5" stroke-linecap="round" stroke-linejoin="round"/>
<path d="M52.7109 231.917C70.1769 231.917 84.3359 217.758 84.3359 200.292C84.3359 182.825 70.1769 168.667 52.7109 168.667C35.2449 168.667 21.0859 182.825 21.0859 200.292C21.0859 217.758 35.2449 231.917 52.7109 231.917Z" stroke="#276CF3" stroke-width="8.5" stroke-linecap="round" stroke-linejoin="round"/>
<path d="M200.289 231.917C217.755 231.917 231.914 217.758 231.914 200.292C231.914 182.825 217.755 168.667 200.289 168.667C182.823 168.667 168.664 182.825 168.664 200.292C168.664 217.758 182.823 231.917 200.289 231.917Z" stroke="#276CF3" stroke-width="8.5" stroke-linecap="round" stroke-linejoin="round"/>
</svg>
