<svg width="256" height="256" viewBox="0 0 256 256" fill="none" xmlns="http://www.w3.org/2000/svg">
<g clip-path="url(#clip0_910_728)">
<path d="M256.003 128.006C256.003 57.3107 198.693 0 128 0C57.3367 0 0.0500006 57.2627 0 127.916V226.971C0.0380004 243.013 13.0492 256 29.1013 256H128.052C198.722 255.972 256.003 198.681 256.003 128.006Z" fill="#294172"/>
<path d="M165.584 30.3086C132.474 30.3086 105.538 57.2439 105.538 90.3543V122.225H73.7996C40.6902 122.225 13.7539 149.162 13.7539 182.271C13.7539 215.38 40.6902 242.317 73.7996 242.317C106.909 242.317 133.845 215.38 133.845 182.271V150.4H165.584C198.693 150.4 225.63 123.464 225.63 90.3543C225.63 57.2439 198.693 30.3086 165.584 30.3086ZM105.76 182.271C105.76 199.894 91.4228 214.231 73.7996 214.231C56.1764 214.231 41.8392 199.894 41.8392 182.271C41.8392 164.648 56.1764 150.311 73.7996 150.311H105.538V150.4H105.76V182.271ZM165.584 122.315H133.845V122.225H133.624V90.3543C133.624 72.7311 147.961 58.3939 165.584 58.3939C183.206 58.3939 197.544 72.7311 197.544 90.3543C197.544 107.977 183.206 122.315 165.584 122.315Z" fill="#3C6EB4"/>
<path d="M178.852 32.1298C174.192 30.9118 170.614 30.3438 165.581 30.3438C132.404 30.3438 105.505 57.2431 105.505 90.4185V122.261H80.3451C72.5 122.261 66.1599 128.426 66.1649 136.257C66.1649 144.039 72.435 150.23 80.1971 150.23L101.028 150.234C103.501 150.234 105.507 152.234 105.507 154.703V182.257C105.476 199.748 91.2882 213.916 73.797 213.916C67.872 213.916 66.4049 213.14 62.3599 213.14C53.8628 213.14 48.1777 218.836 48.1777 226.668C48.1797 233.147 53.7318 238.717 60.5259 240.495C65.1859 241.713 68.764 242.282 73.797 242.282C106.974 242.282 133.873 215.383 133.873 182.207V150.365H159.033C166.878 150.365 173.218 144.2 173.213 136.369C173.213 128.586 166.943 122.396 159.181 122.396L138.35 122.392C135.877 122.392 133.871 120.391 133.871 117.922V90.3684C133.902 72.8772 148.09 58.7091 165.581 58.7091C171.506 58.7091 172.973 59.4861 177.018 59.4861C185.515 59.4861 191.2 53.789 191.2 45.9579C191.198 39.4779 185.646 33.9078 178.852 32.1298Z" fill="white"/>
</g>
<defs>
<clipPath id="clip0_910_728">
<rect width="256" height="256" fill="white"/>
</clipPath>
</defs>
</svg>
