<svg width="225" height="263" viewBox="0 0 225 263" fill="none" xmlns="http://www.w3.org/2000/svg">
<path d="M217.647 211.167C209.934 208.008 206.635 203.817 206.954 197.563C207.283 190.262 203.141 184.915 201.174 182.803C202.362 178.263 205.835 162.561 201.177 148.922C196.173 134.323 180.893 112.027 165.126 90.1096C158.672 81.1089 158.367 71.3252 158.014 59.9963C157.676 49.1908 157.295 36.9427 151.269 23.327C144.717 8.50142 131.571 0 115.198 0C105.459 0 95.4611 3.04392 87.7677 8.35052C72.0135 19.2233 74.0959 42.9288 75.4739 58.6149C75.6627 60.7629 75.8403 62.7919 75.9438 64.5242C76.8613 79.887 76.0266 87.984 74.9349 90.445C74.2287 92.0532 70.7519 96.6303 67.0725 101.476C63.2671 106.488 58.9531 112.169 55.4168 117.463C51.1975 123.832 47.7914 133.569 44.4974 142.984C42.0873 149.874 39.8108 156.382 37.5947 160.271C33.3945 167.752 34.4396 174.728 35.3122 177.952C33.7221 179.057 31.425 181.231 29.4856 185.331C27.1419 190.332 22.3863 193.02 12.4975 194.921C7.95313 195.851 4.81953 197.762 3.18116 200.6C0.796894 204.732 2.09552 209.923 3.28032 213.47C5.03079 218.686 3.93998 221.986 1.95669 227.979C1.49967 229.363 0.981427 230.928 0.456285 232.656C-0.370661 235.381 -0.0723042 237.86 1.34101 240.021C5.07563 245.731 15.9734 247.744 27.1919 249.069C33.8903 249.864 41.2216 252.543 48.3123 255.135C55.2598 257.674 62.4436 260.299 68.9738 261.096C69.9664 261.221 70.9494 261.284 71.897 261.284C81.7566 261.284 86.2112 254.742 87.6237 252.054C91.1652 251.331 103.38 249.017 115.968 248.707C128.537 248.348 140.698 250.829 144.143 251.601C145.226 253.674 148.081 258.409 152.633 260.849C155.134 262.216 158.615 263 162.181 263H162.182C165.99 263 173.234 262.1 178.967 256.068C184.686 250.008 198.974 242.271 209.408 236.622C211.736 235.362 213.915 234.182 215.825 233.117C221.686 229.868 224.884 225.225 224.598 220.38C224.36 216.356 221.697 212.825 217.647 211.167ZM87.8962 210C87.1667 204.861 80.5554 199.764 72.899 193.862C66.6387 189.036 59.5429 183.567 57.588 178.934C53.5481 169.378 56.7326 152.576 62.285 143.923C65.0288 139.591 67.2699 133.021 69.4378 126.668C71.778 119.807 74.1985 112.714 76.9053 109.609C81.1918 104.761 85.1532 95.3282 85.8551 87.8943C89.8691 91.7264 96.0958 96.5889 101.848 96.5889C102.734 96.5889 103.593 96.4733 104.415 96.2414C108.351 95.1049 114.139 91.76 119.737 88.5264C124.564 85.7377 130.515 82.2988 132.755 81.9858C136.595 87.4994 158.907 136.876 161.187 152.732C162.991 165.279 161.085 175.651 160.127 179.713C159.356 179.608 158.437 179.522 157.471 179.522C151.256 179.522 149.611 182.915 149.182 184.94C148.08 190.203 147.964 207.031 147.952 210.812C145.705 213.667 134.341 227.112 118.025 229.529C111.379 230.495 105.173 230.984 99.5803 230.984C94.7998 230.984 91.7489 230.615 90.4822 230.423L82.2835 221.042C85.5162 219.446 88.7481 216.078 87.8962 210ZM98.2998 55.3157C98.0437 55.4261 97.7919 55.5442 97.5445 55.6701C97.5195 55.1148 97.4617 54.5517 97.3729 53.9869C96.4778 48.8347 93.0614 45.0949 89.2509 45.0949C88.9689 45.0949 88.6852 45.1164 88.3739 45.1639C86.1069 45.5416 84.3288 47.2446 83.3544 49.659C84.209 44.3611 87.2106 40.4385 90.7719 40.4385C94.9541 40.4385 98.4869 46.0745 98.4869 52.7452C98.4869 53.586 98.4257 54.4224 98.2998 55.3157ZM130.797 59.2883C131.179 58.0691 131.386 56.7497 131.386 55.3804C131.386 49.3322 127.549 44.5939 122.65 44.5939C117.863 44.5939 113.968 49.4323 113.968 55.3804C113.968 55.7857 113.988 56.1918 114.026 56.5971C113.772 56.4997 113.525 56.4048 113.283 56.3134C112.732 54.6449 112.454 52.9039 112.454 51.1267C112.454 43.8946 117.076 38.0102 122.758 38.0102C128.44 38.0102 133.063 43.8946 133.063 51.1267C133.063 54.1352 132.232 57.0067 130.797 59.2883ZM126.607 73.3645C126.525 73.7302 126.35 73.8923 124.424 74.8943C123.451 75.4004 122.241 76.0308 120.726 76.9534L119.713 77.5665C115.645 80.0327 106.119 85.8093 103.533 86.1482C101.777 86.3844 100.69 85.7032 98.2472 84.0433C97.6962 83.6682 97.1099 83.2698 96.4847 82.8688C92.0809 79.9793 89.2483 76.7965 88.9284 75.5522C90.3641 74.4424 93.9228 71.665 95.7448 70.0205C99.4432 66.5817 103.165 64.2707 105.007 64.2707C105.104 64.2707 105.192 64.2776 105.284 64.2949C107.448 64.6769 112.786 66.8076 116.686 68.3632C118.488 69.0824 120.044 69.7032 121.14 70.0964C124.59 71.2812 126.388 72.7972 126.607 73.3645ZM157.604 234.072C159.55 225.292 161.792 213.35 161.429 206.309C161.345 204.709 161.204 202.968 161.067 201.285C160.811 198.138 160.43 193.46 160.823 192.072C160.9 192.036 160.987 192.005 161.082 191.978C161.099 196.004 161.973 204.032 168.394 206.832C170.307 207.667 172.494 208.09 174.893 208.09C181.325 208.09 188.461 204.934 191.384 202.011C193.105 200.29 194.553 198.184 195.567 196.517C195.789 197.166 195.925 198.014 195.854 199.108C195.472 205.045 198.357 212.921 203.848 215.824L204.647 216.243C206.603 217.27 211.798 219.997 211.881 221.291C211.881 221.291 211.837 221.443 211.548 221.712C210.246 222.901 205.667 225.24 201.238 227.502C193.381 231.513 184.476 236.06 180.477 240.266C174.846 246.192 168.477 250.172 164.631 250.172C164.168 250.172 163.747 250.114 163.372 249.995C159.195 248.693 155.757 242.666 157.604 234.072ZM15.2284 211.675C14.8024 209.681 14.4661 208.108 14.8274 206.583C15.0895 205.454 20.666 204.243 23.0477 203.726C26.396 202.999 29.859 202.248 32.1234 200.874C35.1854 199.019 36.8437 195.598 38.3061 192.58C39.365 190.398 40.4584 188.141 41.7596 187.4C41.8329 187.357 41.945 187.307 42.1589 187.307C44.5966 187.307 49.7118 192.432 52.6591 197.018C53.4067 198.175 54.7916 200.492 56.3937 203.174C61.1855 211.192 67.7468 222.174 71.1736 225.854C74.2615 229.162 79.2602 235.524 78.0306 240.979C77.1304 245.212 72.3377 248.655 71.2072 249.416C70.7967 249.509 70.2889 249.557 69.6913 249.557C63.1326 249.557 50.1498 244.1 43.1747 241.168L42.1425 240.735C38.2475 239.101 31.8889 238.073 25.7398 237.078C20.8471 236.285 14.147 235.201 13.0364 234.222C12.1362 233.212 13.1804 229.929 14.1013 227.033C14.7644 224.951 15.4491 222.799 15.8242 220.545C16.3563 216.951 15.7302 214.026 15.2284 211.675Z" fill="#276CF3"/>
</svg>
