<svg width="297" height="297" viewBox="0 0 297 297" fill="none" xmlns="http://www.w3.org/2000/svg">
<path d="M113.355 134.516C112.117 134.392 110.632 134.392 109.271 134.516C79.8184 133.526 56.4297 109.395 56.4297 79.695C56.4297 49.3763 80.9322 24.75 111.375 24.75C141.693 24.75 166.32 49.3763 166.32 79.695C166.196 109.395 142.807 133.526 113.355 134.516Z" stroke="#276CF3" stroke-width="9.5" stroke-linecap="round" stroke-linejoin="round"/>
<path d="M203.077 49.5C227.085 49.5 246.39 68.9288 246.39 92.8125C246.39 116.201 227.827 135.259 204.686 136.125C203.696 136.001 202.582 136.001 201.469 136.125" stroke="#276CF3" stroke-width="9.5" stroke-linecap="round" stroke-linejoin="round"/>
<path d="M51.4763 180.18C21.5287 200.228 21.5287 232.897 51.4763 252.821C85.5075 275.591 141.319 275.591 175.35 252.821C205.298 232.774 205.298 200.104 175.35 180.18C141.443 157.534 85.6313 157.534 51.4763 180.18Z" stroke="#276CF3" stroke-width="9.5" stroke-linecap="round" stroke-linejoin="round"/>
<path d="M226.961 247.5C235.871 245.644 244.286 242.055 251.216 236.734C270.521 222.255 270.521 198.371 251.216 183.892C244.41 178.695 236.118 175.23 227.332 173.25" stroke="#276CF3" stroke-width="9.5" stroke-linecap="round" stroke-linejoin="round"/>
</svg>
