<svg width="205" height="256" viewBox="0 0 205 256" fill="none" xmlns="http://www.w3.org/2000/svg">
<path d="M58.2969 0.0179144C58.0767 0.0578866 57.8564 0.117845 57.6562 0.177803C55.9746 0.55754 54.5933 1.73672 53.9727 3.3556C53.352 4.97447 53.5923 6.77322 54.6133 8.17225L65.5039 24.4809C47.0659 34.1542 33.833 50.8426 30.75 70.6888C30.75 70.7488 30.75 70.7887 30.75 70.8487C30.75 70.9086 30.75 70.9486 30.75 71.0086C30.75 71.1685 30.75 71.3284 30.75 71.4882C30.75 71.5882 30.75 71.7081 30.75 71.808C30.73 72.0678 30.73 72.3476 30.75 72.6075V79.8025C27.707 78.0237 24.2637 76.9245 20.5 76.9245C9.229 76.9245 0 86.1381 0 97.3902V158.788C0 170.04 9.229 179.253 20.5 179.253C24.2637 179.253 27.707 178.154 30.75 176.375V189.486C30.75 197.9 37.6968 204.836 46.125 204.836H51.25V235.534C51.25 246.786 60.479 256 71.75 256C83.021 256 92.25 246.786 92.25 235.534V204.836H112.75V235.534C112.75 246.786 121.979 256 133.25 256C144.521 256 153.75 246.786 153.75 235.534V204.836H158.875C167.303 204.836 174.25 197.9 174.25 189.486V176.375C177.293 178.154 180.736 179.253 184.5 179.253C195.771 179.253 205 170.04 205 158.788V97.3902C205 86.1381 195.771 76.9245 184.5 76.9245C180.736 76.9245 177.293 78.0237 174.25 79.8025V72.7673C174.31 72.2877 174.31 71.808 174.25 71.3284C174.25 71.2684 174.25 71.2284 174.25 71.1685C174.25 71.1085 174.25 71.0685 174.25 71.0086C171.267 51.0225 158.034 34.1942 139.496 24.4809L150.387 8.17225C151.648 6.45344 151.688 4.13506 150.507 2.35629C149.346 0.577525 147.184 -0.301863 145.102 0.177803C143.78 0.477595 142.619 1.27704 141.898 2.41625L129.887 20.1639C121.438 17.126 112.149 15.5271 102.5 15.5271C92.8506 15.5271 83.5615 17.126 75.1133 20.1639L63.1016 2.41625C62.0806 0.777389 60.2188 -0.141974 58.2969 0.0179144ZM102.5 25.76C112.129 25.76 121.158 27.6387 129.086 31.0364C129.246 31.0963 129.406 31.1563 129.566 31.1962C145.602 38.2114 157.273 51.3422 161.758 66.6916H43.2422C47.6665 51.5621 59.0977 38.5911 74.793 31.516C75.1333 31.3961 75.4536 31.2362 75.7539 31.0364C83.7217 27.5987 92.8105 25.76 102.5 25.76ZM74.3125 41.1094C70.0483 41.1094 66.625 44.547 66.625 48.784C66.625 53.0411 70.0483 56.4587 74.3125 56.4587C78.5566 56.4587 82 53.0411 82 48.784C82 44.547 78.5566 41.1094 74.3125 41.1094ZM130.688 41.1094C126.443 41.1094 123 44.547 123 48.784C123 53.0411 126.443 56.4587 130.688 56.4587C134.952 56.4587 138.375 53.0411 138.375 48.784C138.375 44.547 134.952 41.1094 130.688 41.1094ZM41 76.9245H164V189.486C164 192.364 161.758 194.603 158.875 194.603H118.836C118.155 194.463 117.435 194.463 116.754 194.603H57.3359C56.6553 194.463 55.9346 194.463 55.2539 194.603H46.125C43.2422 194.603 41 192.364 41 189.486V76.9245ZM20.5 87.1574C26.2256 87.1574 30.75 91.6742 30.75 97.3902V158.788C30.75 164.504 26.2256 169.02 20.5 169.02C14.7744 169.02 10.25 164.504 10.25 158.788V97.3902C10.25 91.6742 14.7744 87.1574 20.5 87.1574ZM184.5 87.1574C190.226 87.1574 194.75 91.6742 194.75 97.3902V158.788C194.75 164.504 190.226 169.02 184.5 169.02C178.774 169.02 174.25 164.504 174.25 158.788V97.3902C174.25 91.6742 178.774 87.1574 184.5 87.1574ZM61.5 204.836H82V235.534C82 241.25 77.4756 245.767 71.75 245.767C66.0244 245.767 61.5 241.25 61.5 235.534V204.836ZM123 204.836H143.5V235.534C143.5 241.25 138.976 245.767 133.25 245.767C127.524 245.767 123 241.25 123 235.534V204.836Z" fill="#276CF3"/>
</svg>
