<svg width="269" height="269" viewBox="0 0 269 269" fill="none" xmlns="http://www.w3.org/2000/svg">
<path d="M73.4969 0.299805C33.1425 0.299805 0.296875 33.1455 0.296875 73.4998V195.5C0.296875 235.854 33.1425 268.7 73.4969 268.7H195.497C235.851 268.7 268.697 235.854 268.697 195.5V73.4998C268.697 33.1455 235.851 0.299805 195.497 0.299805H73.4969ZM73.4969 12.4998H195.497C229.258 12.4998 256.497 39.7391 256.497 73.4998V195.5C256.497 229.26 229.258 256.5 195.497 256.5H73.4969C39.7362 256.5 12.4969 229.26 12.4969 195.5V73.4998C12.4969 39.7391 39.7362 12.4998 73.4969 12.4998ZM52.8498 92.2049C48.5615 92.2049 45.4035 95.2619 45.4035 99.2818C45.4035 103.247 48.5615 106.299 52.8498 106.299C57.1381 106.299 60.308 103.247 60.308 99.2818C60.308 95.2619 57.1381 92.2049 52.8498 92.2049ZM116.423 95.6838C94.2253 95.6838 80.2879 111.23 80.2879 136.215C80.2879 161.146 93.9569 176.795 116.423 176.795C138.835 176.795 152.451 161.091 152.451 136.215C152.451 111.285 138.725 95.6899 116.423 95.6838ZM195.294 95.6838C178.41 95.6838 167.141 104.85 167.141 118.63C167.141 129.995 173.521 136.758 187.514 140.028L197.487 142.446C207.728 144.856 212.236 148.39 212.236 154.289C212.236 161.152 205.159 166.132 195.509 166.132C185.169 166.132 177.983 161.472 176.959 154.134H165.045C165.905 167.969 177.426 176.807 194.579 176.807C212.916 176.807 224.388 167.539 224.388 152.74C224.388 141.108 217.85 134.67 201.978 130.973L193.46 128.876C183.382 126.516 179.306 123.353 179.306 117.832C179.306 110.86 185.636 106.311 195.128 106.311C204.137 106.311 210.345 110.749 211.474 117.88H223.161C222.466 104.85 211.002 95.6838 195.294 95.6838ZM116.423 106.883C131.118 106.883 140.18 118.257 140.18 136.215C140.18 154.064 131.112 165.596 116.423 165.596C101.576 165.596 92.5713 154.07 92.5713 136.215C92.5713 118.257 101.838 106.889 116.423 106.883ZM47.1191 116.545V174.924H58.5924V116.545H47.1191Z" fill="#276CF3"/>
</svg>
