<svg width="269" height="269" viewBox="0 0 269 269" fill="none" xmlns="http://www.w3.org/2000/svg">
<g clip-path="url(#clip0_864_422)">
<path d="M179.554 0.000176553C164.297 1.02994 147.968 10.1087 137.859 22.3608C129.012 33.1418 121.593 48.9666 124.409 65.4008C121.888 64.6232 119.597 64.5392 116.844 63.5514C109.341 60.8824 100.767 58.0033 90.1119 58.0033C68.9492 58.0033 47.2821 70.5917 33.6219 91.6283C13.7411 122.185 17.7341 175.964 47.9125 221.925C53.2295 229.995 59.4291 238.801 67.0788 245.799C74.7285 252.797 83.9753 258.135 94.8194 258.24C104.087 258.345 110.539 255.256 116.339 252.692C122.14 250.128 127.541 247.858 137.691 247.816C137.754 247.816 137.796 247.816 137.859 247.816C147.968 247.732 153.201 249.96 158.875 252.524C164.549 255.088 170.938 258.324 180.227 258.24C191.281 258.156 200.675 252.104 208.472 244.622C216.269 237.141 222.678 227.957 227.974 219.908C235.561 208.349 238.608 202.044 244.451 189.141C245.06 187.796 245.081 186.241 244.493 184.875C243.925 183.509 242.811 182.437 241.424 181.911C222.3 174.682 211.393 157.764 209.817 139.88C208.241 121.996 215.806 103.586 234.868 93.1414C236.276 92.3849 237.263 91.0609 237.6 89.5057C237.915 87.9506 237.537 86.3114 236.549 85.0714C222.868 68.0698 203.617 58.0033 184.766 58.0033C172.745 58.0033 163.919 60.8404 156.689 63.5514C155.492 64.0138 154.609 63.9717 153.495 64.3921C160.829 60.5252 167.302 55.1662 172.157 48.9246C180.983 37.5971 187.793 21.4782 185.271 4.53955C184.85 1.76549 182.349 -0.20998 179.554 0.000176553ZM173.838 12.7777C173.481 23.6428 169.761 34.2767 163.583 42.1996C157.11 50.5217 146.224 56.28 135.674 58.0033C135.863 47.5585 139.982 36.7355 146.266 29.0858C152.865 21.0999 163.793 15.3416 173.838 12.7777ZM90.1119 68.7633C98.7914 68.7633 105.748 71.012 113.145 73.6389C120.543 76.2659 128.339 79.3552 137.523 79.3552C146.497 79.3552 153.6 76.2449 160.556 73.6389C167.512 71.033 174.448 68.7633 184.766 68.7633C198.237 68.7633 212.801 75.7615 224.276 87.9296C205.908 100.896 197.313 121.113 199.057 140.721C200.801 160.539 212.738 179.348 232.346 189.141C228.101 198.388 225.305 204.503 219.064 214.023C213.915 221.862 207.799 230.437 201.074 236.888C194.349 243.34 187.225 247.417 180.059 247.48C173.145 247.543 169.215 245.484 163.246 242.773C157.278 240.062 149.565 236.951 137.691 237.056C125.838 237.119 118.021 240.104 111.968 242.773C105.916 245.442 101.944 247.543 94.9875 247.48C87.6321 247.417 80.802 243.844 74.3082 237.897C67.8143 231.95 61.951 223.838 56.8232 216.041C28.5782 173.001 26.3085 122.437 42.5325 97.5127C54.4274 79.2081 73.3204 68.7633 90.1119 68.7633Z" fill="#276CF3"/>
</g>
<defs>
<clipPath id="clip0_864_422">
<rect width="269" height="269" fill="white"/>
</clipPath>
</defs>
</svg>
