<svg width="307" height="307" viewBox="0 0 307 307" fill="none" xmlns="http://www.w3.org/2000/svg">
<path d="M281.419 214.132V59.7371C281.419 44.3871 268.883 33.0025 253.661 34.2817H252.894C226.031 36.5842 185.226 50.2712 162.457 64.5979L160.282 66.005C156.573 68.3075 150.433 68.3075 146.723 66.005L143.525 64.0862C120.756 49.8875 80.0784 36.3283 53.2159 34.1537C37.9939 32.8746 25.5859 44.3871 25.5859 59.6092V214.132C25.5859 226.412 35.5634 237.925 47.8434 239.46L51.553 239.972C79.3109 243.681 122.163 257.752 146.723 271.183L147.235 271.439C150.688 273.358 156.189 273.358 159.515 271.439C184.075 257.88 227.055 243.681 254.941 239.972L259.162 239.46C271.442 237.925 281.419 226.412 281.419 214.132Z" stroke="#276CF3" stroke-width="8.5" stroke-linecap="round" stroke-linejoin="round"/>
<path d="M153.5 70.2261V262.101" stroke="#276CF3" stroke-width="8.5" stroke-linecap="round" stroke-linejoin="round"/>
<path d="M99.1328 108.601H70.3516" stroke="#276CF3" stroke-width="8.5" stroke-linecap="round" stroke-linejoin="round"/>
<path d="M108.727 146.976H70.3516" stroke="#276CF3" stroke-width="8.5" stroke-linecap="round" stroke-linejoin="round"/>
</svg>
