<svg width="256" height="256" viewBox="0 0 256 256" fill="none" xmlns="http://www.w3.org/2000/svg">
<g clip-path="url(#clip0_911_744)">
<path d="M255.637 127.683C255.637 198.197 198.471 255.363 127.953 255.363C57.4341 255.363 0.269531 198.197 0.269531 127.683C0.269531 57.1653 57.4349 0 127.953 0C198.472 0 255.637 57.1653 255.637 127.683Z" fill="#DD4814"/>
<path d="M41.1327 110.632C31.7132 110.632 24.082 118.264 24.082 127.683C24.082 137.097 31.7132 144.728 41.1327 144.728C50.5469 144.728 58.1781 137.097 58.1781 127.683C58.1781 118.264 50.5469 110.632 41.1327 110.632ZM162.848 188.111C154.694 192.82 151.898 203.24 156.608 211.39C161.312 219.543 171.732 222.338 179.886 217.629C188.039 212.925 190.835 202.505 186.126 194.35C181.421 186.202 170.995 183.407 162.848 188.111ZM78.1611 127.683C78.1611 110.836 86.5288 95.9531 99.3325 86.9405L86.8696 66.0664C71.9548 76.0361 60.8574 91.2707 56.2457 109.113C61.6269 113.504 65.0713 120.189 65.0713 127.682C65.0713 135.171 61.6269 141.855 56.2457 146.246C60.8514 164.094 71.9488 179.329 86.8696 189.299L99.3325 168.42C86.5288 159.413 78.1611 144.53 78.1611 127.683ZM127.953 77.8852C153.966 77.8852 175.308 97.8299 177.548 123.265L201.839 122.907C200.644 104.129 192.441 87.2716 179.836 74.8755C173.354 77.3244 165.867 76.9498 159.396 73.2194C152.913 69.4785 148.849 63.1678 147.738 56.3174C141.437 54.5787 134.807 53.6267 127.952 53.6267C116.168 53.6267 105.026 56.3947 95.1337 61.291L106.979 82.5172C113.351 79.5518 120.46 77.8852 127.953 77.8852ZM127.953 177.475C120.46 177.475 113.351 175.808 106.979 172.843L95.1344 194.069C105.027 198.971 116.168 201.74 127.953 201.74C134.808 201.74 141.439 200.787 147.738 199.043C148.849 192.193 152.915 185.888 159.396 182.14C165.872 178.404 173.355 178.036 179.837 180.485C192.441 168.089 200.645 151.231 201.84 132.453L177.543 132.095C175.308 157.537 153.967 177.475 127.953 177.475ZM162.842 67.2443C170.995 71.9529 181.416 69.1639 186.12 61.0102C190.83 52.8565 188.041 42.4355 179.886 37.7254C171.732 33.0214 161.312 35.8163 156.601 43.97C151.898 52.1193 154.693 62.5402 162.842 67.2443Z" fill="#FFDF20"/>
</g>
<defs>
<clipPath id="clip0_911_744">
<rect width="256" height="256" fill="white"/>
</clipPath>
</defs>
</svg>
