<svg width="234" height="231" viewBox="0 0 234 231" fill="none" xmlns="http://www.w3.org/2000/svg">
<path d="M0 111.751V111.426C2.93453 73.5272 16.6464 45.1001 40.4673 27.128C63.9644 8.83178 89.4248 0.00778581 117.162 0.00778581C146.204 -0.316318 173.294 9.47999 197.449 29.0831C221.928 48.362 234 77.1132 234 114.354V116.643C234 154.219 221.928 182.311 197.449 201.59C172.97 221.193 145.881 231 116.838 231H115.533C87.1378 230.676 61.0299 220.869 36.8853 201.266C12.7302 181.987 0.334181 152.253 0.0104432 111.74L0 111.751ZM109.977 60.4584V8.83178H102.145C100.515 10.7973 99.2101 13.0765 97.9047 15.042C96.5993 17.0076 95.2939 18.9627 93.9885 21.2523C92.6831 23.2178 91.054 25.8316 90.0723 27.7867C88.7669 29.7522 87.7852 31.7073 86.8036 33.9969C84.8403 37.2693 83.2111 40.5313 81.9057 43.4691C80.2766 46.407 78.9712 49.3553 77.9896 51.969C79.9529 53.2759 82.2295 54.9069 84.8403 55.8896C87.7748 56.8724 90.7198 57.8552 93.6543 58.5034C96.923 59.162 99.8575 59.4861 102.468 59.8102C105.403 60.1343 108.014 60.4689 109.977 60.4689V60.4584ZM123.689 8.84224V60.1343C125.318 60.1343 127.281 60.4584 129.234 60.1343C131.197 60.1343 133.474 59.8102 135.437 59.4757C139.03 58.817 143.27 57.8447 146.538 56.8619C150.131 55.5551 153.389 53.9241 155.676 51.9586C151.76 42.4864 147.52 34.9692 143.27 27.7762C139.019 20.5832 134.132 14.3834 128.91 9.15589V8.83178H123.689V8.84224ZM88.4432 11.7801V11.456C86.1561 12.4388 83.8691 14.0697 81.2583 15.0525C78.9712 16.0353 76.0367 17.3421 73.7496 18.649C69.1755 20.9386 64.6119 23.5524 60.0378 26.4902C55.7978 29.4281 51.5475 32.7005 47.9655 35.9624C49.2709 37.2693 50.9 38.5762 52.2054 39.559C53.5108 40.5417 55.1399 41.8486 56.7795 43.1555C58.0849 43.8141 59.714 44.7864 61.3536 46.0933C62.9827 47.0761 64.946 48.383 66.8989 49.6898C69.5097 43.8037 72.1205 37.6039 75.3892 32.0418C78.6579 26.1557 82.2399 20.6041 85.8324 15.7007C86.1561 15.042 86.4903 14.3938 87.1378 13.7352C87.4615 13.4111 87.7957 12.4387 88.4432 11.7801ZM188.301 35.952V35.6279C180.145 29.4176 172.96 24.1901 165.785 20.9282C158.611 17.6662 151.426 14.3938 144.899 11.7801C150.12 17.0076 154.695 23.5419 157.629 29.7522C160.898 36.2865 164.156 43.145 166.767 49.6794C168.072 49.0207 169.701 48.3725 171.665 47.0656C173.294 46.0829 175.581 45.1001 177.544 44.1278C179.508 42.8209 181.137 41.514 183.09 40.2072C185.053 38.5762 187.006 37.2693 188.311 35.9624L188.301 35.952ZM182.755 108.813H220.288C220.288 96.7267 217.677 85.289 212.779 73.5272C208.205 62.0894 201.678 52.6172 193.522 44.4519V44.1278C191.893 46.7415 189.606 49.0312 187.319 50.6621C184.708 52.2931 182.421 53.6 179.81 54.9069C178.181 55.8896 176.542 57.1965 174.913 57.8447C173.283 58.8275 170.996 59.4757 169.367 60.4584C170.673 63.0722 171.978 66.01 173.283 68.6238C174.265 71.5616 175.894 74.834 176.552 77.7719C178.515 82.9994 179.821 88.551 181.126 94.113C182.108 99.0164 182.755 104.244 182.755 108.813ZM64.6223 60.4584V60.1343C62.0115 58.8275 59.077 57.8447 56.7899 56.5378C54.5029 54.9069 52.2158 53.2654 50.263 51.9586C48.2996 50.9758 46.3468 49.6689 44.7176 48.362C43.0885 47.0552 41.7831 45.7483 40.4777 44.4414C31.9874 52.6068 25.7946 61.7549 21.8784 72.5444C17.6385 83.3235 14.6935 95.4199 13.3881 108.489H53.5317C53.5317 99.3405 54.8371 90.5165 57.1241 81.6925C59.0874 72.5444 62.0115 65.6859 64.6223 60.4584ZM109.977 108.489V70.9134C107.366 71.2375 104.097 71.2375 101.163 70.9134C97.8942 70.5893 94.636 69.6066 91.7014 68.6238C89.0906 67.9651 85.8219 67.3169 83.2111 66.3341C80.2766 65.6755 77.3316 64.3686 75.055 63.0617C73.0917 66.3341 71.4626 70.2548 70.1572 74.4995C68.528 78.4201 67.5464 82.6648 66.5647 86.5854C65.9068 90.506 65.5831 94.7508 65.2593 98.3473C64.9356 101.944 64.6014 105.54 64.6014 108.478H109.967L109.977 108.489ZM123.689 71.5721V108.489H171.988C171.988 106.523 171.988 104.244 171.665 101.63C171.007 99.3405 170.683 96.4026 170.359 93.7889C169.378 89.8683 168.396 85.6236 167.091 81.703C165.785 78.1064 164.48 74.5099 162.851 71.5721C162.193 69.9411 161.545 67.9756 160.887 66.6687C159.906 65.0377 158.924 64.055 158.277 63.0722C154.684 65.6859 149.786 67.3169 143.917 68.6238C138.372 69.9307 131.845 71.2375 125.965 71.5616H123.678L123.689 71.5721ZM53.5212 119.268H13.3777C13.3777 124.819 14.3594 131.03 15.9885 138.547C17.6176 146.388 20.8863 153.581 24.4788 161.422C26.1079 165.343 28.0712 169.263 30.0241 173.184C32.3112 176.78 34.9219 180.701 37.5327 184.298C39.4961 182.991 41.4489 182.008 43.0781 181.025C45.0414 180.042 47.318 178.736 49.2813 177.753C51.5683 176.77 53.8554 175.787 56.4662 174.48C58.7532 173.498 61.6878 172.191 64.6223 170.884C62.0115 162.719 59.077 154.877 57.1137 146.053C54.8266 137.553 53.5212 129.064 53.5212 119.592V119.268ZM109.977 157.491V119.268H64.6119C64.6119 121.881 64.9356 125.802 65.5935 129.723C65.9173 133.643 66.8989 137.888 67.5568 142.143C68.8622 146.722 69.8439 151.291 71.1493 155.212C72.4547 159.132 73.7601 162.405 75.0655 165.343C80.945 163.053 86.814 161.422 90.7302 160.439C94.9701 159.132 98.8863 158.15 102.803 157.826H106.395C107.7 157.502 109.006 157.502 109.987 157.502L109.977 157.491ZM123.689 119.268V157.167C125.976 157.491 128.587 157.826 131.197 158.15C134.132 158.474 137.724 159.132 140.659 159.781L145.557 160.763C147.186 161.422 149.149 161.746 150.778 162.07C152.742 162.729 154.695 163.053 156.658 163.701C158.287 164.36 159.927 164.684 161.232 165.332C165.472 154.553 168.083 145.729 169.722 138.212C171.351 131.019 172.009 124.819 172.009 119.592V119.268H123.71H123.689ZM220.288 119.592V119.268H182.755V121.233C182.432 127.443 181.45 134.626 180.145 142.143C178.839 149.336 175.905 157.826 171.988 168.281C177.21 170.894 182.108 173.508 186.024 176.122C189.94 178.736 193.533 181.673 196.144 184.287C201.689 178.736 206.587 171.218 210.827 161.412C215.067 151.939 218.012 142.133 219.641 131.678C219.964 129.712 219.964 127.757 220.299 125.792V119.581L220.288 119.592ZM109.977 218.914V167.946C101.821 169.253 94.9597 170.884 89.7381 172.191C84.5165 173.498 80.6003 174.805 77.9896 176.111C79.9529 181.015 81.9057 185.259 83.8691 189.18C85.8324 192.777 88.109 196.697 90.0723 199.959C90.7302 201.266 92.0356 202.573 93.0068 204.204C93.9885 205.511 94.636 207.142 95.6176 208.449C96.5993 210.08 97.5809 212.045 98.5521 214C99.8575 215.631 100.839 217.597 102.145 218.904L109.977 218.914ZM123.689 218.914H131.197C134.132 216.624 137.077 213.362 139.354 209.766C141.964 206.169 144.899 201.925 146.862 198.328C149.149 194.083 151.436 190.163 153.389 186.242C155.342 182.322 156.982 178.725 158.287 176.111C154.695 174.805 149.797 173.498 144.909 172.191C140.022 170.884 133.161 169.577 123.699 168.27V218.914H123.689ZM188.301 192.128V191.804C187.643 190.822 186.337 189.515 185.366 188.532C184.395 187.549 182.755 186.242 181.126 185.259C179.821 184.277 178.192 183.294 176.228 182.322C174.265 181.349 171.654 180.032 169.378 178.725C168.072 181.339 165.785 185.918 162.527 192.118C159.592 198.328 154.371 205.845 147.844 214.011C156 212.704 163.185 209.766 169.712 205.845C176.897 202.249 183.09 197.345 188.311 192.118L188.301 192.128ZM66.8989 181.673V181.349C64.6119 182.656 61.0194 184.287 57.4374 185.929C53.5212 187.56 49.2813 189.525 45.3651 192.139C47.6522 194.104 49.9392 196.059 51.8921 197.366C53.8554 198.997 56.132 200.304 58.0953 201.611C61.6878 203.901 65.9277 206.19 70.1676 208.145C74.4075 210.1 79.6291 212.066 86.1561 214.032C83.8691 211.418 82.2399 208.145 80.6108 205.532C78.9817 202.918 77.0183 200.304 75.3892 197.69C73.7601 195.077 72.4547 192.139 71.1493 189.525C69.5202 186.911 68.2148 184.298 66.9094 181.684L66.8989 181.673Z" fill="#276CF3"/>
</svg>
